<?xml version="1.0" encoding="utf-8"?>
<!-- Generator: Adobe Illustrator 26.0.2, SVG Export Plug-In . SVG Version: 6.00 Build 0)  -->
<svg version="1.1" id="Layer_1" xmlns="http://www.w3.org/2000/svg" xmlns:xlink="http://www.w3.org/1999/xlink" x="0px" y="0px"
	 viewBox="0 0 271.3 31.97" style="enable-background:new 0 0 271.3 31.97;" xml:space="preserve">
<style type="text/css">
	.st0{fill:#00539B;}
	.st1{fill:#8C8B8B;}
	.st2{fill:#20407E;}
	.st3{fill:#BABABA;}
	.st4{font-family:'MyriadPro-Regular';}
	.st5{font-size:1.7632px;}
	.st6{fill:#E6E6E6;}
</style>
<g>
	<path class="st0" d="M261.87-69.55h-0.9v-0.32h2.18v0.32h-0.9v2.63h-0.39V-69.55z"/>
	<path class="st0" d="M265.85-68.22c-0.02-0.41-0.05-0.91-0.05-1.27h-0.01c-0.11,0.34-0.22,0.71-0.37,1.12l-0.52,1.43h-0.29
		l-0.48-1.4c-0.14-0.42-0.25-0.8-0.34-1.15h-0.01c-0.01,0.37-0.03,0.86-0.06,1.3l-0.08,1.26h-0.36l0.2-2.95h0.49l0.5,1.43
		c0.12,0.36,0.22,0.69,0.3,0.99h0.01c0.08-0.3,0.18-0.62,0.32-0.99l0.52-1.43h0.49l0.18,2.95h-0.38L265.85-68.22z"/>
</g>
<g id="Group_1927" transform="translate(-117.5 -27)">
	<g id="Group_1852" transform="translate(117.5 27)">
		<path id="Path_2052" class="st1" d="M50.12,11.43c2.02,0,2.36,0.06,4.15,0.06c0.16,0.08,0.28,0.22,0.34,0.38
			c0.32,0.93,0.71,1.83,1.18,2.69c1.74,3.49,5.33,10.58,5.76,11.15c0.06,0.09,0.25,0.18,0.31,0.09c0.28-0.5,6.07-10.93,6.57-12.18
			c0.03-0.12,0.53-1.12,0.71-1.72c0.06-0.17,0.18-0.32,0.34-0.41c1.12,0,3.63-0.09,3.9-0.09c0.4,0,0.81,0.06,0.81,0.32
			c0,0.21-0.25,0.38-0.81,0.47c-0.48,0.08-0.94,0.21-1.39,0.38c-0.46,0.18-0.96,0.74-0.96,2.28c0,8.22,0.34,11.97,0.43,12.8
			c0.19,1.33,0.53,1.63,2.02,2.04c0.56,0.12,0.84,0.35,0.84,0.56c0,0.24-0.43,0.38-0.9,0.38c-0.34,0-2.73-0.15-3.88-0.15
			c-0.59,0-1.61,0.09-2.36,0.09c-0.34,0-0.84-0.12-0.84-0.41c0-0.27,0.37-0.41,0.81-0.53c1.27-0.35,1.33-1.03,1.43-2.13
			c0.12-1.33,0.06-9.9-0.03-11.41c0-0.21-0.12-0.38-0.31-0.09c-0.34,0.56-3.81,7.07-5.02,9.49c-0.74,1.54-1.46,3.08-1.92,4.23
			c-0.34,0.86-0.5,0.83-0.71,0.83c-0.19,0-0.37-0.24-0.47-0.56c-0.33-1.06-0.71-2.11-1.15-3.13c-1.67-3.9-4.21-8.57-5.36-11.09
			c-0.09-0.21-0.19-0.24-0.22,0.09c-0.37,3.79-0.53,7.6-0.5,11.41c0.06,1.51,0.31,1.92,1.89,2.39c0.68,0.18,0.84,0.3,0.84,0.56
			c0,0.24-0.34,0.35-0.84,0.35c-0.99,0-2.29-0.09-3.1-0.09c-0.74,0-1.71,0.09-2.48,0.09c-0.47,0-0.81-0.09-0.81-0.41
			c0-0.12,0.22-0.32,0.62-0.41c1.92-0.53,2.11-1.03,2.35-2.72c0.31-2.04,0.99-10.56,1.06-12.77c0-0.83-0.58-1.55-1.39-1.72
			c-0.53-0.15-0.93-0.27-1.33-0.35c-0.22-0.06-0.5-0.27-0.5-0.47C49.22,11.44,49.44,11.44,50.12,11.43"/>
		<path id="Path_2053" class="st2" d="M73.71,11.44c1.92,0,2.25,0.06,3.96,0.06c0.15,0.08,0.27,0.22,0.33,0.38
			c0.3,0.92,0.68,1.82,1.12,2.69c1.66,3.49,5.09,10.58,5.5,11.15c0.06,0.09,0.24,0.18,0.29,0.09c0.27-0.5,5.8-10.93,6.27-12.18
			c0.03-0.12,0.5-1.12,0.68-1.72c0.06-0.17,0.17-0.32,0.32-0.41c1.06,0,3.46-0.09,3.73-0.09c0.38,0,0.77,0.06,0.77,0.32
			c0,0.21-0.24,0.38-0.77,0.47c-0.45,0.08-0.9,0.21-1.33,0.38c-0.44,0.18-0.92,0.74-0.92,2.28c0,8.22,0.32,11.98,0.41,12.8
			c0.18,1.33,0.5,1.63,1.92,2.04c0.53,0.12,0.8,0.35,0.8,0.56c0,0.24-0.41,0.38-0.86,0.38c-0.33,0-2.6-0.15-3.7-0.15
			c-0.56,0-1.54,0.09-2.25,0.09c-0.33,0-0.8-0.12-0.8-0.41c0-0.27,0.35-0.41,0.77-0.53c1.21-0.35,1.27-1.03,1.36-2.13
			c0.12-1.33,0.06-9.9-0.03-11.41c0-0.21-0.12-0.38-0.3-0.09c-0.33,0.56-3.64,7.07-4.79,9.49c-0.71,1.54-1.39,3.08-1.83,4.23
			c-0.33,0.86-0.47,0.83-0.68,0.83c-0.18,0-0.35-0.24-0.44-0.56c-0.31-1.06-0.68-2.11-1.09-3.14c-1.6-3.9-4.02-8.57-5.11-11.09
			c-0.09-0.21-0.18-0.24-0.21,0.09c-0.35,3.79-0.51,7.6-0.47,11.41c0.06,1.51,0.29,1.92,1.8,2.4c0.65,0.18,0.8,0.29,0.8,0.56
			c0,0.24-0.33,0.35-0.8,0.35c-0.95,0-2.19-0.09-2.96-0.09c-0.71,0-1.63,0.09-2.36,0.09c-0.44,0-0.77-0.09-0.77-0.41
			c0-0.12,0.21-0.33,0.59-0.41c1.83-0.53,2.01-1.03,2.25-2.72c0.29-2.04,0.95-10.56,1.01-12.77c0.01-0.81-0.54-1.53-1.33-1.72
			c-0.5-0.15-0.88-0.27-1.27-0.35c-0.21-0.06-0.47-0.27-0.47-0.47C72.85,11.45,73.05,11.45,73.71,11.44"/>
		<path id="Path_2054" class="st2" d="M109.75,11.4c0.75,0.12,1.76,0.5,2.2,0.56c0.14,0,0.43,0.21,0.43,0.88
			c0,0.62,0.14,1.91,0.2,2.56c0.03,0.62-0.2,0.97-0.43,0.97c-0.14,0-0.32-0.32-0.46-0.76c-0.18-0.83-0.59-1.59-1.19-2.2
			c-1.32-1.03-2.96-1.58-4.63-1.53c-4.33,0.1-7.76,3.69-7.66,8.02c0,0.11,0.01,0.22,0.01,0.33c-0.04,1.67,0.3,3.33,1.01,4.85
			c1.36,2.82,4.19,4.63,7.32,4.7c2.49,0.03,4.77-1.4,5.85-3.64c0.38-0.62,0.49-0.76,0.61-0.76c0.29,0,0.32,0.65,0.26,0.97
			c-0.24,1.04-0.63,2.04-1.16,2.97c-0.23,0.33-0.54,0.59-0.9,0.76c-1.7,0.55-3.48,0.82-5.27,0.82c-3.1,0.05-6.08-1.2-8.22-3.44
			c-1.62-1.87-2.49-4.28-2.43-6.76c0.05-2.69,1.2-5.24,3.18-7.05c2.2-1.82,4.99-2.78,7.84-2.7
			C107.48,10.96,108.63,11.12,109.75,11.4"/>
		<path id="Path_2055" class="st1" d="M29.94,11.4c1.3,0,2.05,0.09,3.19,0.09c1.15,0,2.32-0.06,3-0.06c0.59,0,0.96,0.09,0.96,0.33
			s-0.34,0.44-0.93,0.56c-1.12,0.21-1.7,0.5-1.89,1.69c-0.16,0.98-0.12,4.06-0.12,8.25c0,3.35,0.77,4.61,1.74,5.64
			c1.26,1.05,2.85,1.63,4.49,1.63c2.67,0.18,5.1-1.56,5.79-4.14c0.5-2.44,0.73-4.93,0.68-7.42c0-1.92-0.09-3.46-0.12-3.81
			c-0.09-1.12-0.31-1.54-2.05-1.92c-0.31-0.06-0.65-0.33-0.65-0.53c0-0.18,0.19-0.29,0.71-0.29c0.77,0,1.64,0.09,2.63,0.09
			c1.27,0,1.92-0.06,2.79-0.06c0.5,0,0.77,0.09,0.77,0.33c0,0.18-0.25,0.38-0.68,0.53c-1.33,0.35-1.95,0.86-2.01,2.72
			c-0.03,1.27-0.22,4.55-0.28,6.09c-0.16,5.15-1.64,7.75-3.88,8.93c-1.39,0.67-2.92,1-4.46,0.95c-2.01,0.05-3.98-0.56-5.61-1.75
			c-1.74-1.57-2.48-3.73-2.48-8.69c0-4.26-0.09-6.62-0.12-7.01c-0.06-0.56-0.5-1.03-1.67-1.27c-0.37-0.09-0.71-0.24-0.71-0.5
			c0-0.24,0.4-0.35,0.9-0.35"/>
		<path id="Path_2056" class="st1" d="M24.37,10.72c-0.38,2.07-1.05,4.08-1.98,5.96c-0.14,10.05-4.3,13.07-7.8,13.62h0.02
			c-1.21,0.42-2.5,0.58-3.77,0.47c0.2,0.37,0.42,0.73,0.64,1.1c1.33-0.02,2.66-0.15,3.97-0.39C22.92,27.51,26.63,18.88,24.37,10.72"
			/>
		<path id="Path_2057" class="st2" d="M9.69,2.92L7.01,0c-8.98,11.07-8.19,20.87-3.97,26.31C0.82,17.88,3.37,8.92,9.69,2.92"/>
		<path id="Path_2058" class="st2" d="M21.88,9.25L15.5,7.1c5.98,16.12-1.37,21.03-3.92,22.41c-0.59-0.22-1.17-0.48-1.74-0.77
			c0.3,0.7,0.63,1.38,0.99,2.04c1.28,0.11,2.56-0.05,3.77-0.47h-0.02c3.5-0.55,7.66-3.57,7.8-13.62
			C22.4,14.2,22.23,11.72,21.88,9.25"/>
		<path id="Path_2059" class="st3" d="M9.84,28.74C4.14,15.34,13.04,0,13.04,0c-1.18,0.89-2.3,1.86-3.35,2.91
			c-6.32,6-8.87,14.97-6.65,23.4c0.18,0.8,0.48,1.57,0.89,2.27c1.73,1.7,3.96,2.82,6.36,3.19c0.34,0.06,0.67,0.1,1.02,0.11h0.18l0,0
			c-0.23-0.36-0.44-0.73-0.64-1.1c-0.37-0.66-0.7-1.34-0.99-2.04"/>
		<text transform="matrix(1 0 0 1 113.5351 13.3515)" class="st2 st4 st5">TM</text>
	</g>
	<g id="Line_35">
		<rect x="246.45" y="30.55" class="st6" width="3.53" height="28.42"/>
	</g>
	<g id="Group_1853" transform="translate(198.959 36.041)">
		<path id="Path_1980" class="st6" d="M142.01,12.79c-0.01,1.49-1.18,2.7-2.67,2.77c-1.51-0.01-2.73-1.24-2.72-2.75
			c0-0.01,0-0.02,0-0.02c-0.07-1.49,1.09-2.75,2.57-2.81c1.49-0.07,2.75,1.09,2.81,2.57C142.01,12.63,142.01,12.71,142.01,12.79"/>
		<g id="Group_1846" transform="translate(0 0)">
			<path id="Path_1982" class="st2" d="M84.53,7.56c0.06,0.48,0.16,0.96,0.32,1.42c0.37,0.95,2.58,6.57,3.26,8.02
				c0.58,1.32,0.77,1.55,1.84,1.82c0.5,0.13,0.68,0.26,0.68,0.42c0,0.21-0.26,0.42-0.56,0.42c-1.23,0-2.39-0.13-3.25-0.13
				c-0.66,0-1.08,0.08-1.92,0.08c-0.42,0-0.66-0.18-0.66-0.39c0-0.16,0.19-0.26,0.63-0.37c0.79-0.21,1.05-0.61,1.05-0.92
				c-0.16-0.64-0.36-1.28-0.6-1.9c-0.05-0.13-0.18-0.24-0.63-0.26c-0.34-0.03-2.18-0.05-3.07,0c-0.45,0.02-0.68,0.02-0.79,0.18
				c-0.29,0.59-0.48,1.22-0.58,1.87c0,0.53,0.16,0.76,1.02,1.05c0.32,0.08,0.58,0.16,0.58,0.4c0,0.24-0.29,0.34-0.63,0.34
				c-0.71,0-1.21-0.08-1.87-0.08c-0.9,0-1.55,0.13-2.21,0.13c-0.29,0-0.56-0.11-0.56-0.32s0.27-0.34,0.63-0.44
				c0.95-0.24,1.32-0.53,1.94-1.74c0.47-0.89,2.54-5.81,2.94-6.75c0.25-0.54,0.44-1.1,0.58-1.68c0.07-0.17,0.18-0.33,0.32-0.45
				c0.18-0.24,0.53-0.45,0.74-0.71c0.21-0.26,0.36-0.32,0.47-0.32c0.17,0.01,0.31,0.15,0.32,0.32 M84.69,14.36l-1.49-3.81
				c0-0.02-0.22-0.1-0.27,0c-0.47,1.21-1.15,2.82-1.55,3.89c0,0.08,0.08,0.22,0.19,0.22c0.53,0.02,2.5,0.05,2.94,0
				C84.63,14.61,84.7,14.49,84.69,14.36"/>
			<path id="Path_1983" class="st2" d="M93.81,7.61c0.68,0,1.29,0.03,1.58,0.03c0.63,0,1.68-0.11,3.89-0.11
				c1.24-0.12,2.48,0.23,3.47,0.97c0.61,0.52,0.95,1.28,0.95,2.08c-0.03,1.35-0.93,2.53-2.23,2.9c-0.05,0.03-0.14,0.13-0.11,0.16
				c0.73,1.4,1.63,2.72,2.66,3.92c0.54,0.7,1.3,1.19,2.16,1.42c0.34,0.08,0.47,0.16,0.47,0.37c0,0.31-0.63,0.53-1.66,0.53
				c-1.3-0.01-2.52-0.61-3.31-1.63c-0.44-0.53-1.84-2.82-2.37-3.55c-0.37-0.43-0.9-0.68-1.47-0.68c-0.15,0-0.29,0.06-0.39,0.16
				c-0.08,0.06-0.13,0.14-0.14,0.24c0,0.53,0.03,1.94,0.08,3.29c0.06,0.79,0.48,0.92,1.16,1.13c0.21,0.05,0.55,0.22,0.55,0.4
				c0,0.32-0.44,0.39-0.71,0.39c-0.79,0-1.42-0.08-2.13-0.08c-0.88,0-1.68,0.18-2.49,0.18c-0.45,0-0.74-0.16-0.74-0.34
				c0-0.16,0.24-0.37,0.66-0.47c1.16-0.29,1.34-0.53,1.37-1.66c0.02-0.53,0.13-2.71,0.13-5.07c0-1.29,0.02-1.94-0.03-2.58
				c-0.05-0.55-0.08-0.97-1.34-1.21c-0.39-0.08-0.68-0.26-0.68-0.42C93.13,7.74,93.47,7.6,93.81,7.61 M97.65,8.47
				c-0.16,0.07-0.26,0.22-0.27,0.39c0,0.26-0.08,3.86-0.08,4.13c0.03,0.16,0.11,0.29,0.29,0.29c0.93,0.04,1.87-0.11,2.74-0.45
				c0.66-0.44,1.07-1.17,1.08-1.97c-0.07-1.48-1.33-2.62-2.82-2.55c-0.08,0-0.16,0.01-0.24,0.02C98.12,8.34,97.88,8.38,97.65,8.47"
				/>
			<path id="Path_1984" class="st2" d="M114.7,13.03c1.12,0,1.26-0.16,1.65-1.06c0.11-0.26,0.29-0.53,0.5-0.53
				c0.21,0,0.23,0.26,0.23,0.63c0,0.18-0.07,0.58-0.07,1.23c0,0.76,0.07,0.86,0.07,1.44c0,0.55-0.18,0.71-0.39,0.71
				c-0.16,0-0.29-0.21-0.42-0.55c-0.23-0.53-0.34-0.76-0.58-0.87c-0.74-0.12-1.49-0.16-2.24-0.11c-0.1,0-0.21,0.18-0.26,0.37
				c-0.11,1.23-0.1,2.46,0.05,3.68c0.11,0.18,0.25,0.34,0.42,0.47c0.52,0.17,1.06,0.26,1.61,0.26c0.55,0.01,1.1-0.04,1.63-0.16
				c0.85-0.23,1.56-0.81,1.94-1.6c0.21-0.31,0.34-0.5,0.53-0.5c0.24,0,0.26,0.45,0.26,0.58c-0.11,0.81-0.35,1.6-0.71,2.34
				c-0.1,0.18-0.29,0.26-0.79,0.26c-2.26,0-2.57-0.13-6.17-0.13c-0.84,0-1.84,0.13-2.47,0.13c-0.39,0-0.84-0.1-0.84-0.37
				c0-0.23,0.36-0.36,0.66-0.44c1.41-0.32,1.47-0.63,1.58-1.58c0.05-0.74,0.08-2.39,0.08-4.07c0-1.21,0-2.6-0.05-3.68
				c-0.03-0.55-0.19-0.92-1.26-1.18c-0.32-0.08-0.63-0.21-0.63-0.45c0-0.18,0.26-0.31,0.71-0.31c0.48,0,1.37,0.1,2.42,0.1
				c1.95,0.11,3.91,0.08,5.86-0.1c0.15-0.02,0.29,0.09,0.32,0.24c0,0.76,0.18,1.78,0.21,2.21c0.02,0.36-0.21,0.58-0.32,0.58
				c-0.11,0-0.34-0.16-0.55-0.6c-0.45-0.95-0.82-1.31-1.66-1.39c-0.84-0.1-1.68-0.14-2.52-0.1c-0.13,0-0.22,0.23-0.24,0.36
				c-0.1,1.27-0.12,2.54-0.05,3.81c0.02,0.16,0.13,0.29,0.29,0.31c0.39,0.03,0.94,0.05,1.21,0.05"/>
			<path id="Path_1985" class="st2" d="M129.67,7.63c0.16,0.02,0.23,0.34,0.23,0.6c0,0.76,0.03,1.47-0.02,1.81
				c-0.08,0.5-0.29,0.58-0.39,0.58c-0.24,0-0.31-0.29-0.39-0.6c-0.13-0.58-0.44-1.11-0.89-1.5c-0.46-0.36-1.02-0.55-1.61-0.56
				c-1.1-0.09-2.06,0.74-2.15,1.84c0,0.03,0,0.07-0.01,0.1c0.11,0.9,0.69,1.68,1.52,2.05c0.87,0.47,1.6,0.84,2.39,1.32
				c1.2,0.56,1.98,1.75,2.02,3.08c-0.04,1.14-0.65,2.19-1.63,2.78c-0.91,0.51-1.93,0.79-2.97,0.79c-1.17,0.05-2.32-0.22-3.34-0.79
				c-0.19-0.12-0.3-0.33-0.32-0.55c-0.02-0.32-0.21-1.6-0.21-2.02c0-0.48,0.16-0.74,0.36-0.74c0.24,0,0.32,0.32,0.45,0.63
				c0.17,0.43,0.38,0.83,0.63,1.21c0.61,0.91,1.62,1.46,2.71,1.49c1.08,0.09,2.03-0.71,2.13-1.79c0-0.03,0.01-0.07,0.01-0.1
				c0-1-0.58-1.55-1.47-2.1c-0.79-0.47-1.57-0.87-2.13-1.23c-1.23-0.63-2.04-1.86-2.15-3.23c0-1.97,1.6-3.47,4.36-3.47
				C127.77,7.27,128.73,7.4,129.67,7.63"/>
			<path id="Path_2046" class="st2" d="M64.45,8.63c1.56-1.19,3.49-1.8,5.45-1.74c1.32,0.04,2.63,0.24,3.9,0.6
				c0.11,0.02,0.3,0.65,0.3,0.71c0,0.71,0.16,1.95,0.16,2.14c0.01,0.28-0.19,0.53-0.47,0.57c-0.11,0-0.16-0.11-0.3-0.35
				c-0.2-0.57-0.49-1.1-0.87-1.57c-0.82-0.83-1.95-1.29-3.12-1.27c-1.15,0.03-2.24,0.47-3.09,1.24c-0.96,1.14-1.47,2.58-1.44,4.07
				c-0.06,1.64,0.52,3.23,1.63,4.44c0.91,0.92,2.12,1.49,3.41,1.6c1.16,0.07,2.28-0.46,2.96-1.41c0.19-0.3,0.43-0.6,0.65-0.98
				c0.14-0.29,0.39-0.51,0.71-0.6c0.14,0,0.25,0.25,0.22,0.35c-0.22,0.68-0.6,2.14-0.73,2.52c-0.03,0.14-0.38,0.35-0.62,0.46
				c-1.18,0.39-2.42,0.58-3.66,0.57c-2.06,0.05-4.06-0.69-5.59-2.06c-1.17-1.2-1.81-2.82-1.79-4.5
				C62.18,11.57,63.01,9.81,64.45,8.63"/>
		</g>
		<g id="Group_1847" transform="translate(48.817 0.274)">
			<path id="Path_1987" class="st2" d="M118.22,7.19c0.21,0.02,2.02,0.08,2.78,0.08c0.88-0.01,1.75-0.06,2.63-0.16
				c0.22-0.02,0.56,0.16,0.56,0.29c0,0.18-0.34,0.42-0.63,0.5c-1.27,0.34-1.34,0.55-1.42,1.5c-0.02,0.58-0.02,2.05-0.02,3.76
				c0,1.39,0,2.7,0.02,3.26c0.05,1.47,0.18,1.71,1.42,2c0.32,0.1,0.6,0.29,0.6,0.53c0,0.21-0.26,0.26-0.55,0.26
				c-0.79,0-1.47-0.08-2.55-0.08c-0.77,0-2.26,0.13-2.76,0.13c-0.4,0-0.63-0.1-0.63-0.29c0-0.24,0.37-0.44,0.6-0.5
				c1.26-0.32,1.47-0.63,1.53-1.66c0.02-0.47,0.05-1.34,0.05-2.23c0-2.73,0-4.47-0.03-4.94c-0.08-1.06-0.48-1.39-1.45-1.68
				c-0.48-0.16-0.58-0.34-0.58-0.53C117.79,7.3,117.89,7.17,118.22,7.19"/>
			<path id="Path_1988" class="st2" d="M128.17,7.13c0.48,0,1.49,0.13,2.3,0.13c0.76,0,1.5-0.07,2.08-0.07
				c0.51,0,0.66,0.15,0.66,0.3c0,0.15-0.18,0.28-0.59,0.41c-0.99,0.2-0.94,0.63-0.71,1.21c0.33,0.81,0.71,1.85,1.23,3.15
				c0.43,1.14,0.93,2.24,1.5,3.32c0.1,0.1,0.2,0.23,0.3-0.05c0.3-0.71,1.97-4.82,2.38-5.98c0.38-1.14,0.33-1.42-0.68-1.68
				c-0.23-0.08-0.53-0.25-0.53-0.41c0-0.08,0.21-0.28,0.61-0.28c0.68,0,1.01,0.07,1.64,0.07c0.88,0,1.68-0.13,2.08-0.13
				c0.28,0,0.56,0.07,0.56,0.25c0,0.25-0.3,0.35-0.66,0.46c-0.81,0.2-1.29,0.61-1.93,1.8c-0.58,1.04-1.23,2.79-2.05,4.58
				c-1.22,2.69-1.62,3.98-1.75,4.29c-0.13,0.31-0.46,0.68-0.66,0.68c-0.2,0-0.33-0.28-0.38-0.51c-0.26-0.91-0.57-1.79-0.94-2.66
				c-0.59-1.34-2.36-5.58-3.12-7.07c-0.3-0.61-0.88-1.04-1.55-1.14c-0.23-0.07-0.56-0.2-0.56-0.38
				C127.43,7.18,127.81,7.13,128.17,7.13"/>
			<path id="Path_2047" class="st2" d="M100.41,7.25c0.66,0,1.47,0.08,2.31,0.08c0.84,0,1.71-0.08,2.42-0.08
				c0.39,0,0.61,0.11,0.61,0.32s-0.18,0.32-0.61,0.45c-0.84,0.26-1.18,0.47-1.26,0.89c-0.08,0.5-0.05,1.74-0.05,3.39
				c0,0.08,0.13,0.29,0.27,0.29c0.08,0,1.33,0.02,2.49,0.02h3.15c0.16,0,0.29-0.05,0.32-0.73c0.05-0.79,0-2.05-0.02-2.76
				c-0.03-0.66-0.19-0.9-0.87-1.11c-0.5-0.13-0.68-0.32-0.68-0.55c0-0.08,0.08-0.21,0.68-0.21c0.66,0,0.98,0.08,2.05,0.08
				c0.74,0,1.84-0.05,2.55-0.1c0.26-0.03,0.42,0.05,0.42,0.21s-0.16,0.42-0.63,0.55c-0.86,0.26-1.13,0.42-1.18,1.13
				c-0.02,0.73-0.1,3.6-0.1,4.99c0,0.35,0,1.23,0.02,1.81c0,1.92,0.24,2.26,1.32,2.58c0.58,0.18,0.68,0.42,0.68,0.55
				s-0.2,0.23-0.47,0.23c-0.71,0-1.06-0.1-2.64-0.1c-0.74,0-1.47,0.08-2.21,0.08c-0.5,0-0.74-0.08-0.74-0.36
				c0-0.14,0.21-0.29,0.63-0.42c0.84-0.26,1.11-0.42,1.16-0.92c0.08-1.14,0.09-2.28,0.05-3.42c0-0.24-0.02-0.29-0.24-0.35
				c-1.89-0.11-3.78-0.12-5.68-0.02c-0.14,0.03-0.25,0.13-0.29,0.26c-0.08,1.04-0.07,2.09,0.03,3.13c0.05,0.97,0.26,1.02,1.11,1.34
				c0.32,0.11,0.53,0.26,0.53,0.4c0,0.21-0.16,0.36-0.63,0.36c-1.16,0-1.74-0.08-2.55-0.08c-0.95,0-1.45,0.08-2.19,0.08
				c-0.47,0-0.71-0.16-0.71-0.34s0.24-0.32,0.58-0.42c1.03-0.29,1.37-0.42,1.47-1.1c0.08-0.68,0.11-2.08,0.11-3.44
				c0-2.6,0-4.06-0.08-4.73c-0.06-0.58-0.19-0.95-1.16-1.21c-0.45-0.13-0.63-0.29-0.63-0.5c0-0.1,0.24-0.26,0.69-0.26"/>
		</g>
	</g>
</g>
</svg>
