<svg width="2691" height="1200" viewBox="0 0 2691 1200" fill="none" xmlns="http://www.w3.org/2000/svg">
<path d="M1071.77 769.655H1614.65" stroke="#E6E6E6" stroke-width="30"/>
<path d="M1546.73 1108.14C1546.66 1117.2 1543.12 1125.89 1536.83 1132.41C1530.55 1138.94 1522.01 1142.81 1512.96 1143.23C1508.39 1143.21 1503.86 1142.28 1499.65 1140.5C1495.44 1138.72 1491.62 1136.13 1488.42 1132.87C1485.21 1129.6 1482.69 1125.74 1480.99 1121.5C1479.28 1117.25 1478.44 1112.71 1478.5 1108.14C1478.32 1103.55 1479.08 1098.98 1480.71 1094.68C1482.35 1090.39 1484.83 1086.47 1488.02 1083.16C1491.2 1079.85 1495.02 1077.22 1499.25 1075.42C1503.47 1073.62 1508.02 1072.7 1512.61 1072.7C1517.21 1072.7 1521.75 1073.62 1525.98 1075.42C1530.21 1077.22 1534.03 1079.85 1537.21 1083.16C1540.4 1086.47 1542.88 1090.39 1544.52 1094.68C1546.15 1098.98 1546.9 1103.55 1546.73 1108.14" fill="#E6E6E6"/>
<path d="M818.794 1041.91C819.503 1048.03 820.844 1054.06 822.794 1059.9C827.454 1071.9 855.414 1143.16 864.074 1161.45C871.374 1178.11 873.784 1181.06 887.414 1184.45C893.703 1186.08 896.033 1187.79 896.033 1189.73C896.033 1192.41 892.694 1195.09 889.034 1195.09C873.424 1195.09 858.744 1193.42 847.834 1193.42C839.484 1193.42 834.164 1194.42 823.524 1194.42C818.204 1194.42 815.174 1192.09 815.174 1189.42C815.174 1187.42 817.544 1186.08 823.174 1184.76C833.174 1182.12 836.454 1177.07 836.454 1173.15C834.462 1164.99 831.919 1156.97 828.844 1149.15C828.144 1147.48 826.514 1146.15 820.844 1145.81C816.534 1145.46 793.274 1145.15 781.934 1145.81C776.264 1146.12 773.274 1146.12 771.934 1148.14C768.261 1155.59 765.797 1163.57 764.634 1171.79C764.634 1178.43 766.634 1181.46 777.634 1185.07C781.634 1186.07 784.974 1187.07 784.974 1190.07C784.974 1193.07 781.324 1194.38 776.974 1194.38C767.974 1194.38 761.594 1193.38 753.325 1193.38C741.985 1193.38 733.715 1195.05 725.325 1195.05C721.635 1195.05 718.255 1193.69 718.255 1191.05C718.255 1188.41 721.635 1186.74 726.255 1185.42C738.255 1182.42 742.954 1178.78 750.914 1163.42C756.854 1152.12 783.144 1089.87 788.194 1077.91C791.352 1071.08 793.798 1063.93 795.494 1056.59C796.341 1054.4 797.715 1052.46 799.494 1050.92C801.824 1047.92 806.134 1045.25 808.814 1041.93C811.494 1038.6 813.434 1037.93 814.814 1037.93C815.855 1037.99 816.837 1038.43 817.574 1039.17C818.311 1039.9 818.752 1040.88 818.814 1041.93L818.794 1041.91ZM821.144 1128.17L802.234 1079.86C802.234 1079.55 799.514 1078.58 798.774 1079.86C792.874 1095.16 784.214 1115.51 779.164 1129.14C779.164 1130.14 780.164 1131.86 781.534 1131.86C788.214 1132.17 813.144 1132.48 818.814 1131.86C819.563 1131.6 820.201 1131.1 820.624 1130.42C821.048 1129.75 821.231 1128.96 821.144 1128.17" fill="#003B82"/>
<path d="M936.263 1042.56C944.923 1042.56 952.613 1042.95 956.263 1042.95C964.263 1042.95 977.583 1041.59 1005.5 1041.59C1027.17 1041.59 1042.16 1046.58 1049.5 1053.89C1053.29 1057.14 1056.33 1061.17 1058.41 1065.71C1060.48 1070.25 1061.54 1075.19 1061.5 1080.18C1061.33 1088.51 1058.49 1096.56 1053.4 1103.15C1048.32 1109.75 1041.24 1114.53 1033.23 1116.8C1032.57 1117.15 1031.52 1118.47 1031.83 1118.8C1041.13 1136.56 1052.42 1153.2 1065.5 1168.39C1072.39 1177.21 1081.98 1183.54 1092.8 1186.39C1097.15 1187.39 1098.8 1188.39 1098.8 1191.09C1098.8 1195.09 1090.8 1197.73 1077.8 1197.73C1069.7 1197.69 1061.72 1195.81 1054.45 1192.23C1047.19 1188.65 1040.83 1183.47 1035.86 1177.07C1030.23 1170.43 1012.6 1141.42 1005.86 1132.14C1003.56 1129.45 1000.71 1127.29 997.502 1125.8C994.293 1124.3 990.802 1123.51 987.263 1123.48C985.4 1123.48 983.609 1124.2 982.263 1125.48C981.778 1125.83 981.373 1126.28 981.071 1126.8C980.77 1127.31 980.58 1127.89 980.513 1128.48C980.513 1135.12 980.903 1153.14 981.513 1170.11C982.253 1180.11 987.513 1181.76 996.193 1184.4C998.873 1185.1 1003.19 1187.12 1003.19 1189.4C1003.19 1193.4 997.563 1194.4 994.193 1194.4C984.193 1194.4 976.193 1193.4 967.193 1193.4C955.933 1193.4 945.873 1195.73 935.623 1195.73C929.913 1195.73 926.263 1193.73 926.263 1191.38C926.263 1189.38 929.263 1186.68 934.613 1185.38C949.253 1181.69 951.613 1178.7 951.973 1164.38C952.283 1157.74 953.603 1130.09 953.603 1100.11C953.603 1083.84 953.913 1075.49 953.253 1067.49C952.633 1060.49 952.253 1055.18 936.253 1052.19C931.253 1051.19 927.633 1048.85 927.633 1046.91C927.633 1044.2 931.903 1042.53 936.253 1042.53L936.263 1042.56ZM984.873 1053.52C983.891 1053.95 983.052 1054.65 982.453 1055.53C981.854 1056.42 981.521 1057.46 981.493 1058.52C981.493 1061.82 980.493 1107.41 980.493 1110.79C980.883 1112.79 981.853 1114.44 984.183 1114.44C996.008 1114.93 1007.81 1113 1018.86 1108.77C1023 1106.05 1026.4 1102.35 1028.78 1098C1031.15 1093.66 1032.43 1088.8 1032.49 1083.84C1032.49 1069.16 1021.11 1051.84 993.853 1051.84C990.773 1051.81 987.715 1052.38 984.853 1053.51" fill="#003B82"/>
<path d="M1200.86 1111.17C1215.11 1111.17 1216.86 1109.17 1221.79 1097.81C1223.15 1094.51 1225.48 1091.21 1228.12 1091.21C1230.76 1091.21 1231.12 1094.51 1231.12 1099.21C1231.12 1101.54 1230.19 1106.55 1230.19 1114.9C1230.19 1124.49 1231.12 1125.81 1231.12 1133.15C1231.12 1140.15 1228.87 1142.15 1226.23 1142.15C1224.17 1142.15 1222.54 1139.47 1220.87 1135.15C1217.87 1128.47 1216.52 1125.48 1213.57 1124.15C1204.2 1122.62 1194.69 1122.17 1185.22 1122.79C1183.94 1122.79 1182.58 1125.12 1181.92 1127.45C1180.46 1142.98 1180.69 1158.61 1182.58 1174.09C1183.99 1176.38 1185.77 1178.41 1187.86 1180.09C1194.44 1182.23 1201.3 1183.36 1208.21 1183.43C1215.15 1183.59 1222.09 1182.92 1228.87 1181.43C1234.19 1180.01 1239.15 1177.47 1243.4 1173.96C1247.65 1170.46 1251.09 1166.08 1253.49 1161.12C1256.13 1157.12 1257.8 1154.83 1260.13 1154.83C1263.13 1154.83 1263.47 1160.5 1263.47 1162.13C1262 1172.41 1258.96 1182.4 1254.47 1191.76C1253.15 1194.09 1250.82 1195.1 1244.47 1195.1C1215.89 1195.1 1211.89 1193.43 1166.22 1193.43C1155.54 1193.43 1142.88 1195.1 1134.96 1195.1C1129.96 1195.1 1124.32 1193.78 1124.32 1190.4C1124.32 1187.4 1128.94 1185.78 1132.63 1184.77C1150.57 1180.77 1151.23 1176.77 1152.63 1164.77C1153.33 1155.45 1153.63 1134.44 1153.63 1113.16C1153.63 1097.82 1153.63 1080.16 1152.97 1066.56C1152.58 1059.56 1150.56 1054.91 1136.97 1051.56C1132.97 1050.56 1128.97 1048.92 1128.97 1045.89C1128.97 1043.57 1132.31 1041.9 1137.97 1041.9C1143.97 1041.9 1155.37 1043.18 1168.65 1043.18C1230.65 1043.18 1234.94 1043.53 1242.9 1041.9C1243.82 1041.79 1244.76 1042.04 1245.5 1042.6C1246.24 1043.15 1246.75 1043.98 1246.9 1044.89C1246.9 1054.56 1249.19 1067.49 1249.54 1072.89C1249.85 1077.51 1246.9 1080.19 1245.54 1080.19C1243.87 1080.19 1241.31 1078.19 1238.54 1072.54C1232.87 1060.54 1228.21 1055.92 1217.54 1054.91C1206.95 1053.63 1196.28 1053.19 1185.62 1053.59C1183.95 1053.59 1182.9 1056.59 1182.62 1058.21C1181.33 1074.28 1181.11 1090.42 1181.96 1106.52C1182.03 1107.51 1182.43 1108.44 1183.1 1109.17C1183.77 1109.9 1184.67 1110.38 1185.65 1110.52C1190.65 1110.91 1197.57 1111.22 1200.95 1111.22" fill="#003B82"/>
<path d="M1390.52 1042.8C1392.52 1043.11 1393.52 1047.06 1393.52 1050.4C1393.52 1060.03 1393.91 1069.08 1393.25 1073.4C1392.25 1079.73 1389.6 1080.74 1388.25 1080.74C1385.25 1080.74 1384.25 1077.09 1383.25 1073.09C1381.57 1065.73 1377.62 1059.08 1371.95 1054.09C1366.13 1049.57 1358.97 1047.1 1351.6 1047.09C1348.17 1046.83 1344.72 1047.27 1341.46 1048.38C1338.2 1049.49 1335.2 1051.25 1332.65 1053.56C1330.1 1055.86 1328.04 1058.67 1326.6 1061.8C1325.17 1064.93 1324.38 1068.31 1324.3 1071.75C1325 1077.39 1327.14 1082.74 1330.53 1087.3C1333.91 1091.85 1338.41 1095.45 1343.6 1097.75C1354.6 1103.75 1363.87 1108.39 1373.89 1114.41C1381.35 1117.9 1387.69 1123.39 1392.21 1130.26C1396.74 1137.14 1399.27 1145.13 1399.52 1153.36C1399.26 1160.48 1397.24 1167.42 1393.65 1173.57C1390.06 1179.72 1385.01 1184.89 1378.94 1188.62C1367.46 1195.11 1354.5 1198.56 1341.31 1198.62C1326.56 1199.31 1311.9 1195.84 1299.02 1188.62C1297.86 1187.84 1296.89 1186.81 1296.19 1185.59C1295.5 1184.38 1295.1 1183.02 1295.02 1181.62C1294.71 1177.62 1292.38 1161.35 1292.38 1155.99C1292.38 1149.99 1294.38 1146.67 1296.96 1146.67C1299.96 1146.67 1300.96 1150.67 1302.67 1154.67C1304.79 1160.06 1307.47 1165.22 1310.67 1170.05C1314.47 1175.71 1319.56 1180.37 1325.52 1183.66C1331.49 1186.95 1338.15 1188.77 1344.96 1188.96C1348.33 1189.25 1351.72 1188.85 1354.93 1187.79C1358.14 1186.72 1361.1 1185.02 1363.62 1182.77C1366.15 1180.52 1368.19 1177.79 1369.63 1174.72C1371.06 1171.66 1371.85 1168.34 1371.96 1164.96C1371.96 1152.3 1364.62 1145.35 1353.28 1138.36C1343.28 1132.36 1333.36 1127.36 1326.28 1122.71C1314.36 1115.06 1299.02 1102.05 1299.02 1081.78C1299.02 1056.78 1319.33 1037.79 1354.28 1037.79C1366.49 1038.36 1378.63 1040.04 1390.55 1042.79" fill="#003B82"/>
<path d="M564.566 1055.56C584.346 1040.5 608.718 1032.73 633.565 1033.57C650.286 1034.05 666.883 1036.6 682.975 1041.16C684.365 1041.48 686.775 1049.39 686.775 1050.04C686.775 1058.97 688.865 1074.74 688.865 1077.15C688.941 1078.87 688.384 1080.55 687.3 1081.88C686.215 1083.21 684.68 1084.1 682.985 1084.37C681.595 1084.37 680.895 1082.98 679.245 1079.93C676.724 1072.72 673.006 1065.98 668.245 1059.99C663.111 1054.76 656.963 1050.64 650.177 1047.87C643.392 1045.1 636.112 1043.75 628.785 1043.89C614.269 1044.29 600.379 1049.89 589.646 1059.67C577.519 1074.05 571.054 1092.36 571.466 1111.16C570.659 1131.88 578.057 1152.08 592.055 1167.38C603.582 1179.07 618.901 1186.25 635.255 1187.65C642.496 1188.08 649.728 1186.67 656.275 1183.55C662.821 1180.43 668.468 1175.69 672.685 1169.79C675.095 1166.05 678.135 1162.25 680.865 1157.44C681.722 1155.62 682.964 1154 684.505 1152.7C686.047 1151.39 687.851 1150.44 689.795 1149.9C691.565 1149.9 692.945 1153 692.575 1154.34C689.795 1162.95 684.985 1181.5 683.325 1186.26C682.945 1188.03 678.515 1190.75 675.405 1192.14C660.469 1197.06 644.829 1199.49 629.105 1199.36C603.051 1200 577.739 1190.64 558.366 1173.21C543.563 1157.98 535.41 1137.5 535.696 1116.26C535.735 1104.64 538.343 1093.16 543.334 1082.66C548.325 1072.16 555.575 1062.9 564.566 1055.52" fill="#003B82"/>
<path d="M1863.63 1040.7C1866.27 1041.01 1889.22 1041.7 1898.89 1041.7C1909.99 1041.6 1921.09 1040.93 1932.13 1039.7C1934.85 1039.39 1939.2 1041.7 1939.2 1043.35C1939.2 1045.68 1934.85 1048.66 1931.2 1049.67C1915.2 1054.02 1914.2 1056.67 1913.2 1068.62C1912.89 1075.96 1912.89 1094.62 1912.89 1116.27C1912.89 1133.9 1912.89 1150.52 1913.2 1157.55C1913.86 1176.15 1915.53 1179.18 1931.2 1182.87C1935.2 1184.19 1938.81 1186.48 1938.81 1189.51C1938.81 1192.15 1935.51 1192.81 1931.81 1192.81C1921.81 1192.81 1913.17 1191.81 1899.5 1191.81C1889.79 1191.81 1870.88 1193.44 1864.55 1193.44C1859.55 1193.44 1856.55 1192.12 1856.55 1189.79C1856.55 1186.79 1861.25 1184.16 1864.2 1183.5C1880.2 1179.5 1882.84 1175.5 1883.54 1162.5C1883.85 1156.5 1884.2 1145.5 1884.2 1134.23C1884.2 1099.59 1884.2 1077.65 1883.85 1071.63C1882.85 1058.31 1877.85 1054 1865.52 1050.31C1859.52 1048.31 1858.22 1046.01 1858.22 1043.68C1858.22 1042.01 1859.5 1040.34 1863.58 1040.68" fill="#003B82"/>
<path d="M1989.72 1039.96C1995.78 1039.96 2008.63 1041.55 2018.88 1041.55C2028.51 1041.55 2037.82 1040.62 2045.24 1040.62C2051.65 1040.62 2053.59 1042.56 2053.59 1044.46C2053.59 1046.35 2051.34 1047.94 2046.17 1049.61C2033.63 1052.13 2034.3 1057.61 2037.17 1064.99C2041.32 1075.24 2046.17 1088.41 2052.9 1104.83C2058.38 1119.21 2064.72 1133.23 2071.9 1146.83C2073.18 1148.15 2074.46 1149.74 2075.74 1146.21C2079.58 1137.21 2100.74 1085.21 2105.91 1070.45C2110.73 1055.97 2110.1 1052.45 2097.25 1049.25C2094.34 1048.25 2090.49 1046.03 2090.49 1044.13C2090.49 1043.13 2093.09 1040.6 2098.26 1040.6C2106.88 1040.6 2111.03 1041.53 2119.07 1041.53C2130.29 1041.53 2140.27 1039.94 2145.36 1039.94C2148.93 1039.94 2152.47 1040.87 2152.47 1043.16C2152.47 1046.33 2148.63 1047.65 2144.12 1048.94C2133.87 1051.46 2127.77 1056.63 2119.69 1071.7C2112.35 1084.9 2104 1107.04 2093.69 1129.79C2078.27 1163.85 2073.15 1180.19 2071.56 1184.08C2070.28 1187.92 2065.74 1192.74 2063.21 1192.74C2060.92 1192.74 2059.02 1189.21 2058.4 1186.33C2055.15 1174.86 2051.19 1163.6 2046.52 1152.62C2039.1 1135.62 2016.67 1081.99 2007.04 1063.04C2005.19 1059.22 2002.44 1055.91 1999.02 1053.39C1995.6 1050.87 1991.62 1049.22 1987.43 1048.59C1984.56 1047.66 1980.36 1046.03 1980.36 1043.79C1980.36 1040.61 1985.21 1039.95 1989.72 1039.95" fill="#003B82"/>
<path d="M1638.09 1041.41C1646.39 1041.41 1656.71 1042.42 1667.33 1042.42C1677.95 1042.42 1689.01 1041.41 1697.98 1041.41C1702.98 1041.41 1705.66 1042.77 1705.66 1045.42C1705.66 1048.06 1703.33 1049.41 1697.98 1051.06C1687.35 1054.38 1682.98 1057.06 1681.98 1062.37C1680.98 1068.7 1681.3 1084.37 1681.3 1105.31C1681.3 1106.31 1682.96 1108.99 1684.67 1108.99C1685.67 1108.99 1701.57 1109.3 1716.25 1109.3H1756.18C1758.18 1109.3 1759.91 1108.63 1760.18 1100.02C1760.85 1090.02 1760.18 1074.02 1759.92 1065.02C1759.56 1056.67 1757.53 1053.67 1748.92 1051.02C1742.59 1049.36 1740.26 1047.03 1740.26 1044.03C1740.26 1043.03 1741.26 1041.39 1748.92 1041.39C1757.22 1041.39 1761.26 1042.39 1774.92 1042.39C1784.25 1042.39 1798.2 1041.72 1807.22 1041.09C1810.49 1040.73 1812.51 1041.71 1812.51 1043.74C1812.51 1046.07 1810.51 1049.07 1804.51 1050.73C1793.57 1054.05 1790.25 1056.01 1789.51 1065.04C1789.2 1074.32 1788.21 1110.62 1788.21 1128.26C1788.21 1132.62 1788.21 1143.92 1788.52 1151.26C1788.52 1175.58 1791.52 1179.89 1805.17 1183.88C1812.48 1186.21 1813.78 1189.22 1813.78 1190.88C1813.78 1192.23 1811.19 1193.88 1807.78 1193.88C1798.78 1193.88 1794.45 1192.58 1774.18 1192.58C1764.85 1192.58 1755.56 1193.58 1746.23 1193.58C1739.9 1193.58 1736.89 1192.58 1736.89 1188.97C1736.89 1187.25 1739.54 1185.28 1744.89 1183.62C1755.57 1180.31 1758.89 1178.28 1759.57 1171.95C1760.55 1157.56 1760.76 1143.12 1760.19 1128.7C1760.19 1125.7 1759.93 1125.02 1757.19 1124.34C1733.25 1122.92 1709.26 1122.81 1685.32 1124.03C1684.46 1124.19 1683.66 1124.59 1683.01 1125.17C1682.36 1125.75 1681.89 1126.51 1681.64 1127.34C1680.63 1140.53 1680.75 1153.79 1682 1166.96C1682.67 1179.25 1685.32 1179.96 1696 1183.96C1700 1185.31 1702.64 1187.28 1702.64 1188.96C1702.64 1191.6 1700.64 1193.57 1694.64 1193.57C1679.97 1193.57 1672.64 1192.57 1662.38 1192.57C1650.38 1192.57 1644.02 1193.57 1634.69 1193.57C1628.69 1193.57 1625.69 1191.57 1625.69 1189.26C1625.69 1186.61 1628.69 1185.26 1633 1183.92C1646 1180.29 1650.32 1178.63 1651.67 1169.92C1652.67 1161.26 1653.02 1143.57 1653.02 1126.31C1653.02 1093.31 1653.02 1075.02 1652.02 1066.36C1651.3 1059.05 1649.64 1054.36 1637.34 1051.06C1631.69 1049.4 1629.34 1047.39 1629.34 1044.74C1629.34 1043.45 1632.4 1041.41 1638.05 1041.41" fill="#003B82"/>
<path d="M508.986 349.048C524.986 349.048 528.286 349.538 543.826 349.538C544.576 349.538 546.326 351.788 546.826 353.038C549.25 360.815 552.352 368.363 556.096 375.597C569.876 404.406 597.936 462.295 601.696 467.314C601.946 468.064 603.695 468.814 604.205 468.314C607.205 462.555 650.055 380.867 654.825 368.588C655.325 367.088 659.325 358.068 661.085 353.048C661.335 352.048 663.085 349.548 663.845 349.548C674.615 349.548 694.665 348.798 696.925 348.798C700.175 348.798 703.695 349.288 703.695 351.548C703.695 353.308 701.435 354.808 697.185 355.818C693.279 356.448 689.481 357.626 685.905 359.318C681.905 360.818 678.385 365.578 678.385 378.617C678.385 442.515 680.645 477.844 681.645 486.364C683.145 496.893 685.645 499.643 697.935 503.153C702.445 504.403 704.705 506.153 704.705 507.913C704.705 510.163 701.205 511.423 697.435 511.423C694.675 511.423 674.385 510.163 665.115 510.163C660.605 510.163 651.115 510.923 645.315 510.923C642.065 510.923 638.315 509.923 638.315 507.413C638.315 505.163 641.565 503.663 645.085 502.653C655.355 499.894 655.605 493.654 656.365 484.354C657.365 472.834 657.115 401.667 656.605 389.137C656.605 387.137 655.355 385.637 654.105 388.137C650.105 395.137 623.525 448.265 614.265 467.815C608.266 481.104 602.745 494.384 598.985 503.663C596.215 510.923 594.476 510.923 592.986 510.923C591.496 510.923 589.726 508.663 588.726 505.923C586.278 496.94 583.18 488.147 579.456 479.614C566.176 446.785 545.376 405.697 537.106 386.617C536.356 385.117 535.606 385.117 535.346 387.367C532.348 418.94 531.093 450.653 531.586 482.364C531.836 495.363 534.086 499.154 546.876 502.903C552.136 504.413 553.386 505.663 553.386 507.903C553.386 509.903 550.626 510.903 546.616 510.903C538.616 510.903 528.616 510.143 522.056 510.143C515.786 510.143 507.526 510.903 501.506 510.903C497.746 510.903 494.736 510.403 494.736 507.393C494.736 506.143 496.736 504.643 499.996 503.643C515.286 499.134 516.996 495.114 519.296 480.084C521.546 462.545 527.056 392.877 527.566 373.338C527.683 370.023 526.686 366.765 524.734 364.084C522.781 361.403 519.987 359.454 516.796 358.548L506.026 355.798C504.266 355.298 501.766 353.538 501.766 351.528C501.726 349.288 503.476 349.048 508.986 349.048Z" fill="#00428B"/>
<path d="M811.374 349.548C819.071 349.689 826.768 349.355 834.424 348.548C835.174 348.298 836.424 350.308 836.674 351.548C836.674 361.548 837.174 370.858 837.174 375.858C837.174 379.357 835.414 382.627 833.174 382.627C831.174 382.627 829.664 379.117 829.174 376.368C825.924 363.078 820.174 360.368 812.644 359.068C800.823 357.893 788.939 357.475 777.064 357.818C776.564 357.818 773.804 359.068 773.554 365.088C773.054 371.088 772.304 415.956 772.554 421.716C772.804 422.716 773.304 423.976 774.804 423.976H791.594C814.144 423.976 814.644 423.216 819.164 411.686C820.664 407.926 822.414 406.186 823.924 406.186C825.924 406.186 826.434 409.946 826.184 412.186C825.684 418.956 825.424 423.966 825.424 429.976C825.424 436.745 825.924 440.255 826.184 445.765C826.184 450.275 825.184 452.765 823.184 452.765C821.424 452.765 819.684 450.015 818.924 447.505C815.414 435.985 813.924 434.985 799.924 434.225C791.924 433.725 781.924 433.726 774.864 433.726C773.864 433.726 772.614 435.486 772.614 435.986C771.614 441.755 771.854 464.294 771.854 474.564C771.744 481.467 772.415 488.361 773.854 495.114C774.258 496.361 774.909 497.515 775.768 498.506C776.627 499.498 777.676 500.306 778.854 500.883C786.231 502.07 793.692 502.658 801.164 502.643C809.148 502.78 817.125 502.11 824.974 500.643C829.53 499.27 833.719 496.891 837.232 493.682C840.746 490.474 843.494 486.517 845.274 482.104C848.274 476.334 850.034 474.834 851.534 474.834C853.534 474.834 854.034 479.094 853.534 481.834C851.219 491.149 848.21 500.277 844.534 509.143C843.265 510.526 841.604 511.489 839.774 511.903C837.014 511.903 794.164 510.143 757.834 510.143C744.055 510.143 739.045 511.403 729.765 511.403C725.005 511.403 721.995 510.903 721.995 508.143C721.995 506.143 724.995 504.883 728.995 503.883C741.775 501.123 746.284 498.883 747.294 485.334C748.044 475.064 749.045 447.755 749.045 416.686C749.045 386.617 749.545 380.107 749.045 372.838C748.295 362.318 745.795 358.838 735.045 356.548C729.785 355.298 727.535 354.298 727.535 352.288C727.535 350.038 731.295 348.789 734.805 348.789C746.574 348.789 758.605 349.538 774.394 349.538L811.374 349.548Z" fill="#00428B"/>
<path d="M1014.85 371.598C1029.22 386.402 1037.46 406.098 1037.9 426.726C1037.94 441.147 1034.3 455.34 1027.33 467.965C1020.36 480.59 1010.29 491.231 998.062 498.884C979.761 508.446 959.326 513.192 938.683 512.673C928.403 512.673 905.603 511.913 889.313 510.913C884.053 510.663 879.313 510.663 875.313 510.663C869.804 510.663 867.314 508.903 867.314 506.903C867.314 504.903 869.814 503.393 873.084 503.143C889.873 501.143 891.083 496.624 891.873 476.084C892.373 464.085 892.633 455.775 892.633 441.995C892.633 427.716 892.383 398.647 891.383 378.858C890.883 362.858 890.624 359.058 875.594 356.808C872.834 356.308 869.824 354.808 869.824 353.039C869.824 351.039 872.334 349.539 876.093 349.539H884.363C896.883 349.539 925.203 347.539 946.003 347.539C971.116 346.912 995.595 355.467 1014.85 371.598V371.598ZM918.623 357.598C916.873 358.848 916.373 359.598 916.123 360.858C915.633 364.618 915.123 385.417 915.123 407.706V444.045C915.123 461.335 915.373 476.124 916.123 487.144C916.497 491.529 918.456 495.628 921.633 498.674C927.62 502.39 934.409 504.622 941.433 505.183C957.709 504.782 973.428 499.174 986.283 489.184C994.704 481.24 1001.32 471.581 1005.69 460.859C1010.05 450.137 1012.06 438.602 1011.58 427.036C1011.52 416.371 1009.21 405.84 1004.8 396.127C1000.4 386.413 994.001 377.736 986.023 370.658C970.97 360.416 953.118 355.078 934.913 355.378C929.387 354.872 923.819 355.621 918.623 357.568V357.598Z" fill="#00428B"/>
<path d="M1074.45 374.598C1073.69 362.828 1073.69 359.068 1060.16 356.598C1054.39 355.348 1052.9 353.598 1052.9 352.088C1052.9 350.088 1055.65 348.838 1059.67 348.838C1066.18 348.838 1078.96 349.589 1087.23 349.589C1099.51 349.589 1105.78 348.838 1114.54 348.838C1118.8 348.838 1121.05 349.838 1121.05 352.088C1121.05 354.088 1118.55 355.598 1114.54 356.348C1100.54 359.108 1100.26 365.348 1099.54 372.138C1098.54 380.138 1098.03 394.687 1098.03 442.795C1098.03 459.795 1098.28 474.364 1098.79 482.384C1099.79 496.154 1100.79 500.673 1116.58 503.933C1121.08 504.933 1123.35 506.433 1123.35 508.443C1123.35 510.453 1119.35 511.693 1116.35 511.693C1104.07 511.693 1086.53 510.193 1079.01 510.193C1071.49 510.193 1068.24 510.693 1059.01 510.693C1054.01 510.693 1052.24 508.933 1052.24 506.933C1052.24 505.173 1054.49 503.683 1059.76 502.673C1072.03 499.913 1073.04 495.904 1074.04 484.374C1074.8 475.374 1075.29 449.295 1075.29 427.996C1075.19 413.196 1074.96 383.147 1074.45 374.598Z" fill="#00428B"/>
<path d="M1261.03 349.059C1267.3 350.058 1275.57 353.058 1279.83 353.558C1281.08 353.808 1283.59 355.818 1283.59 361.078C1283.59 366.838 1284.59 377.357 1285.1 383.127C1285.35 388.387 1283.59 391.637 1281.34 391.637C1280.09 391.637 1278.34 388.887 1277.34 384.867C1275.56 377.927 1271.93 371.604 1266.82 366.578C1255.64 357.518 1241.61 352.719 1227.23 353.038C1187.14 353.038 1162.83 386.117 1162.83 423.956C1162.4 438.292 1165.32 452.532 1171.35 465.544C1177.12 477.156 1185.97 486.964 1196.93 493.899C1207.89 500.835 1220.53 504.634 1233.5 504.883C1242.73 504.993 1251.85 502.844 1260.06 498.624C1269.94 493.045 1277.96 484.676 1283.11 474.564C1286.11 469.054 1287.37 467.794 1288.62 467.794C1291.38 467.794 1291.38 473.314 1290.87 476.074C1288.82 484.727 1285.62 493.067 1281.36 500.873C1279.28 503.747 1276.54 506.071 1273.36 507.643C1258.68 512.223 1243.39 514.583 1228.01 514.643C1214.72 514.92 1201.51 512.485 1189.18 507.487C1176.86 502.489 1165.69 495.033 1156.34 485.574C1142.41 469.751 1134.9 449.286 1135.29 428.206C1135.49 416.799 1138.07 405.559 1142.86 395.204C1147.65 384.85 1154.55 375.608 1163.11 368.068C1182.21 352.623 1206.22 344.531 1230.77 345.259C1240.96 345.551 1251.09 346.824 1261.03 349.059V349.059Z" fill="#00428B"/>
<path d="M1393.86 351.259C1396.12 358.028 1400.38 369.548 1404.86 381.827C1418.13 418.916 1436.68 467.824 1440.94 478.544C1449.21 498.843 1453.47 500.853 1464.25 503.853C1468.25 504.853 1470.51 506.103 1470.51 507.853C1470.51 509.603 1468.51 511.363 1462.25 511.363C1454.48 511.363 1440.69 510.103 1430.42 510.103C1422.15 510.103 1417.64 510.603 1411.12 510.603C1405.12 510.603 1403.35 508.843 1403.35 507.343C1403.35 506.093 1404.85 504.093 1409.61 503.343C1421.13 501.093 1420.38 496.074 1419.61 491.064C1415.87 476.933 1411.27 463.044 1405.83 449.475C1405.58 448.475 1404.33 446.715 1398.06 446.715C1381.52 446.715 1361.72 447.225 1356.71 447.715C1355.71 447.715 1354.45 449.215 1353.95 449.975C1347.95 463.415 1343.65 477.555 1341.17 492.064C1341.17 495.324 1342.67 499.583 1353.7 502.833C1357.96 504.093 1360.47 505.593 1360.47 507.603C1360.47 509.863 1356.71 510.863 1353.2 510.863C1348.94 510.863 1342.68 510.103 1333.41 510.103C1324.14 510.103 1311.36 511.363 1307.6 511.363C1302.83 511.363 1301.6 510.103 1301.6 508.593C1301.6 507.083 1303.1 504.833 1307.37 503.593C1319.9 499.593 1323.15 498.324 1330.17 482.284C1336.17 469.505 1364.25 394.577 1374.78 369.518L1377.03 363.258C1377.48 361.869 1378.06 360.529 1378.78 359.258L1385.78 348.489C1387.53 346.229 1388.78 345.228 1390.03 345.228C1391.1 345.258 1392.11 346.049 1393.86 351.259ZM1400.38 433.196C1396.38 420.916 1383.84 384.577 1381.38 380.077C1380.62 378.578 1379.88 378.577 1379.12 380.317C1374.62 392.317 1361.83 426.686 1359.82 434.196C1359.76 434.416 1359.76 434.646 1359.81 434.867C1359.87 435.089 1359.97 435.294 1360.12 435.467C1360.27 435.639 1360.45 435.773 1360.66 435.858C1360.88 435.943 1361.1 435.977 1361.33 435.956C1371.1 435.706 1391.4 435.956 1399.92 435.456C1400.13 435.496 1400.63 434.256 1400.41 433.256L1400.38 433.196Z" fill="#00428B"/>
<path d="M1497.19 349.048C1503.96 349.048 1509.96 349.538 1517.19 349.538C1526.97 349.538 1544.01 348.788 1550.02 348.788C1554.79 348.788 1556.53 349.789 1556.53 351.539C1556.53 353.288 1554.53 355.048 1550.77 355.808C1536.77 359.058 1534.98 362.068 1534.48 365.568C1532.97 377.337 1532.72 402.657 1532.72 439.745C1532.72 458.745 1533.47 482.094 1534.48 490.364C1535.19 492.478 1536.33 494.418 1537.84 496.059C1539.35 497.699 1541.19 499.002 1543.24 499.883C1550.87 500.972 1558.58 501.391 1566.29 501.133C1572.3 501.19 1578.31 500.94 1584.29 500.383C1587.83 500.088 1591.14 498.479 1593.56 495.874C1599.23 490.699 1604.2 484.802 1608.34 478.334C1611.1 474.334 1613.34 473.064 1614.61 473.064C1616.11 473.064 1616.61 475.824 1615.61 479.834C1612.6 488.88 1610.1 498.083 1608.1 507.403C1607.59 509.913 1602.84 511.663 1601.84 511.663C1598.84 511.663 1576.27 510.163 1525.15 510.163C1509.15 510.163 1496.33 511.423 1491.83 511.423C1487.33 511.423 1484.56 510.923 1484.56 508.653C1484.56 506.903 1486.56 504.653 1490.56 503.893C1504.34 501.393 1507.56 496.624 1508.85 486.604C1509.61 480.334 1510.11 443.245 1510.11 407.167C1510.11 394.167 1510.11 378.347 1509.85 370.078C1509.85 364.078 1508.36 359.308 1496.58 356.798C1491.58 355.798 1489.58 354.038 1489.58 352.288C1489.67 350.298 1491.93 349.048 1497.19 349.048Z" fill="#00428B"/>
<path d="M1809.67 349.059C1815.94 350.059 1824.21 353.058 1828.47 353.558C1829.72 353.808 1832.23 355.818 1832.23 361.078C1832.23 366.838 1833.23 377.357 1833.73 383.127C1833.98 388.387 1832.23 391.637 1829.97 391.637C1828.71 391.637 1826.97 388.887 1825.97 384.867C1824.2 377.924 1820.56 371.599 1815.45 366.578C1804.27 357.518 1790.24 352.72 1775.86 353.038C1735.77 353.038 1711.47 386.117 1711.47 423.956C1711.03 438.292 1713.95 452.531 1719.98 465.545C1725.75 477.156 1734.6 486.964 1745.55 493.899C1756.51 500.835 1769.16 504.634 1782.13 504.883C1791.36 504.994 1800.48 502.845 1808.69 498.624C1818.57 493.045 1826.59 484.677 1831.74 474.564C1834.74 469.055 1836 467.795 1837.25 467.795C1840.01 467.795 1840.01 473.314 1839.5 476.074C1837.45 484.727 1834.25 493.068 1829.99 500.873C1827.92 503.752 1825.17 506.076 1821.99 507.643C1807.3 512.223 1792.02 514.583 1776.64 514.643C1763.34 514.92 1750.13 512.485 1737.81 507.487C1725.49 502.489 1714.31 495.033 1704.97 485.574C1691.02 469.774 1683.48 449.328 1683.85 428.256C1684.05 416.849 1686.63 405.61 1691.41 395.256C1696.2 384.901 1703.1 375.658 1711.66 368.118C1730.76 352.674 1754.76 344.583 1779.32 345.309C1789.53 345.579 1799.69 346.835 1809.67 349.059V349.059Z" fill="#00428B"/>
<path d="M1941.9 349.548C1949.59 349.69 1957.29 349.356 1964.95 348.548C1965.71 348.298 1966.95 350.308 1967.21 351.548C1967.21 361.548 1967.71 370.858 1967.71 375.858C1967.71 379.357 1965.96 382.627 1963.71 382.627C1961.71 382.627 1960.2 379.117 1959.71 376.368C1956.45 363.078 1950.71 360.368 1943.17 359.068C1931.34 357.893 1919.45 357.475 1907.58 357.818C1907.08 357.818 1904.33 359.068 1904.08 365.088C1903.58 371.088 1902.83 415.956 1903.08 421.716C1903.33 422.716 1903.83 423.976 1905.33 423.976H1922.12C1944.67 423.976 1945.17 423.216 1949.69 411.686C1951.18 407.926 1952.95 406.186 1954.45 406.186C1956.45 406.186 1956.96 409.946 1956.71 412.186C1956.21 418.956 1955.95 423.966 1955.95 429.976C1955.95 436.745 1956.46 440.255 1956.71 445.765C1956.71 450.275 1955.71 452.765 1953.71 452.765C1951.95 452.765 1950.21 450.015 1949.45 447.505C1945.95 435.985 1944.45 434.985 1930.45 434.225C1922.45 433.725 1912.45 433.726 1905.39 433.726C1904.39 433.726 1903.14 435.486 1903.14 435.986C1902.14 441.755 1902.39 464.294 1902.39 474.564C1902.28 481.467 1902.95 488.361 1904.39 495.114C1904.79 496.363 1905.44 497.518 1906.3 498.509C1907.16 499.501 1908.21 500.308 1909.39 500.883C1916.76 502.07 1924.22 502.659 1931.69 502.643C1939.67 502.78 1947.64 502.11 1955.49 500.643C1960.04 499.272 1964.23 496.894 1967.75 493.685C1971.27 490.476 1974.01 486.518 1975.8 482.104C1978.8 476.334 1980.56 474.834 1982.06 474.834C1984.06 474.834 1984.56 479.094 1984.06 481.834C1981.74 491.149 1978.73 500.277 1975.06 509.143C1973.79 510.526 1972.13 511.489 1970.3 511.903C1967.54 511.903 1924.69 510.143 1888.36 510.143C1874.58 510.143 1869.56 511.403 1860.29 511.403C1855.53 511.403 1852.52 510.903 1852.52 508.143C1852.52 506.143 1855.52 504.883 1859.52 503.883C1872.3 501.123 1876.81 498.883 1877.81 485.334C1878.57 475.064 1879.57 447.755 1879.57 416.686C1879.57 386.617 1880.07 380.107 1879.57 372.838C1878.82 362.318 1876.32 358.838 1865.57 356.548C1860.31 355.298 1858.06 354.298 1858.06 352.288C1858.06 350.038 1861.83 348.789 1865.33 348.789C1877.1 348.789 1889.13 349.538 1904.92 349.538L1941.9 349.548Z" fill="#00428B"/>
<path d="M2003.99 348.798C2009.75 348.798 2023.53 349.548 2036.31 349.548C2038.43 350.048 2040.35 351.186 2041.81 352.808C2045.58 357.308 2051.81 365.088 2061.61 377.618C2073.13 392.147 2127.01 450.035 2143.05 467.615C2144.55 469.104 2145.55 466.615 2145.55 465.855C2146.8 458.085 2146.06 430.776 2146.06 397.687C2146.06 389.177 2145.3 379.907 2144.8 372.388C2144.56 367.128 2142.55 361.118 2129.02 357.388C2124.02 355.888 2122.02 354.138 2122.02 351.878C2122.02 350.128 2125.28 349.378 2128.79 349.378C2135.06 349.378 2141.79 349.628 2149.34 349.628C2158.86 349.628 2167.34 348.628 2173.91 348.628C2178.16 348.628 2179.67 349.628 2179.67 351.388C2179.67 353.148 2178.17 355.388 2173.67 356.388C2162.67 359.388 2158.67 362.158 2157.88 374.938C2157.13 383.697 2155.12 436.325 2155.12 474.654C2155.12 485.184 2156.88 504.733 2156.88 509.233C2156.88 511.733 2155.12 514.493 2153.12 514.493C2149.12 514.493 2143.84 508.983 2141.34 505.983C2137.08 500.474 2132.34 494.204 2125.56 485.934C2102 457.875 2059.4 410.016 2036.84 383.207C2035.84 381.947 2033.85 382.707 2033.85 383.697C2033.85 390.467 2032.84 397.477 2032.84 417.026C2032.84 442.075 2031.84 476.404 2032.84 485.184C2033.59 495.953 2036.34 499.963 2048.62 503.473C2053.62 504.733 2054.89 506.473 2054.89 507.983C2054.89 510.493 2051.63 511.493 2046.89 511.493C2039.63 511.493 2030.11 510.233 2021.09 510.233C2015.58 510.233 2007.56 510.743 2003.3 510.743C1999.8 510.743 1996.79 510.233 1996.79 507.983C1996.79 505.733 1999.29 504.223 2001.79 503.473C2013.56 499.713 2018.57 498.713 2019.57 479.914C2020.82 458.115 2024.33 400.487 2024.33 380.197C2024.33 370.928 2023.09 368.418 2022.34 367.668C2019.95 364.375 2016.88 361.638 2013.33 359.648C2009.78 357.657 2005.85 356.46 2001.8 356.138C1999.03 355.388 1996.28 353.888 1996.28 352.138C1996.21 350.048 1998.72 348.798 2003.99 348.798Z" fill="#00428B"/>
<path d="M2330.34 349.049C2336.47 349.293 2342.55 347.813 2347.88 344.779C2349.65 343.779 2350.65 343.029 2351.65 343.029C2352.9 343.029 2354.15 345.279 2352.9 348.799C2350.14 358.286 2348.29 368.017 2347.39 377.857C2347.14 380.117 2345.14 382.857 2343.13 382.857C2341.37 382.857 2340.13 381.097 2339.37 374.858C2337.61 361.568 2334.37 360.318 2319.58 359.568C2315.07 359.318 2289 359.318 2285.25 360.068C2284.25 360.318 2283.25 362.578 2283.25 363.328C2283.25 375.098 2283 401.157 2283 422.716C2283 451.775 2283.25 476.094 2284.25 486.104C2285.25 496.624 2286.5 500.393 2302.55 503.653C2305.81 504.403 2309.06 506.653 2309.06 508.153C2309.06 510.913 2304.55 511.413 2302.06 511.413C2300.06 511.413 2282.06 510.153 2271.99 510.153C2260.22 510.153 2246.18 511.913 2242.68 511.913C2237.68 511.913 2235.16 510.423 2235.16 508.913C2235.16 506.913 2237.66 505.153 2240.16 504.413C2257.16 500.413 2257.96 496.414 2258.71 477.844C2259.22 462.845 2260.46 412.196 2260.46 392.847V363.028C2260.47 362.319 2260.26 361.625 2259.85 361.042C2259.45 360.458 2258.88 360.013 2258.21 359.768C2253.45 359.018 2232.15 358.518 2227.9 358.518C2224.7 358.163 2221.45 358.493 2218.38 359.488C2215.31 360.483 2212.49 362.119 2210.1 364.288C2207 368.336 2204.32 372.692 2202.1 377.288C2199.6 382.557 2198.1 382.807 2197.1 382.807C2195.34 382.807 2194.1 379.808 2194.1 377.288C2196.5 366.218 2198.17 355.005 2199.1 343.718C2199.1 342.219 2201.1 339.459 2202.87 339.459C2204.12 339.459 2204.63 341.219 2206.87 343.459C2209.37 345.814 2212.5 347.382 2215.87 347.969C2222.14 348.729 2244.94 349.468 2273.76 349.468C2286.99 349.548 2320.56 349.289 2330.34 349.049Z" fill="#00428B"/>
<path d="M2454.41 349.548C2462.11 349.69 2469.81 349.356 2477.46 348.548C2478.21 348.298 2479.46 350.308 2479.72 351.548C2479.72 361.548 2480.22 370.858 2480.22 375.858C2480.22 379.357 2478.46 382.627 2476.22 382.627C2474.22 382.627 2472.72 379.117 2472.22 376.368C2468.97 363.078 2463.22 360.368 2455.68 359.068C2443.86 357.892 2431.98 357.475 2420.1 357.818C2419.6 357.818 2416.84 359.068 2416.6 365.088C2416.1 371.088 2415.35 415.956 2415.6 421.716C2415.84 422.716 2416.35 423.976 2417.85 423.976H2434.64C2457.19 423.976 2457.64 423.216 2462.2 411.686C2463.7 407.926 2465.46 406.186 2466.97 406.186C2468.97 406.186 2469.47 409.946 2469.22 412.186C2468.73 418.956 2468.47 423.966 2468.47 429.976C2468.47 436.745 2468.97 440.255 2469.22 445.765C2469.22 450.275 2468.22 452.765 2466.22 452.765C2464.46 452.765 2462.71 450.015 2461.96 447.505C2458.45 435.985 2456.96 434.985 2442.96 434.225C2434.96 433.725 2424.96 433.726 2417.9 433.726C2416.9 433.726 2415.65 435.486 2415.65 435.986C2414.65 441.755 2414.89 464.294 2414.89 474.564C2414.79 481.467 2415.46 488.36 2416.89 495.114C2417.3 496.361 2417.95 497.515 2418.81 498.506C2419.67 499.497 2420.71 500.306 2421.89 500.883C2429.26 502.069 2436.72 502.657 2444.18 502.643C2452.17 502.78 2460.14 502.11 2467.99 500.643C2472.55 499.272 2476.74 496.894 2480.25 493.685C2483.77 490.476 2486.51 486.518 2488.29 482.104C2491.29 476.334 2493.06 474.834 2494.55 474.834C2496.55 474.834 2497.06 479.094 2496.55 481.834C2494.24 491.149 2491.23 500.277 2487.55 509.143C2486.28 510.522 2484.62 511.485 2482.79 511.903C2480.03 511.903 2437.17 510.143 2400.79 510.143C2387.01 510.143 2382 511.403 2372.73 511.403C2367.97 511.403 2364.97 510.903 2364.97 508.143C2364.97 506.143 2367.97 504.883 2371.97 503.883C2384.74 501.123 2389.26 498.883 2390.26 485.334C2391.02 475.064 2392.02 447.755 2392.02 416.686C2392.02 386.617 2392.51 380.107 2392.02 372.838C2391.26 362.318 2388.76 358.838 2378.02 356.548C2372.76 355.298 2370.51 354.298 2370.51 352.288C2370.51 350.038 2374.27 348.789 2377.77 348.789C2389.54 348.789 2401.58 349.538 2417.36 349.538L2454.41 349.548Z" fill="#00428B"/>
<path d="M2611.2 424.206C2609.96 425.206 2604.94 427.466 2602.94 428.716C2602.43 429.182 2602.07 429.783 2601.89 430.45C2601.71 431.116 2601.73 431.819 2601.94 432.476C2613.03 452.738 2625.95 471.944 2640.53 489.854C2646.54 497.432 2655.08 502.593 2664.59 504.393C2666.84 504.893 2668.84 506.893 2668.84 507.893C2668.84 509.143 2666.59 510.403 2665.08 510.893C2660.39 512.393 2655.47 513.069 2650.55 512.893C2644.03 512.81 2637.6 511.31 2631.72 508.497C2625.83 505.684 2620.63 501.626 2616.47 496.604C2607.95 485.084 2595.16 465.535 2585.15 449.245C2582.42 444.911 2579.23 440.887 2575.63 437.246C2570.33 434.991 2564.6 433.88 2558.84 433.986C2557.34 433.986 2556.08 435.986 2555.84 436.746C2555.59 441.256 2556.08 473.334 2556.84 487.114C2557.34 497.894 2559.84 501.114 2571.84 504.113C2576.1 505.113 2577.84 507.113 2577.84 508.113C2577.84 510.873 2573.08 511.613 2571.33 511.613C2561.33 511.613 2555.04 510.113 2539.01 510.113C2533.74 510.113 2520.71 511.113 2517.96 511.113C2514.2 511.113 2511.19 509.863 2511.19 507.343C2511.19 505.583 2513.44 504.843 2516.7 503.593C2527.98 500.084 2531.99 498.324 2532.7 489.054C2533.45 479.054 2534.2 453.725 2534.2 437.186C2534.2 401.097 2533.95 378.548 2532.7 369.278C2531.95 361.008 2529.7 359.508 2518.17 356.748C2514.41 355.988 2512.17 354.488 2512.17 352.489C2512.17 350.729 2513.93 349.488 2518.94 349.488H2533.94C2543.21 349.488 2561.51 348.239 2575.04 348.239C2589.73 346.932 2604.43 350.736 2616.64 359.008C2620.98 362.897 2624.47 367.645 2626.88 372.952C2629.29 378.259 2630.57 384.009 2630.64 389.837C2630.51 396.729 2628.66 403.479 2625.26 409.479C2621.87 415.478 2617.04 420.539 2611.2 424.206ZM2595.67 365.568C2589 359.698 2580.5 356.333 2571.62 356.048C2567.72 356.126 2563.84 356.717 2560.09 357.808C2558.84 358.308 2557.09 362.318 2557.09 363.068C2556.34 372.068 2555.6 419.196 2556.34 424.206C2556.61 425.067 2557.1 425.843 2557.76 426.459C2558.42 427.074 2559.22 427.507 2560.1 427.716C2570.62 427.836 2581.05 425.698 2590.67 421.446C2595.61 418.025 2599.65 413.455 2602.44 408.128C2605.23 402.802 2606.68 396.879 2606.67 390.867C2606.08 381.409 2602.19 372.459 2595.67 365.578V365.568Z" fill="#00428B"/>
<path d="M586.516 195.494C590.287 195.629 594.013 194.644 597.225 192.664C598.325 192.034 598.795 191.724 599.425 191.724C600.055 191.724 600.836 193.144 600.046 195.344C598.276 201.239 597.117 207.301 596.585 213.433C596.425 214.853 595.165 216.433 593.905 216.433C592.805 216.433 592.175 215.323 591.705 211.433C590.765 203.253 588.706 202.433 578.966 202.003C576.296 201.833 558.826 201.834 556.966 202.314C556.176 202.464 555.546 204.043 555.546 204.313V242.852C555.546 261.101 555.546 276.061 556.176 281.851C556.966 288.94 557.746 290.85 567.506 293.02C569.506 293.5 571.756 294.76 571.756 295.85C571.756 297.59 568.926 297.74 567.346 297.74C566.086 297.74 556.346 296.95 549.406 296.95C541.536 296.95 533.506 298.05 531.466 298.05C528.316 298.05 526.736 297.11 526.736 296.17C526.736 295.06 528.306 293.8 529.736 293.49C540.736 290.98 541.066 288.301 541.536 276.491C541.846 267.211 542.646 235.112 542.646 223.003V204.283C542.646 203.023 541.846 202.283 541.386 202.283C538.246 201.803 524.386 201.494 521.876 201.494C519.787 201.179 517.654 201.341 515.636 201.968C513.619 202.595 511.769 203.67 510.226 205.113C508.106 207.568 506.358 210.321 505.036 213.283C503.616 216.593 502.676 216.433 502.036 216.433C501.096 216.433 500.466 214.433 500.466 212.813C501.929 205.911 502.931 198.919 503.466 191.884C503.581 191.285 503.864 190.731 504.282 190.287C504.7 189.842 505.236 189.526 505.826 189.374C506.616 189.374 506.616 190.474 508.346 191.884C509.783 193.404 511.65 194.45 513.696 194.884C517.786 195.364 530.376 195.824 550.516 195.824C558.646 195.814 580.066 195.654 586.516 195.494Z" fill="#818386"/>
<path d="M604.795 225.543C608.725 225.543 613.135 226.023 618.325 226.023C623.325 226.023 628.245 225.543 632.485 225.543C634.685 225.543 635.955 226.172 635.955 227.432C635.955 228.532 635.015 229.162 632.485 229.942C627.295 231.512 625.085 232.772 624.775 235.292C624.259 242.153 624.155 249.039 624.465 255.912C624.465 256.382 625.085 257.642 625.875 257.642H642.085C648.855 257.642 658.765 257.791 661.085 257.791C662.025 257.791 662.815 257.482 662.965 253.542C663.125 248.672 662.805 240.962 662.655 236.542C662.495 232.612 661.545 231.192 657.465 229.932C654.465 229.142 653.525 228.203 653.525 226.783C653.525 226.303 653.845 225.523 657.465 225.523C661.395 225.523 662.965 226.003 669.255 226.003C673.665 226.003 679.805 225.683 684.045 225.373C685.465 225.213 686.565 225.533 686.565 226.622C686.565 227.712 685.455 228.992 682.945 229.772C677.755 231.502 676.025 232.282 675.705 236.542C675.545 240.952 675.075 258.731 675.075 267.221V277.131C675.075 289.41 676.645 290.98 683.255 293.02C686.715 294.02 687.185 295.38 687.185 296.17C687.185 296.96 686.085 297.59 684.675 297.59C680.425 297.59 678.675 296.96 669.095 296.96C664.695 296.96 660.445 297.43 656.035 297.43C653.035 297.43 651.785 297.12 651.785 295.43C651.785 294.49 653.045 293.55 655.565 292.92C660.565 291.19 662.335 290.41 662.645 287.26C663.115 283.801 663.115 268.691 662.955 266.951C662.795 265.381 662.795 265.221 661.385 264.951C649.705 264.136 637.988 264.029 626.295 264.631C625.863 264.682 625.456 264.858 625.122 265.137C624.788 265.415 624.542 265.785 624.415 266.201C623.92 272.49 623.973 278.811 624.575 285.091C625.045 290.75 626.305 291.22 631.185 293.09C633.065 293.72 634.325 294.51 634.325 295.29C634.325 296.55 633.535 297.49 630.705 297.49C623.785 297.49 620.315 297.02 615.435 297.02C609.775 297.02 607.575 297.49 603.165 297.49C600.335 297.49 599.075 296.55 599.075 295.49C599.075 294.43 600.326 293.76 602.376 293.13C608.666 291.4 610.865 290.62 611.495 286.53C611.975 282.281 612.125 273.311 612.125 265.761C612.125 250.182 612.125 241.522 611.645 237.282C611.335 233.972 610.395 231.612 604.565 230.042C601.885 229.253 600.785 228.473 600.785 227.213C600.865 226.493 602.285 225.543 604.795 225.543Z" fill="#818386"/>
<path d="M738.315 258.121C745.085 258.121 745.864 257.331 748.064 251.982C748.854 250.562 749.944 248.832 751.064 248.832C752.184 248.832 752.484 250.402 752.484 252.452C752.484 253.552 752.004 255.601 752.004 259.691C752.004 264.251 752.484 264.691 752.484 268.031C752.484 271.371 751.484 272.441 750.284 272.441C749.284 272.441 748.544 271.181 747.764 269.291C746.344 266.141 745.765 264.721 744.305 264.101C739.774 263.402 735.181 263.19 730.605 263.471C730.135 263.471 729.355 264.571 729.035 265.671C728.434 273.164 728.541 280.697 729.355 288.17C730.042 289.199 730.955 290.058 732.025 290.68C735.043 291.816 738.24 292.402 741.465 292.41C744.846 292.489 748.226 292.174 751.534 291.47C756.414 290.06 758.304 289.27 762.864 282.191C764.124 280.191 765.074 279.041 766.014 279.041C767.584 279.041 767.584 281.711 767.584 282.501C766.814 287.291 765.384 291.952 763.334 296.35C762.704 297.45 761.764 297.77 758.334 297.77C743.554 297.77 743.705 296.98 722.145 296.98C717.145 296.98 711.755 297.77 707.985 297.77C705.985 297.77 703.265 297.29 703.265 295.77C703.265 294.35 705.145 293.57 706.885 293.09C715.685 291.09 716.005 289.16 716.475 283.65C716.795 279.401 716.955 269.171 716.955 258.951C716.955 251.712 716.955 243.682 716.645 236.952C716.485 233.652 715.534 231.452 708.925 229.872C707.045 229.392 705.145 228.612 705.145 227.192C705.145 226.092 706.885 225.462 709.395 225.462C712.225 225.462 717.264 226.093 723.234 226.093C734.772 226.825 746.351 226.614 757.854 225.462C758.288 225.425 758.72 225.549 759.067 225.811C759.414 226.074 759.652 226.455 759.734 226.882C759.734 231.442 760.844 238.052 760.844 240.262C760.844 242.142 759.734 243.082 759.274 243.082C758.484 243.082 757.274 242.462 755.964 239.942C753.134 234.122 751.244 232.082 746.364 231.452C741.194 230.905 735.993 230.694 730.794 230.822C730.164 230.822 729.535 232.242 729.375 232.822C728.855 240.521 728.748 248.242 729.054 255.951C729.054 256.741 729.685 257.521 730.945 257.831C733.394 258.065 735.854 258.162 738.315 258.121V258.121Z" fill="#818386"/>
<path d="M821.994 195.344C828.604 195.344 832.384 195.814 838.204 195.814C844.024 195.814 850.004 195.503 853.464 195.503C856.464 195.503 858.344 195.974 858.344 197.233C858.344 198.493 856.614 199.594 853.624 200.234C847.954 201.344 844.964 202.913 844.024 209.233C843.234 214.423 843.394 230.792 843.394 253.132C842.729 258.476 843.168 263.901 844.683 269.069C846.199 274.238 848.758 279.041 852.204 283.181C858.504 288.739 866.611 291.817 875.013 291.84C881.72 292.206 888.342 290.204 893.722 286.182C899.101 282.161 902.896 276.377 904.443 269.841C906.988 256.837 908.148 243.601 907.903 230.352C907.903 220.133 907.433 211.953 907.273 210.053C906.803 204.053 905.703 201.873 896.883 199.823C895.323 199.513 893.583 198.094 893.583 197.004C893.583 195.914 894.523 195.434 897.203 195.434C901.133 195.434 905.543 195.904 910.583 195.904C917.033 195.904 920.343 195.594 924.743 195.594C927.253 195.594 928.673 196.064 928.673 197.323C928.673 198.263 927.413 199.323 925.213 200.153C918.443 202.043 915.303 204.713 914.993 214.623C914.833 221.393 913.883 238.862 913.573 247.042C912.783 274.411 905.233 288.26 893.913 294.55C886.906 298.11 879.108 299.83 871.253 299.55C860.98 299.792 850.932 296.519 842.774 290.271C833.964 281.921 830.184 270.441 830.184 244.012C830.184 221.353 829.714 208.773 829.564 206.723C829.244 203.723 827.044 201.223 821.064 199.953C819.184 199.473 817.444 198.693 817.444 197.273C817.434 195.963 819.484 195.344 821.994 195.344Z" fill="#818386"/>
<path d="M938.193 225.232C941.813 225.232 952.353 226.023 955.973 226.023C957.223 226.023 957.973 226.813 959.123 228.222C962.123 232.002 965.573 235.452 969.663 240.222C973.913 245.222 994.363 267.441 1002.39 275.941C1002.5 276.018 1002.63 276.062 1002.77 276.068C1002.9 276.074 1003.03 276.041 1003.15 275.974C1003.26 275.906 1003.36 275.807 1003.42 275.688C1003.48 275.569 1003.51 275.434 1003.49 275.301C1003.65 266.651 1004.43 246.032 1003.65 238.482C1003.18 233.922 1001.45 231.402 993.893 229.682C992.643 229.202 990.593 228.573 990.593 227.163C990.593 225.433 993.893 225.433 994.373 225.433C999.723 225.433 1003.81 226.063 1007.75 226.063C1010.9 226.063 1014.83 225.433 1018.75 225.433C1020.32 225.433 1022.05 226.063 1022.05 227.163C1022.05 228.263 1021.26 228.732 1018.75 229.682C1012.61 231.412 1011.35 233.452 1010.75 239.592C1010.12 245.592 1009.33 265.711 1009.33 274.831C1009.33 283.641 1009.81 294.03 1009.81 295.13C1009.81 297.65 1009.18 299.38 1007.81 299.38C1006.06 299.018 1004.43 298.205 1003.09 297.02C1000.41 293.87 994.283 285.531 985.623 276.251C978.393 268.381 967.373 254.852 958.083 245.092C957.973 244.951 957.82 244.85 957.646 244.806C957.473 244.763 957.29 244.778 957.126 244.851C956.963 244.923 956.828 245.049 956.744 245.206C956.66 245.364 956.632 245.546 956.663 245.722C956.503 251.072 955.723 273.891 956.503 284.271C956.983 289.271 960.603 291.501 965.313 293.07C967.043 293.7 968.143 294.33 968.143 295.43C968.143 297.01 965.943 297.43 964.523 297.43C964.043 297.43 959.173 296.96 954.773 296.96C950.843 296.96 944.233 297.9 940.773 297.9C938.773 297.9 936.993 297.42 936.993 295.9C936.993 295.11 937.623 294.48 940.613 293.7C948.163 291.82 949.103 288.981 949.613 285.051C949.923 281.111 950.873 266.161 950.873 252.482C950.873 245.082 950.703 240.682 950.553 239.422C949.434 236.412 947.468 233.79 944.893 231.872C942.989 230.503 940.771 229.636 938.443 229.353C935.613 228.883 934.353 228.092 934.353 226.843C934.263 226.173 936.143 225.232 938.193 225.232Z" fill="#818386"/>
<path d="M1039.08 225.553C1040.33 225.713 1051.35 226.033 1055.91 226.033C1061.02 225.997 1066.11 225.683 1071.18 225.093C1072.28 224.933 1074.64 226.033 1074.64 226.823C1074.64 227.923 1072.64 229.333 1070.71 229.652C1063.16 231.852 1062.53 233.113 1062.22 238.772C1061.9 242.232 1061.9 250.252 1061.9 260.482C1061.9 269.481 1061.9 277.481 1062.05 280.781C1062.37 289.781 1063.47 291.171 1070.86 292.89C1072.75 293.37 1074.48 294.62 1074.48 296.04C1074.48 297.15 1072.91 297.46 1071.33 297.46C1066.92 297.46 1062.67 296.99 1055.91 296.99C1051.35 296.99 1043.01 297.78 1040.02 297.78C1037.66 297.78 1036.24 297.15 1036.24 296.04C1036.24 294.62 1038.6 293.531 1040.02 293.041C1047.57 291.161 1049.02 289.431 1049.3 283.451C1049.47 280.621 1049.62 275.731 1049.62 270.541C1049.62 254.022 1049.62 243.002 1049.46 240.492C1048.98 233.723 1046.31 231.682 1040.17 229.952C1037.34 229.013 1036.87 227.953 1036.87 226.953C1036.88 226.333 1037.35 225.393 1039.08 225.553Z" fill="#818386"/>
<path d="M1092.58 225.232C1095.58 225.232 1101.86 226.023 1106.9 226.023C1111.62 226.023 1116.18 225.543 1119.8 225.543C1122.94 225.543 1123.89 226.482 1123.89 227.432C1123.89 228.382 1122.79 229.162 1120.28 229.942C1114.14 231.202 1114.46 233.872 1115.87 237.492C1117.87 242.492 1120.28 248.982 1123.58 257.001C1126.26 264.057 1129.36 270.943 1132.87 277.621C1133.49 278.241 1134.12 279.041 1134.75 277.301C1136.64 272.901 1147.03 247.402 1149.54 240.172C1151.9 233.082 1151.54 231.362 1145.29 229.782C1143.87 229.302 1141.99 228.212 1141.99 227.262C1141.99 226.792 1143.25 225.533 1145.77 225.533C1150.02 225.533 1152.06 226.012 1156 226.012C1161.5 226.012 1166.39 225.223 1168.9 225.223C1170.63 225.223 1172.36 225.692 1172.36 226.792C1172.36 228.362 1170.48 228.993 1168.27 229.623C1163.27 230.873 1160.27 233.392 1156.27 240.782C1152.65 247.232 1148.56 258.102 1143.53 269.271C1135.98 285.951 1133.45 293.97 1132.68 295.86C1131.91 297.75 1129.85 300.11 1128.58 300.11C1127.47 300.11 1126.58 298.37 1126.22 296.97C1124.63 291.347 1122.69 285.829 1120.4 280.451C1116.78 272.101 1105.76 245.832 1101.05 236.552C1100.15 234.676 1098.81 233.048 1097.13 231.812C1095.46 230.575 1093.51 229.769 1091.45 229.462C1090.03 228.992 1087.99 228.212 1087.99 227.103C1088.02 225.543 1090.38 225.232 1092.58 225.232Z" fill="#818386"/>
<path d="M1219.61 258.121C1226.38 258.121 1227.16 257.331 1229.36 251.982C1230.15 250.562 1231.25 248.832 1232.36 248.832C1233.62 248.832 1233.78 250.402 1233.78 252.452C1233.78 253.552 1233.3 255.601 1233.3 259.691C1233.3 264.251 1233.78 264.691 1233.78 268.031C1233.78 271.371 1232.84 272.441 1231.58 272.441C1230.64 272.441 1229.85 271.181 1229.07 269.291C1227.65 266.141 1227.07 264.721 1225.61 264.101C1221.08 263.402 1216.49 263.191 1211.92 263.471C1211.44 263.471 1210.66 264.571 1210.35 265.671C1209.75 273.164 1209.86 280.697 1210.66 288.17C1211.35 289.2 1212.27 290.058 1213.34 290.68C1216.36 291.815 1219.55 292.401 1222.77 292.41C1226.16 292.489 1229.54 292.173 1232.85 291.47C1237.72 290.06 1239.62 289.27 1244.18 282.191C1245.44 280.191 1246.38 279.041 1247.33 279.041C1248.9 279.041 1248.9 281.711 1248.9 282.501C1248.13 287.29 1246.7 291.95 1244.66 296.35C1244.03 297.45 1243.09 297.77 1239.66 297.77C1224.87 297.77 1225.02 296.98 1203.46 296.98C1198.46 296.98 1193.07 297.77 1189.3 297.77C1187.3 297.77 1184.58 297.29 1184.58 295.77C1184.58 294.35 1186.47 293.57 1188.2 293.09C1197.01 291.09 1197.32 289.16 1197.8 283.65C1198.11 279.401 1198.27 269.171 1198.27 258.951C1198.27 251.712 1198.27 243.682 1197.95 236.952C1197.79 233.652 1196.84 231.452 1190.24 229.872C1188.35 229.392 1186.46 228.612 1186.46 227.192C1186.46 226.092 1188.19 225.462 1190.7 225.462C1193.53 225.462 1198.57 226.093 1204.55 226.093C1216.09 226.825 1227.66 226.614 1239.16 225.462C1239.59 225.427 1240.03 225.552 1240.38 225.813C1240.72 226.075 1240.96 226.455 1241.05 226.882C1241.05 231.442 1242.15 238.052 1242.15 240.262C1242.15 242.142 1241.05 243.082 1240.58 243.082C1239.79 243.082 1238.58 242.462 1237.28 239.942C1234.45 234.122 1232.55 232.082 1227.68 231.452C1222.51 230.905 1217.3 230.694 1212.1 230.822C1211.47 230.822 1210.84 232.242 1210.68 232.822C1210.16 240.521 1210.06 248.242 1210.37 255.952C1210.37 256.741 1211 257.521 1212.25 257.831C1214.7 258.065 1217.15 258.161 1219.61 258.121V258.121Z" fill="#818386"/>
<path d="M1268.35 225.703C1272.14 225.703 1275.44 225.863 1277.16 225.863C1280.94 225.863 1287.08 225.242 1300.16 225.242C1307.47 224.496 1314.79 226.575 1320.61 231.052C1322.41 232.584 1323.84 234.49 1324.82 236.638C1325.8 238.785 1326.3 241.122 1326.28 243.482C1326.22 247.448 1324.87 251.288 1322.43 254.413C1319.98 257.539 1316.59 259.779 1312.75 260.791C1312.44 260.951 1311.96 261.581 1312.12 261.731C1316.56 270.096 1321.89 277.958 1328.01 285.181C1331.42 289.279 1335.96 292.286 1341.07 293.83C1343.43 294.31 1343.89 294.62 1343.89 296.03C1343.89 297.92 1340.28 298.86 1334.46 298.86C1330.76 298.807 1327.11 297.9 1323.82 296.209C1320.52 294.518 1317.66 292.088 1315.46 289.11C1312.63 285.96 1303.81 271.801 1301.3 268.031C1300.08 266.7 1298.6 265.635 1296.94 264.903C1295.29 264.172 1293.51 263.79 1291.7 263.781C1290.75 263.811 1289.85 264.209 1289.18 264.891C1288.83 265.218 1288.6 265.662 1288.55 266.141C1288.55 269.451 1288.71 277.791 1289.03 286.28C1289.19 291.01 1291.86 291.63 1295.95 292.89C1297.21 293.21 1299.1 294 1299.1 295.25C1299.1 297.14 1296.42 297.45 1294.85 297.45C1289.85 297.45 1286.51 296.98 1282.57 296.98C1277.7 296.98 1272.81 298.08 1267.94 298.08C1265.26 298.08 1263.69 297.29 1263.69 296.2C1263.69 295.11 1264.95 294 1267.63 293.37C1274.71 291.63 1275.8 290.22 1276.12 283.29C1276.28 280.151 1276.91 266.461 1276.91 251.672C1276.91 244.902 1277.07 240.972 1276.75 237.202C1276.43 233.892 1276.27 231.382 1268.4 230.112C1266.04 229.642 1264.47 228.692 1264.47 227.602C1264.47 226.512 1266.31 225.703 1268.35 225.703ZM1290.54 230.582C1290.06 230.803 1289.66 231.158 1289.38 231.604C1289.1 232.05 1288.96 232.567 1288.97 233.092C1288.97 234.662 1288.49 256.701 1288.49 258.091C1288.48 258.309 1288.5 258.527 1288.58 258.733C1288.65 258.94 1288.76 259.129 1288.91 259.291C1289.05 259.452 1289.23 259.583 1289.43 259.674C1289.63 259.765 1289.84 259.815 1290.06 259.821C1295.85 260.05 1301.62 259.139 1307.06 257.141C1309.03 255.777 1310.65 253.971 1311.8 251.869C1312.95 249.767 1313.59 247.425 1313.67 245.032C1313.67 238.422 1308.67 229.772 1294.95 229.772C1293.45 229.77 1291.96 230.044 1290.56 230.582H1290.54Z" fill="#818386"/>
<path d="M1402.73 226.023C1403.84 226.183 1404.3 228.023 1404.3 229.802C1404.43 233.209 1404.37 236.621 1404.14 240.022C1403.67 243.022 1402.41 243.482 1401.95 243.482C1400.53 243.482 1399.95 241.602 1399.43 239.702C1398.62 236.275 1396.75 233.192 1394.08 230.893C1391.37 228.827 1388.05 227.72 1384.64 227.743C1382.96 227.637 1381.27 227.874 1379.68 228.441C1378.09 229.008 1376.63 229.892 1375.4 231.04C1374.16 232.188 1373.17 233.575 1372.49 235.117C1371.8 236.66 1371.44 238.325 1371.42 240.012C1371.8 242.785 1372.9 245.41 1374.61 247.62C1376.33 249.831 1378.6 251.549 1381.19 252.602C1386.19 255.432 1390.47 257.482 1395.03 260.152C1398.54 261.806 1401.52 264.404 1403.64 267.655C1405.76 270.906 1406.93 274.682 1407.03 278.561C1406.88 281.796 1405.95 284.947 1404.3 287.736C1402.66 290.526 1400.35 292.869 1397.59 294.56C1392.29 297.677 1386.28 299.359 1380.13 299.44C1373.18 299.858 1366.27 298.156 1360.31 294.56C1359.8 294.163 1359.39 293.664 1359.09 293.096C1358.79 292.527 1358.61 291.902 1358.57 291.26C1358.41 289.38 1357.15 281.821 1357.15 279.461C1357.15 276.461 1358.26 275.211 1359.35 275.211C1360.77 275.211 1361.24 276.951 1361.87 278.671C1362.88 281.226 1364.09 283.699 1365.48 286.07C1367.3 288.759 1369.73 290.978 1372.58 292.542C1375.43 294.107 1378.6 294.973 1381.85 295.07C1383.48 295.204 1385.12 295.005 1386.67 294.486C1388.22 293.966 1389.65 293.137 1390.87 292.049C1392.1 290.96 1393.08 289.635 1393.78 288.154C1394.47 286.672 1394.86 285.066 1394.91 283.431C1394.91 277.291 1391.6 273.991 1385.79 270.371C1381.06 267.541 1376.79 265.371 1373.36 263.131C1369.76 261.29 1366.68 258.562 1364.43 255.205C1362.17 251.848 1360.81 247.972 1360.46 243.942C1360.46 232.142 1370.22 223.482 1385.95 223.482C1391.62 223.742 1397.24 224.594 1402.73 226.023V226.023Z" fill="#818386"/>
<path d="M1425.27 225.553C1426.53 225.713 1437.55 226.033 1442.11 226.033C1447.21 225.997 1452.31 225.683 1457.38 225.093C1458.48 224.933 1460.84 226.033 1460.84 226.823C1460.84 227.923 1458.84 229.333 1456.91 229.652C1449.36 231.852 1448.73 233.113 1448.41 238.772C1448.1 242.232 1448.1 250.252 1448.1 260.482C1448.1 269.481 1448.1 277.481 1448.26 280.781C1448.58 289.781 1449.68 291.171 1457.07 292.89C1458.96 293.37 1460.69 294.62 1460.69 296.04C1460.69 297.15 1459.12 297.46 1457.55 297.46C1453.14 297.46 1448.89 296.99 1442.13 296.99C1437.57 296.99 1429.23 297.78 1426.24 297.78C1423.88 297.78 1422.46 297.15 1422.46 296.04C1422.46 294.62 1424.82 293.531 1426.24 293.041C1433.79 291.161 1435.24 289.431 1435.53 283.451C1435.69 280.621 1435.84 275.731 1435.84 270.541C1435.84 254.022 1435.84 243.002 1435.68 240.492C1435.2 233.723 1432.53 231.682 1426.39 229.952C1423.56 229.013 1423.08 227.953 1423.08 226.953C1423.06 226.333 1423.54 225.393 1425.27 225.553Z" fill="#818386"/>
<path d="M1524.79 225.992C1542.57 225.992 1543.99 224.882 1547.92 222.373C1548.55 222.063 1550.28 222.843 1550.28 224.733C1550.18 229.824 1550.34 234.917 1550.76 239.992C1550.76 242.192 1549.34 243.452 1548.56 243.452C1547.46 243.452 1546.56 242.352 1546.05 240.622C1543.21 232.442 1540.7 231.972 1537.39 231.822C1531.67 231.686 1525.94 231.842 1520.24 232.292C1519.61 232.292 1519.14 233.712 1518.98 234.492C1518.67 236.852 1518.67 254.312 1518.67 270.361C1518.4 275.892 1518.77 281.435 1519.77 286.881C1520.77 290.501 1522.13 291.131 1528.58 292.881C1531.41 293.51 1532.52 294.45 1532.52 295.56C1532.52 296.67 1530.31 297.56 1528.26 297.56C1521.65 297.56 1520.09 296.93 1512.54 296.93C1508.44 296.93 1499.95 297.72 1496.01 297.72C1493.82 297.72 1492.09 296.78 1492.09 295.52C1492.09 294.26 1494.44 293.52 1496.49 293C1505.3 290.801 1505.49 288.911 1505.78 282.781C1506.25 268.931 1506.72 252.562 1506.72 234.322C1506.72 234.002 1506.09 232.592 1505.15 232.432C1499.88 231.719 1494.57 231.405 1489.25 231.492C1486.25 231.812 1484.07 233.222 1481.39 237.492C1479.5 240.322 1479.03 241.742 1477.77 241.742C1476.51 241.742 1475.88 239.852 1475.88 238.592C1476.04 235.592 1477.77 228.203 1477.77 224.433C1477.79 223.783 1478.04 223.162 1478.47 222.673C1478.9 222.185 1479.49 221.86 1480.13 221.753C1481.23 221.753 1482.33 222.853 1482.96 223.483C1484.38 224.743 1487.68 226.003 1504.2 226.003L1524.79 225.992Z" fill="#818386"/>
<path d="M1567.35 225.232C1570.5 225.232 1578.21 226.023 1582.94 226.023C1588.28 226.023 1590.65 225.543 1593.94 225.543C1595.83 225.543 1597.56 226.333 1597.56 227.272C1597.56 228.532 1595.99 229.642 1594.09 230.102C1589.53 231.212 1589.85 233.402 1590.95 235.922C1592.21 239.222 1599.13 251.332 1604.17 260.312C1604.39 260.5 1604.66 260.604 1604.95 260.604C1605.24 260.604 1605.52 260.5 1605.74 260.312C1606.53 258.892 1617.22 240.312 1619.58 235.132C1621.15 231.982 1620.69 231.202 1616.12 229.782C1613.29 228.993 1612.81 228.212 1612.81 227.262C1612.81 226.312 1614.23 225.533 1616.59 225.533C1620.52 225.533 1620.83 226.012 1625.4 226.012C1627.9 226.012 1636.88 225.383 1637.82 225.383C1639.24 225.383 1641.6 225.853 1641.6 226.953C1641.6 228.683 1639.09 229.632 1637.82 229.782C1630.42 231.032 1629.16 233.082 1624.29 239.212C1618.51 247.199 1613.36 255.617 1608.87 264.391C1607.95 266.188 1607.51 268.194 1607.61 270.211C1607.45 273.671 1607.45 282.801 1607.77 286.421C1608.25 290.2 1610.14 291.6 1615.33 292.87C1617.84 293.5 1619.73 293.98 1619.73 295.38C1619.73 296.49 1618.48 297.38 1615.64 297.38C1610.77 297.38 1609.64 296.91 1603.85 296.91C1599.43 296.91 1591.42 297.7 1585.75 297.7C1583.08 297.7 1581.66 297.22 1581.66 295.7C1581.66 295.07 1582.76 293.97 1584.8 293.5C1592.98 291.771 1594.71 289.881 1594.87 287.211C1595.03 284.211 1595.35 274.621 1595.35 272.101C1595.56 269.894 1595.18 267.67 1594.24 265.661C1589.94 256.62 1584.94 247.928 1579.29 239.662C1574.89 233.052 1573.48 231.172 1567.02 229.432C1564.66 228.812 1563.56 227.863 1563.56 226.763C1563.58 226.173 1565 225.232 1567.35 225.232Z" fill="#818386"/>
<path d="M1767.49 260.481C1767.78 266.047 1766.8 271.605 1764.62 276.734C1762.44 281.862 1759.11 286.423 1754.9 290.071C1747.8 296.051 1738.85 299.384 1729.58 299.5C1724.4 299.799 1719.22 299.041 1714.34 297.274C1709.46 295.506 1705 292.766 1701.22 289.219C1697.43 285.672 1694.41 281.394 1692.33 276.642C1690.25 271.891 1689.16 266.767 1689.13 261.581C1689.03 256.531 1689.99 251.516 1691.94 246.857C1693.9 242.198 1696.8 237.997 1700.47 234.522C1707.94 227.427 1717.85 223.487 1728.16 223.523C1733.17 223.332 1738.18 224.14 1742.88 225.9C1747.59 227.66 1751.89 230.338 1755.55 233.776C1759.21 237.215 1762.15 241.347 1764.2 245.931C1766.25 250.515 1767.37 255.461 1767.49 260.481ZM1711.16 235.302C1705.42 242.19 1702.64 251.071 1703.44 260.001C1702.75 268.069 1705.09 276.104 1710.01 282.536C1714.93 288.968 1722.07 293.334 1730.04 294.78C1733.37 294.755 1736.65 293.961 1739.63 292.459C1742.6 290.957 1745.19 288.787 1747.19 286.12C1751.68 278.639 1753.82 269.976 1753.32 261.261C1753.32 252.142 1746.4 228.052 1726.26 228.052C1720.46 228.383 1715.04 230.989 1711.16 235.302V235.302Z" fill="#818386"/>
<path d="M1784.16 225.393C1788.4 225.393 1793.91 226.023 1799.58 226.023C1805.87 226.023 1833.09 226.333 1834.98 225.703C1835.6 225.543 1836.71 226.813 1836.71 227.272C1836.71 231.372 1837.02 235.772 1837.02 238.922C1837.02 242.392 1835.92 243.332 1834.83 243.332C1833.74 243.332 1833.09 242.392 1832 239.402C1829.8 233.402 1827.75 232.472 1825.7 231.852C1819.88 230.88 1813.97 230.508 1808.08 230.743C1807.08 230.743 1805.88 232.312 1805.88 233.252C1805.72 239.702 1805.56 248.672 1805.56 257.332C1805.61 257.627 1805.73 257.906 1805.9 258.152C1806.07 258.397 1806.3 258.601 1806.56 258.752C1807.98 258.912 1811.91 258.432 1818.67 258.272C1823.23 258.112 1824.02 255.272 1825.28 252.272C1825.75 251.012 1826.85 249.272 1827.64 249.272C1828.74 249.272 1829.52 250.522 1829.52 252.272C1829.52 254.942 1829.21 257.771 1829.21 260.921C1829.18 264.075 1829.34 267.226 1829.69 270.361C1829.85 271.621 1829.37 273.981 1827.48 273.981C1826.55 273.981 1825.6 272.411 1824.81 270.521C1824.5 269.239 1823.89 268.051 1823.02 267.064C1822.14 266.077 1821.04 265.32 1819.81 264.861C1815.49 264.205 1811.11 263.941 1806.75 264.071C1806.12 264.071 1805.64 265.321 1805.64 266.271C1805.64 271.931 1805.64 280.271 1805.96 286.27C1806.12 289.73 1807.84 291.46 1813.96 293.04C1816.64 293.83 1817.43 294.78 1817.43 295.72C1817.43 297.14 1815.23 297.61 1813.34 297.61C1811.45 297.61 1802.79 296.98 1797.76 296.98C1793.2 296.98 1789.58 297.77 1785.02 297.77C1782.82 297.77 1780.61 297.29 1780.61 296.2C1780.61 295.11 1782.18 293.68 1784.86 293.05C1791.15 291.63 1792.09 290.54 1792.86 284.871C1793.17 282.511 1793.48 267.871 1793.48 253.252C1793.48 248.382 1793.17 238.152 1793.01 236.252C1792.85 234.682 1791.12 231.382 1785.01 229.963C1781.23 229.023 1780.6 228.232 1780.6 226.962C1780.54 226.332 1781.92 225.393 1784.16 225.393Z" fill="#818386"/>
<path d="M1893.34 195.503C1903.57 195.503 1905.34 195.814 1914.43 195.814C1915.22 196.256 1915.83 196.965 1916.16 197.814C1917.79 202.734 1919.79 207.521 1922.16 212.133C1930.97 230.703 1949.22 268.461 1951.43 271.451C1951.75 271.931 1952.69 272.451 1953 271.931C1954.42 269.261 1983.85 213.713 1986.36 207.103C1986.52 206.473 1989.03 201.103 1989.98 197.984C1990.29 197.079 1990.9 196.306 1991.71 195.784C1997.38 195.784 2010.11 195.314 2011.53 195.314C2013.53 195.314 2015.62 195.624 2015.62 197.044C2015.62 198.144 2014.36 199.043 2011.53 199.553C2009.11 199.982 2006.74 200.652 2004.45 201.553C2002.09 202.493 1999.58 205.483 1999.58 213.663C1999.58 257.412 2001.31 277.391 2001.77 281.791C2002.77 288.88 2004.45 290.45 2012.01 292.65C2014.83 293.28 2016.25 294.53 2016.25 295.65C2016.25 296.91 2014.05 297.65 2011.69 297.65C2009.96 297.65 1997.85 296.86 1992.04 296.86C1989.04 296.86 1983.85 297.33 1980.03 297.33C1978.3 297.33 1975.79 296.71 1975.79 295.13C1975.79 293.71 1977.68 292.93 1979.88 292.3C1986.34 290.421 1986.65 286.8 1987.12 280.971C1987.75 273.891 1987.43 228.262 1986.96 220.243C1986.96 219.143 1986.32 218.243 1985.38 219.763C1983.65 222.763 1966.04 257.372 1959.9 270.271C1956.12 278.451 1952.5 286.641 1950.15 292.77C1948.41 297.33 1947.63 297.18 1946.53 297.18C1945.59 297.18 1944.64 295.92 1944.17 294.18C1942.51 288.525 1940.57 282.958 1938.35 277.501C1929.86 256.732 1916.95 231.872 1911.12 218.503C1910.65 217.393 1910.18 217.243 1910.02 218.973C1908.14 239.163 1907.3 259.435 1907.51 279.711C1907.82 287.711 1909.08 289.94 1917.11 292.45C1920.57 293.39 1921.35 294.02 1921.35 295.45C1921.35 296.71 1919.62 297.33 1917.11 297.33C1912.11 297.33 1905.46 296.86 1901.37 296.86C1897.59 296.86 1892.71 297.33 1888.79 297.33C1886.42 297.33 1884.69 296.86 1884.69 295.13C1884.69 294.5 1885.79 293.4 1887.84 292.93C1897.59 290.11 1898.54 287.431 1899.84 278.461C1901.41 267.601 1904.84 222.293 1905.19 210.463C1905.22 208.364 1904.53 206.318 1903.25 204.66C1901.96 203.002 1900.15 201.832 1898.11 201.343C1895.44 200.553 1893.38 199.924 1891.34 199.454C1890.24 199.144 1888.83 198.034 1888.83 196.944C1888.77 195.504 1889.88 195.503 1893.34 195.503Z" fill="#818386"/>
<path d="M2034.32 225.553C2035.58 225.713 2046.59 226.033 2051.15 226.033C2056.25 225.997 2061.35 225.683 2066.41 225.093C2067.52 224.933 2069.87 226.033 2069.87 226.823C2069.87 227.923 2067.87 229.333 2065.94 229.652C2058.39 231.852 2057.76 233.113 2057.45 238.772C2057.13 242.232 2057.13 250.252 2057.13 260.482C2057.13 269.481 2057.13 277.481 2057.28 280.781C2057.6 289.781 2058.7 291.171 2066.09 292.89C2067.98 293.37 2069.71 294.62 2069.71 296.04C2069.71 297.15 2068.14 297.46 2066.56 297.46C2062.15 297.46 2057.9 296.99 2051.14 296.99C2046.58 296.99 2038.24 297.78 2035.25 297.78C2032.88 297.78 2031.47 297.15 2031.47 296.04C2031.47 294.62 2033.83 293.531 2035.25 293.041C2042.8 291.161 2044.25 289.431 2044.53 283.451C2044.7 280.621 2044.85 275.731 2044.85 270.541C2044.85 254.022 2044.85 243.002 2044.69 240.492C2044.21 233.723 2041.54 231.682 2035.4 229.952C2032.57 229.013 2032.09 227.953 2032.09 226.953C2032.14 226.333 2032.62 225.393 2034.32 225.553Z" fill="#818386"/>
<path d="M2132.17 226.023C2133.27 226.183 2133.74 228.023 2133.74 229.802C2133.87 233.209 2133.82 236.621 2133.58 240.022C2133.1 243.022 2131.84 243.482 2131.37 243.482C2129.95 243.482 2129.37 241.602 2128.86 239.702C2128.06 236.272 2126.19 233.186 2123.51 230.893C2120.8 228.829 2117.48 227.721 2114.07 227.743C2112.39 227.637 2110.7 227.874 2109.12 228.441C2107.53 229.008 2106.07 229.893 2104.83 231.041C2103.6 232.188 2102.61 233.576 2101.93 235.118C2101.24 236.661 2100.88 238.326 2100.86 240.012C2101.24 242.784 2102.34 245.407 2104.05 247.617C2105.77 249.828 2108.03 251.547 2110.62 252.602C2115.62 255.432 2119.9 257.482 2124.46 260.152C2127.97 261.807 2130.95 264.405 2133.07 267.656C2135.19 270.906 2136.37 274.682 2136.46 278.561C2136.32 281.795 2135.38 284.945 2133.74 287.734C2132.1 290.523 2129.79 292.867 2127.03 294.56C2121.73 297.674 2115.71 299.356 2109.56 299.44C2102.61 299.853 2095.7 298.152 2089.73 294.56C2089.23 294.161 2088.82 293.662 2088.52 293.093C2088.22 292.525 2088.05 291.901 2088 291.26C2087.84 289.38 2086.59 281.821 2086.59 279.461C2086.59 276.461 2087.69 275.211 2088.78 275.211C2090.2 275.211 2090.67 276.951 2091.3 278.671C2092.32 281.228 2093.53 283.702 2094.92 286.07C2096.74 288.759 2099.17 290.976 2102.01 292.541C2104.86 294.106 2108.03 294.973 2111.27 295.07C2112.91 295.207 2114.55 295.01 2116.1 294.492C2117.65 293.974 2119.09 293.145 2120.31 292.056C2121.53 290.967 2122.52 289.641 2123.21 288.158C2123.91 286.675 2124.29 285.067 2124.34 283.431C2124.34 277.291 2121.04 273.991 2115.22 270.371C2110.49 267.541 2106.22 265.371 2102.79 263.131C2099.19 261.289 2096.12 258.56 2093.86 255.204C2091.61 251.847 2090.24 247.972 2089.89 243.942C2089.89 232.142 2099.64 223.482 2115.38 223.482C2121.05 223.743 2126.68 224.595 2132.17 226.023V226.023Z" fill="#818386"/>
<path d="M2201.16 226.023C2202.26 226.183 2202.73 228.023 2202.73 229.802C2202.86 233.209 2202.81 236.621 2202.57 240.022C2202.1 243.022 2200.84 243.482 2200.37 243.482C2198.95 243.482 2198.37 241.602 2197.86 239.702C2197.05 236.275 2195.18 233.192 2192.51 230.893C2189.8 228.829 2186.48 227.721 2183.07 227.743C2181.39 227.635 2179.7 227.872 2178.11 228.438C2176.52 229.004 2175.06 229.889 2173.83 231.037C2172.59 232.185 2171.6 233.572 2170.92 235.115C2170.23 236.659 2169.87 238.325 2169.85 240.012C2170.23 242.782 2171.33 245.405 2173.04 247.615C2174.75 249.826 2177.02 251.546 2179.6 252.602C2184.6 255.432 2188.89 257.482 2193.45 260.152C2196.96 261.806 2199.94 264.404 2202.06 267.655C2204.18 270.906 2205.36 274.682 2205.45 278.561C2205.31 281.796 2204.37 284.946 2202.72 287.735C2201.08 290.524 2198.77 292.867 2196.01 294.56C2190.72 297.676 2184.7 299.358 2178.55 299.44C2171.6 299.856 2164.69 298.155 2158.72 294.56C2158.22 294.16 2157.81 293.66 2157.51 293.092C2157.22 292.524 2157.04 291.9 2156.99 291.26C2156.83 289.38 2155.57 281.821 2155.57 279.461C2155.57 276.461 2156.68 275.211 2157.77 275.211C2159.19 275.211 2159.65 276.951 2160.28 278.671C2161.3 281.226 2162.51 283.699 2163.9 286.07C2165.72 288.76 2168.16 290.979 2171 292.543C2173.85 294.108 2177.03 294.974 2180.27 295.07C2181.9 295.205 2183.55 295.007 2185.1 294.489C2186.65 293.97 2188.08 293.141 2189.3 292.053C2190.53 290.964 2191.52 289.638 2192.21 288.156C2192.9 286.674 2193.29 285.067 2193.34 283.431C2193.34 277.291 2190.03 273.991 2184.22 270.371C2179.49 267.541 2175.22 265.371 2171.79 263.131C2168.19 261.29 2165.12 258.562 2162.86 255.205C2160.6 251.848 2159.24 247.972 2158.89 243.942C2158.89 232.142 2168.63 223.482 2184.38 223.482C2190.05 223.742 2195.67 224.594 2201.16 226.023V226.023Z" fill="#818386"/>
<path d="M2223.66 225.553C2224.92 225.713 2235.94 226.033 2240.49 226.033C2245.6 225.997 2250.69 225.683 2255.76 225.093C2256.87 224.933 2259.22 226.033 2259.22 226.823C2259.22 227.923 2257.22 229.333 2255.29 229.652C2247.74 231.852 2247.11 233.113 2246.8 238.772C2246.48 242.232 2246.48 250.252 2246.48 260.482C2246.48 269.481 2246.48 277.481 2246.65 280.781C2246.96 289.781 2248.07 291.171 2255.46 292.89C2257.34 293.37 2259.07 294.62 2259.07 296.04C2259.07 297.15 2257.5 297.46 2255.93 297.46C2251.52 297.46 2247.27 296.99 2240.51 296.99C2235.96 296.99 2227.61 297.78 2224.62 297.78C2222.26 297.78 2220.84 297.15 2220.84 296.04C2220.84 294.62 2223.21 293.531 2224.62 293.041C2232.17 291.161 2233.62 289.431 2233.9 283.451C2234.06 280.621 2234.22 275.731 2234.22 270.541C2234.22 254.022 2234.22 243.002 2234.06 240.492C2233.58 233.723 2230.91 231.682 2224.77 229.952C2221.95 229.013 2221.47 227.953 2221.47 226.953C2221.46 226.333 2221.94 225.393 2223.66 225.553Z" fill="#818386"/>
<path d="M2321.49 226.023C2322.59 226.183 2323.06 228.023 2323.06 229.802C2323.19 233.209 2323.14 236.621 2322.9 240.022C2322.42 243.022 2321.17 243.482 2320.7 243.482C2319.28 243.482 2318.7 241.602 2318.18 239.702C2317.38 236.275 2315.51 233.19 2312.84 230.893C2310.13 228.83 2306.81 227.723 2303.4 227.743C2301.72 227.635 2300.03 227.872 2298.44 228.438C2296.85 229.004 2295.39 229.889 2294.16 231.037C2292.92 232.185 2291.93 233.572 2291.25 235.115C2290.56 236.659 2290.2 238.325 2290.18 240.012C2290.56 242.782 2291.66 245.405 2293.37 247.615C2295.08 249.826 2297.34 251.546 2299.93 252.602C2304.93 255.432 2309.21 257.482 2313.78 260.152C2317.29 261.806 2320.27 264.404 2322.39 267.655C2324.51 270.906 2325.69 274.682 2325.78 278.561C2325.64 281.796 2324.7 284.946 2323.05 287.735C2321.41 290.524 2319.1 292.867 2316.34 294.56C2311.05 297.676 2305.03 299.358 2298.88 299.44C2291.93 299.856 2285.02 298.155 2279.05 294.56C2278.55 294.162 2278.13 293.663 2277.84 293.095C2277.54 292.526 2277.36 291.901 2277.32 291.26C2277.16 289.38 2275.9 281.821 2275.9 279.461C2275.9 276.461 2277 275.211 2278.1 275.211C2279.52 275.211 2279.98 276.951 2280.61 278.671C2281.63 281.228 2282.84 283.702 2284.23 286.07C2286.05 288.759 2288.48 290.977 2291.33 292.541C2294.17 294.106 2297.35 294.973 2300.59 295.07C2302.22 295.204 2303.86 295.005 2305.41 294.486C2306.97 293.966 2308.4 293.137 2309.62 292.049C2310.84 290.96 2311.83 289.635 2312.52 288.154C2313.21 286.672 2313.6 285.066 2313.65 283.431C2313.65 277.291 2310.34 273.991 2304.52 270.371C2299.8 267.541 2295.52 265.371 2292.1 263.131C2288.5 261.29 2285.43 258.562 2283.17 255.205C2280.91 251.848 2279.55 247.972 2279.2 243.942C2279.2 232.142 2288.95 223.482 2304.68 223.482C2310.36 223.741 2315.99 224.593 2321.49 226.023Z" fill="#818386"/>
<path d="M2390.48 226.023C2391.58 226.183 2392.05 228.023 2392.05 229.802C2392.18 233.209 2392.13 236.621 2391.89 240.022C2391.41 243.022 2390.15 243.482 2389.68 243.482C2388.26 243.482 2387.68 241.602 2387.17 239.702C2386.37 236.272 2384.5 233.187 2381.82 230.893C2379.11 228.827 2375.78 227.719 2372.37 227.743C2370.69 227.637 2369 227.874 2367.41 228.441C2365.82 229.008 2364.37 229.893 2363.13 231.041C2361.9 232.188 2360.91 233.576 2360.22 235.118C2359.54 236.661 2359.18 238.326 2359.16 240.012C2359.54 242.782 2360.64 245.405 2362.35 247.615C2364.06 249.826 2366.32 251.546 2368.91 252.602C2373.91 255.432 2378.19 257.482 2382.75 260.152C2386.26 261.806 2389.24 264.404 2391.36 267.655C2393.48 270.906 2394.66 274.682 2394.75 278.561C2394.61 281.795 2393.67 284.945 2392.03 287.734C2390.38 290.523 2388.08 292.867 2385.32 294.56C2380.02 297.674 2374 299.356 2367.85 299.44C2360.9 299.855 2353.99 298.153 2348.03 294.56C2347.53 294.163 2347.11 293.664 2346.81 293.096C2346.51 292.527 2346.33 291.902 2346.29 291.26C2346.13 289.38 2344.88 281.821 2344.88 279.461C2344.88 276.461 2345.98 275.211 2347.07 275.211C2348.49 275.211 2348.96 276.951 2349.59 278.671C2350.61 281.228 2351.82 283.702 2353.21 286.07C2355.03 288.76 2357.46 290.979 2360.31 292.543C2363.15 294.108 2366.33 294.974 2369.57 295.07C2371.2 295.205 2372.84 295.007 2374.4 294.488C2375.95 293.97 2377.38 293.141 2378.6 292.052C2379.82 290.963 2380.81 289.638 2381.5 288.156C2382.19 286.674 2382.58 285.066 2382.63 283.431C2382.63 277.291 2379.33 273.991 2373.51 270.371C2368.78 267.541 2364.51 265.371 2361.08 263.131C2357.48 261.29 2354.41 258.562 2352.15 255.205C2349.89 251.848 2348.53 247.972 2348.18 243.942C2348.18 232.142 2357.94 223.482 2373.67 223.482C2379.35 223.742 2384.98 224.593 2390.48 226.023Z" fill="#818386"/>
<path d="M2412.98 225.553C2414.24 225.713 2425.26 226.033 2429.82 226.033C2434.92 225.997 2440.02 225.683 2445.08 225.093C2446.19 224.933 2448.54 226.033 2448.54 226.823C2448.54 227.923 2446.54 229.333 2444.61 229.652C2437.06 231.852 2436.43 233.113 2436.12 238.772C2435.8 242.232 2435.8 250.252 2435.8 260.482C2435.8 269.481 2435.8 277.481 2435.96 280.781C2436.28 289.781 2437.38 291.171 2444.77 292.89C2446.65 293.37 2448.39 294.62 2448.39 296.04C2448.39 297.15 2446.81 297.46 2445.25 297.46C2440.84 297.46 2436.59 296.99 2429.83 296.99C2425.27 296.99 2416.93 297.78 2413.94 297.78C2411.57 297.78 2410.16 297.15 2410.16 296.04C2410.16 294.62 2412.52 293.531 2413.94 293.041C2421.49 291.161 2422.94 289.431 2423.22 283.451C2423.38 280.621 2423.54 275.731 2423.54 270.541C2423.54 254.022 2423.54 243.002 2423.38 240.492C2422.9 233.723 2420.23 231.682 2414.09 229.952C2411.26 229.013 2410.78 227.953 2410.78 226.953C2410.78 226.333 2411.26 225.393 2412.98 225.553Z" fill="#818386"/>
<path d="M2470.11 225.703C2473.41 225.703 2476.88 226.022 2480.02 226.022C2485.38 226.022 2491.82 225.393 2496.23 225.393C2503.81 224.732 2511.37 226.733 2517.63 231.052C2519.91 233.084 2521.72 235.585 2522.94 238.383C2524.17 241.18 2524.77 244.209 2524.71 247.262C2524.65 250.372 2523.92 253.432 2522.56 256.231C2521.21 259.03 2519.26 261.5 2516.85 263.471C2513.24 266.371 2508.74 267.93 2504.11 267.881C2502.45 267.859 2500.81 267.593 2499.23 267.091C2497.35 266.461 2496.72 265.671 2496.72 264.891C2496.72 263.891 2497.66 263.151 2500.18 263.151C2503.77 262.728 2507.07 260.941 2509.38 258.159C2511.7 255.377 2512.85 251.812 2512.61 248.202C2512.69 245.69 2512.28 243.187 2511.39 240.837C2510.5 238.487 2509.15 236.337 2507.42 234.512C2504.3 231.648 2500.31 229.891 2496.09 229.512C2494.19 229.686 2492.34 230.165 2490.59 230.932C2489.96 231.644 2489.52 232.51 2489.33 233.442C2488.54 239.442 2489.01 280.021 2489.01 283.321C2489.01 289.77 2490.75 291.5 2497.67 293.07C2499.4 293.55 2500.97 294.33 2500.97 295.43C2500.97 297.01 2498.3 297.43 2497.04 297.43C2490.59 297.43 2487.75 296.96 2484.77 296.96C2480.67 296.96 2472.65 297.59 2468.08 297.59C2465.57 297.59 2464.3 297.11 2464.3 295.7C2464.3 294.76 2465.09 293.97 2468.08 293.02C2473.9 291.6 2476.08 290.2 2476.58 284.531C2476.89 280.601 2477.06 278.401 2477.06 273.531C2477.06 270.231 2476.9 240.332 2476.74 237.022C2476.59 233.242 2476.27 231.672 2469.03 230.252C2467.03 229.782 2465.72 228.842 2465.72 227.742C2465.71 226.022 2468.7 225.703 2470.11 225.703Z" fill="#818386"/>
<path d="M2542.76 225.703C2546.07 225.703 2549.54 226.022 2552.68 226.022C2558.03 226.022 2564.47 225.393 2568.89 225.393C2576.46 224.731 2584.03 226.733 2590.28 231.052C2592.56 233.083 2594.37 235.583 2595.6 238.381C2596.82 241.179 2597.42 244.209 2597.36 247.262C2597.3 250.371 2596.57 253.431 2595.21 256.23C2593.85 259.029 2591.91 261.499 2589.5 263.471C2585.89 266.378 2581.38 267.937 2576.75 267.881C2575.09 267.857 2573.45 267.591 2571.87 267.091C2569.99 266.461 2569.36 265.671 2569.36 264.891C2569.36 263.891 2570.3 263.151 2572.82 263.151C2576.41 262.726 2579.7 260.938 2582.02 258.156C2584.33 255.374 2585.48 251.811 2585.24 248.202C2585.33 245.691 2584.91 243.188 2584.02 240.838C2583.13 238.488 2581.79 236.338 2580.06 234.512C2576.93 231.649 2572.95 229.892 2568.72 229.512C2566.82 229.687 2564.97 230.166 2563.22 230.932C2562.59 231.644 2562.15 232.51 2561.96 233.442C2561.17 239.442 2561.65 280.021 2561.65 283.321C2561.65 289.77 2563.38 291.5 2570.3 293.07C2572.04 293.55 2573.61 294.33 2573.61 295.43C2573.61 297.01 2570.93 297.43 2569.68 297.43C2563.23 297.43 2560.39 296.96 2557.4 296.96C2553.31 296.96 2545.29 297.59 2540.72 297.59C2538.2 297.59 2536.93 297.11 2536.93 295.7C2536.93 294.76 2537.73 293.97 2540.72 293.02C2546.54 291.6 2548.72 290.2 2549.21 284.531C2549.53 280.601 2549.69 278.401 2549.69 273.531C2549.69 270.231 2549.54 240.332 2549.37 237.022C2549.21 233.242 2548.9 231.672 2541.66 230.252C2539.66 229.782 2538.36 228.842 2538.36 227.742C2538.37 226.022 2541.36 225.703 2542.76 225.703Z" fill="#818386"/>
<path d="M2612.37 225.553C2613.63 225.713 2624.65 226.033 2629.21 226.033C2634.31 225.997 2639.4 225.683 2644.47 225.093C2645.58 224.933 2647.94 226.033 2647.94 226.823C2647.94 227.923 2645.94 229.333 2644.01 229.652C2636.46 231.852 2635.83 233.113 2635.52 238.772C2635.2 242.232 2635.2 250.252 2635.2 260.482C2635.2 269.481 2635.2 277.481 2635.36 280.781C2635.68 289.781 2636.78 291.171 2644.17 292.89C2646.05 293.37 2647.79 294.62 2647.79 296.04C2647.79 297.15 2646.21 297.46 2644.65 297.46C2640.24 297.46 2635.99 296.99 2629.23 296.99C2624.67 296.99 2616.33 297.78 2613.34 297.78C2610.97 297.78 2609.56 297.15 2609.56 296.04C2609.56 294.62 2611.92 293.531 2613.34 293.041C2620.89 291.161 2622.34 289.431 2622.62 283.451C2622.78 280.621 2622.94 275.731 2622.94 270.541C2622.94 254.022 2622.94 243.002 2622.77 240.492C2622.3 233.723 2619.63 231.682 2613.49 229.952C2610.66 229.013 2610.19 227.953 2610.19 226.953C2610.18 226.333 2610.65 225.393 2612.37 225.553Z" fill="#818386"/>
<path d="M407.537 179.344C401.121 213.946 389.98 247.502 374.427 279.071C372.117 447.065 302.528 497.664 244.038 506.903H244.328C224.085 513.917 202.595 516.602 181.249 514.783C184.649 520.943 188.249 527.072 192.019 533.142C214.291 532.806 236.499 530.646 258.418 526.683C258.418 526.683 464.437 428.146 407.537 179.344Z" fill="#808080"/>
<path d="M162.059 48.7883L117.239 0C-32.9499 185.074 -19.7599 349.148 50.8696 440.105C30.3497 365.618 14.0997 196.373 162.059 48.7883Z" fill="#00428B"/>
<path d="M365.957 154.715L259.238 118.776C359.237 388.407 236.288 470.474 193.709 493.644C183.758 489.958 174.048 485.65 164.639 480.744C169.591 492.379 175.135 503.754 181.249 514.823C202.595 516.642 224.085 513.957 244.328 506.943H244.038C302.528 497.704 372.117 447.135 374.427 279.111C374.672 237.493 371.841 195.915 365.957 154.715V154.715Z" fill="#00428B"/>
<path d="M164.649 480.734C69.2697 256.742 218.158 0.170052 218.158 0.170052C198.377 15.0806 179.637 31.3245 162.069 48.7884C14.0701 196.374 30.3598 365.618 50.8696 440.095C53.7977 453.472 58.8339 466.299 65.7896 478.094C99.2893 514.093 146.939 526.972 172.209 531.432C177.818 532.487 183.503 533.092 189.209 533.242H190.029C190.719 533.242 191.399 533.242 192.099 533.242L192.039 533.162C188.229 527.082 184.659 520.963 181.269 514.803C175.151 503.738 169.604 492.367 164.649 480.734V480.734Z" fill="#B3B3B3"/>
<path d="M2647.57 351.688H2638.86V348.548H2660.05V351.688H2651.3V377.157H2647.56L2647.57 351.688Z" fill="#00428B"/>
<path d="M2686.27 364.598C2686.06 360.598 2685.8 355.758 2685.8 352.228H2685.71C2684.71 355.538 2683.54 359.158 2682.11 363.098L2677.05 376.987H2674.27L2669.6 363.358C2668.24 359.278 2667.14 355.628 2666.34 352.228H2666.24C2666.15 355.798 2665.95 360.558 2665.69 364.898L2664.93 377.167H2661.41L2663.41 348.548H2668.13L2673.01 362.398C2674.2 365.918 2675.14 369.058 2675.89 372.038H2675.98C2676.76 369.148 2677.78 366.038 2679.05 362.398L2684.14 348.548H2688.86L2690.65 377.167H2687L2686.27 364.598Z" fill="#00428B"/>
</svg>
