<?xml version="1.0" encoding="utf-8"?>
<!-- Generator: Adobe Illustrator 26.0.2, SVG Export Plug-In . SVG Version: 6.00 Build 0)  -->
<svg version="1.1" id="Layer_1" xmlns="http://www.w3.org/2000/svg" xmlns:xlink="http://www.w3.org/1999/xlink" x="0px" y="0px"
	 viewBox="0 0 274.96 54.94" style="enable-background:new 0 0 274.96 54.94;" xml:space="preserve">
<style type="text/css">
	.st0{fill:#00539B;}
	.st1{fill:#939598;}
	.st2{fill:#808080;}
	.st3{fill:#B3B3B3;}
</style>
<g>
	<g>
		<path class="st0" d="M52.44,35.96c1.65,0,1.99,0.05,3.59,0.05c0.08,0,0.26,0.23,0.31,0.36c0.28,0.9,0.44,1.24,0.96,2.32
			c1.42,2.97,4.31,8.93,4.7,9.45c0.03,0.08,0.21,0.16,0.26,0.1c0.31-0.59,4.72-9.01,5.21-10.27c0.05-0.15,0.46-1.08,0.65-1.6
			c0.03-0.1,0.21-0.36,0.28-0.36c1.11,0,3.18-0.08,3.41-0.08c0.34,0,0.7,0.05,0.7,0.28c0,0.18-0.23,0.34-0.67,0.44
			c-0.41,0.08-0.8,0.18-1.16,0.36c-0.41,0.15-0.77,0.65-0.77,1.99c0,6.58,0.23,10.22,0.34,11.1c0.15,1.08,0.41,1.37,1.68,1.73
			c0.46,0.13,0.7,0.31,0.7,0.49c0,0.23-0.36,0.36-0.75,0.36c-0.28,0-2.38-0.13-3.33-0.13c-0.46,0-1.45,0.08-2.04,0.08
			c-0.34,0-0.72-0.1-0.72-0.36c0-0.23,0.34-0.39,0.7-0.49c1.06-0.28,1.08-0.93,1.16-1.88c0.1-1.19,0.08-8.52,0.03-9.81
			c0-0.21-0.13-0.36-0.26-0.1c-0.41,0.72-3.15,6.2-4.1,8.21c-0.62,1.37-1.19,2.74-1.57,3.69c-0.28,0.75-0.46,0.75-0.62,0.75
			s-0.34-0.23-0.44-0.52c-0.15-0.59-0.44-1.5-0.96-2.71c-1.37-3.38-3.51-7.62-4.36-9.58c-0.08-0.16-0.15-0.16-0.18,0.08
			c-0.21,1.24-0.49,7.33-0.39,9.78c0.03,1.34,0.26,1.73,1.57,2.12c0.54,0.16,0.67,0.28,0.67,0.52c0,0.21-0.28,0.31-0.7,0.31
			c-0.83,0-1.86-0.08-2.53-0.08c-0.65,0-1.5,0.08-2.12,0.08c-0.39,0-0.7-0.05-0.7-0.36c0-0.13,0.21-0.28,0.54-0.39
			c1.57-0.46,1.76-0.88,1.99-2.43c0.23-1.81,0.8-8.98,0.85-11c0-0.23-0.05-1.21-1.11-1.52l-1.11-0.28
			c-0.18-0.05-0.44-0.23-0.44-0.44C51.69,35.99,51.87,35.96,52.44,35.96z"/>
		<path class="st0" d="M83.59,36.01c0.85,0,1.96-0.03,2.38-0.1c0.08-0.03,0.21,0.18,0.23,0.31c0,1.03,0.05,1.99,0.05,2.5
			c0,0.36-0.18,0.7-0.41,0.7c-0.21,0-0.36-0.36-0.41-0.65c-0.34-1.37-0.93-1.65-1.7-1.78c-0.62-0.1-2.35-0.15-3.67-0.13
			c-0.05,0-0.34,0.13-0.36,0.75c-0.05,0.62-0.13,5.24-0.1,5.83c0.03,0.1,0.08,0.23,0.23,0.23h1.73c2.32,0,2.38-0.08,2.84-1.27
			c0.15-0.39,0.34-0.57,0.49-0.57c0.21,0,0.26,0.39,0.23,0.62c-0.05,0.7-0.08,1.21-0.08,1.83c0,0.7,0.05,1.06,0.08,1.63
			c0,0.46-0.1,0.72-0.31,0.72c-0.18,0-0.36-0.28-0.44-0.54c-0.36-1.19-0.52-1.29-1.96-1.37c-0.83-0.05-1.86-0.05-2.58-0.05
			c-0.1,0-0.23,0.18-0.23,0.23c-0.1,0.59-0.08,2.92-0.08,3.98c0,0.72,0.08,1.7,0.21,2.12c0.13,0.31,0.34,0.54,0.52,0.59
			c0.44,0.08,1.32,0.18,2.3,0.18c0.41,0,1.86-0.03,2.45-0.21c0.8-0.23,1.5-0.72,2.09-1.91c0.31-0.59,0.49-0.75,0.65-0.75
			c0.21,0,0.26,0.44,0.21,0.72c0,0.21-0.75,2.53-0.93,2.81c-0.08,0.1-0.36,0.28-0.49,0.28c-0.28,0-4.7-0.18-8.44-0.18
			c-1.42,0-1.94,0.13-2.89,0.13c-0.49,0-0.8-0.05-0.8-0.34c0-0.21,0.31-0.34,0.72-0.44c1.32-0.28,1.78-0.52,1.88-1.91
			c0.08-1.06,0.18-3.87,0.18-7.07c0-3.1,0.05-3.77,0-4.52c-0.08-1.08-0.34-1.45-1.45-1.68c-0.54-0.13-0.77-0.23-0.77-0.44
			c0-0.23,0.39-0.36,0.75-0.36c1.21,0,2.45,0.08,4.08,0.08H83.59z"/>
		<path class="st0" d="M104.56,38.28c1.39,1.34,2.38,3.64,2.38,5.68c0,3.74-2.32,6.43-4.1,7.43c-1.52,0.88-3.69,1.42-6.12,1.42
			c-1.06,0-3.41-0.08-5.09-0.18c-0.54-0.03-1.03-0.03-1.45-0.03c-0.57,0-0.83-0.18-0.83-0.39c0-0.21,0.26-0.36,0.59-0.39
			c1.73-0.21,1.86-0.67,1.94-2.79c0.05-1.24,0.08-2.09,0.08-3.51c0-1.47-0.03-4.47-0.13-6.51c-0.05-1.65-0.08-2.04-1.63-2.27
			c-0.28-0.05-0.59-0.21-0.59-0.39c0-0.21,0.26-0.36,0.65-0.36h0.85c1.29,0,4.21-0.21,6.35-0.21
			C101.07,35.81,103.52,37.33,104.56,38.28z M94.64,36.84c-0.18,0.13-0.23,0.21-0.26,0.34c-0.05,0.39-0.1,2.53-0.1,4.83v3.74
			c0,1.78,0.03,3.3,0.1,4.44c0.08,0.72,0.46,1.08,0.57,1.19c0.46,0.34,1.5,0.67,2.04,0.67c1.14,0,3.18-0.44,4.62-1.65
			c1.55-1.32,2.61-3.61,2.61-6.4c0-2.14-1.03-4.52-2.63-5.81c-1.24-0.98-3.36-1.57-5.27-1.57C95.47,36.61,94.87,36.68,94.64,36.84z"
			/>
		<path class="st0" d="M110.7,38.59c-0.08-1.21-0.08-1.6-1.47-1.86c-0.59-0.13-0.75-0.31-0.75-0.46c0-0.21,0.28-0.34,0.7-0.34
			c0.67,0,1.99,0.08,2.84,0.08c1.26,0,1.91-0.08,2.81-0.08c0.44,0,0.67,0.1,0.67,0.34c0,0.21-0.26,0.36-0.67,0.44
			c-1.45,0.28-1.47,0.93-1.55,1.63c-0.1,0.83-0.15,2.32-0.15,7.28c0,1.76,0.03,3.25,0.08,4.08c0.1,1.42,0.21,1.88,1.83,2.22
			c0.46,0.1,0.7,0.26,0.7,0.46c0,0.21-0.41,0.34-0.72,0.34c-1.26,0-3.07-0.16-3.85-0.16c-0.77,0-1.11,0.05-2.07,0.05
			c-0.52,0-0.7-0.18-0.7-0.39c0-0.18,0.23-0.34,0.77-0.44c1.26-0.28,1.37-0.7,1.47-1.88c0.08-0.93,0.13-3.61,0.13-5.81
			C110.77,42.57,110.75,39.47,110.7,38.59z"/>
		<path class="st0" d="M129.92,35.96c0.65,0.1,1.5,0.41,1.94,0.46c0.13,0.03,0.39,0.23,0.39,0.77c0,0.59,0.1,1.68,0.15,2.27
			c0.03,0.54-0.15,0.88-0.39,0.88c-0.13,0-0.31-0.28-0.41-0.7c-0.26-0.85-0.72-1.63-1.08-1.88c-1.34-1.06-2.68-1.39-4.08-1.39
			c-4.13,0-6.63,3.41-6.63,7.31c0,1.73,0.31,3.15,0.88,4.29c1.47,2.92,4.31,4.05,6.4,4.05c0.44,0,1.7-0.05,2.74-0.65
			c1.08-0.59,1.76-1.39,2.38-2.48c0.31-0.57,0.44-0.7,0.57-0.7c0.28,0,0.28,0.57,0.23,0.85c-0.1,0.67-0.65,1.96-0.98,2.56
			c-0.1,0.23-0.54,0.54-0.83,0.7c-0.41,0.15-2.43,0.72-4.67,0.72c-3.67,0-6.35-1.78-7.38-2.99c-0.98-1.14-2.17-2.99-2.17-5.91
			c0-2.97,1.76-5.29,2.87-6.2c2.19-1.81,4.65-2.35,6.97-2.35C127.75,35.57,128.94,35.75,129.92,35.96z"/>
		<path class="st0" d="M143.6,36.19c0.23,0.7,0.67,1.88,1.14,3.15c1.37,3.82,3.28,8.86,3.72,9.97c0.85,2.09,1.29,2.3,2.4,2.61
			c0.41,0.1,0.65,0.23,0.65,0.41c0,0.18-0.21,0.36-0.85,0.36c-0.8,0-2.22-0.13-3.28-0.13c-0.85,0-1.32,0.05-1.99,0.05
			c-0.62,0-0.8-0.18-0.8-0.34c0-0.13,0.16-0.34,0.65-0.41c1.19-0.23,1.11-0.75,1.03-1.26c-0.18-0.98-0.83-2.63-1.42-4.29
			c-0.03-0.1-0.15-0.28-0.8-0.28c-1.7,0-3.74,0.05-4.26,0.1c-0.1,0-0.23,0.16-0.28,0.23c-0.72,1.76-1.32,3.72-1.32,4.34
			c0,0.34,0.15,0.77,1.29,1.11c0.44,0.13,0.7,0.28,0.7,0.49c0,0.23-0.39,0.34-0.75,0.34c-0.44,0-1.08-0.08-2.04-0.08
			c-0.96,0-2.27,0.13-2.66,0.13c-0.49,0-0.62-0.13-0.62-0.28c0-0.15,0.15-0.39,0.59-0.52c1.29-0.41,1.63-0.54,2.35-2.19
			c0.62-1.32,3.51-9.04,4.6-11.62l0.23-0.65c0.03-0.08,0.08-0.23,0.18-0.41l0.72-1.11c0.18-0.23,0.31-0.34,0.44-0.34
			C143.32,35.57,143.42,35.65,143.6,36.19z M144.28,44.64c-0.41-1.26-1.7-5.01-1.96-5.47c-0.08-0.15-0.15-0.15-0.23,0.03
			c-0.46,1.24-1.78,4.78-1.99,5.55c-0.03,0.1,0.05,0.18,0.15,0.18c1.01-0.03,3.1,0,3.98-0.05C144.25,44.87,144.3,44.74,144.28,44.64
			z"/>
		<path class="st0" d="M154.25,35.96c0.7,0,1.32,0.05,2.06,0.05c1.01,0,2.76-0.08,3.38-0.08c0.49,0,0.67,0.1,0.67,0.28
			c0,0.18-0.21,0.36-0.59,0.44c-1.45,0.34-1.63,0.65-1.68,1.01c-0.16,1.21-0.18,3.82-0.18,7.64c0,1.96,0.08,4.36,0.18,5.21
			c0.05,0.41,0.7,0.96,0.9,0.98c0.62,0.13,1.58,0.13,2.38,0.13c0.7,0,1.45-0.03,1.86-0.08c0.21-0.03,0.52-0.05,0.96-0.46
			c0.36-0.36,0.85-0.77,1.52-1.81c0.28-0.41,0.52-0.54,0.65-0.54c0.15,0,0.21,0.28,0.1,0.7c-0.36,1.19-0.59,1.91-0.77,2.84
			c-0.05,0.26-0.54,0.44-0.65,0.44c-0.31,0-2.63-0.16-7.9-0.16c-1.65,0-2.97,0.13-3.43,0.13c-0.46,0-0.75-0.05-0.75-0.28
			c0-0.18,0.21-0.41,0.62-0.49c1.42-0.26,1.76-0.75,1.88-1.78c0.08-0.65,0.13-4.47,0.13-8.18c0-1.34,0-2.97-0.03-3.82
			c0-0.62-0.15-1.11-1.37-1.37c-0.52-0.1-0.72-0.28-0.72-0.46C153.47,36.09,153.71,35.96,154.25,35.96z"/>
		<path class="st0" d="M186.44,35.96c0.65,0.1,1.5,0.41,1.94,0.46c0.13,0.03,0.39,0.23,0.39,0.77c0,0.59,0.1,1.68,0.15,2.27
			c0.03,0.54-0.15,0.88-0.39,0.88c-0.13,0-0.31-0.28-0.41-0.7c-0.26-0.85-0.72-1.63-1.08-1.88c-1.34-1.06-2.69-1.39-4.08-1.39
			c-4.13,0-6.63,3.41-6.63,7.31c0,1.73,0.31,3.15,0.88,4.29c1.47,2.92,4.31,4.05,6.4,4.05c0.44,0,1.7-0.05,2.74-0.65
			c1.08-0.59,1.76-1.39,2.38-2.48c0.31-0.57,0.44-0.7,0.57-0.7c0.28,0,0.28,0.57,0.23,0.85c-0.1,0.67-0.65,1.96-0.98,2.56
			c-0.1,0.23-0.54,0.54-0.83,0.7c-0.41,0.15-2.43,0.72-4.67,0.72c-3.67,0-6.35-1.78-7.38-2.99c-0.98-1.14-2.17-2.99-2.17-5.91
			c0-2.97,1.76-5.29,2.87-6.2c2.19-1.81,4.65-2.35,6.97-2.35C184.27,35.57,185.46,35.75,186.44,35.96z"/>
		<path class="st0" d="M200.07,36.01c0.85,0,1.96-0.03,2.38-0.1c0.08-0.03,0.21,0.18,0.23,0.31c0,1.03,0.05,1.99,0.05,2.5
			c0,0.36-0.18,0.7-0.41,0.7c-0.21,0-0.36-0.36-0.41-0.65c-0.34-1.37-0.93-1.65-1.7-1.78c-0.62-0.1-2.35-0.15-3.67-0.13
			c-0.05,0-0.34,0.13-0.36,0.75c-0.05,0.62-0.13,5.24-0.1,5.83c0.03,0.1,0.08,0.23,0.23,0.23h1.73c2.32,0,2.38-0.08,2.84-1.27
			c0.15-0.39,0.34-0.57,0.49-0.57c0.21,0,0.26,0.39,0.23,0.62c-0.05,0.7-0.08,1.21-0.08,1.83c0,0.7,0.05,1.06,0.08,1.63
			c0,0.46-0.1,0.72-0.31,0.72c-0.18,0-0.36-0.28-0.44-0.54c-0.36-1.19-0.52-1.29-1.96-1.37c-0.83-0.05-1.86-0.05-2.58-0.05
			c-0.1,0-0.23,0.18-0.23,0.23c-0.1,0.59-0.08,2.92-0.08,3.98c0,0.72,0.08,1.7,0.21,2.12c0.13,0.31,0.34,0.54,0.52,0.59
			c0.44,0.08,1.32,0.18,2.3,0.18c0.41,0,1.86-0.03,2.45-0.21c0.8-0.23,1.5-0.72,2.09-1.91c0.31-0.59,0.49-0.75,0.65-0.75
			c0.21,0,0.26,0.44,0.21,0.72c0,0.21-0.75,2.53-0.93,2.81c-0.08,0.1-0.36,0.28-0.49,0.28c-0.28,0-4.7-0.18-8.44-0.18
			c-1.42,0-1.94,0.13-2.89,0.13c-0.49,0-0.8-0.05-0.8-0.34c0-0.21,0.31-0.34,0.72-0.44c1.32-0.28,1.78-0.52,1.88-1.91
			c0.08-1.06,0.18-3.87,0.18-7.07c0-3.1,0.05-3.77,0-4.52c-0.08-1.08-0.34-1.45-1.45-1.68c-0.54-0.13-0.77-0.23-0.77-0.44
			c0-0.23,0.39-0.36,0.75-0.36c1.21,0,2.45,0.08,4.08,0.08H200.07z"/>
		<path class="st0" d="M206.46,35.94c0.59,0,2.01,0.08,3.33,0.08c0.15,0,0.41,0.18,0.57,0.34c0.39,0.46,1.03,1.27,2.04,2.56
			c1.19,1.5,6.74,7.46,8.39,9.27c0.15,0.15,0.26-0.1,0.26-0.18c0.13-0.8,0.05-3.61,0.05-7.02c0-0.88-0.08-1.83-0.13-2.61
			c-0.03-0.54-0.23-1.16-1.63-1.55c-0.52-0.15-0.72-0.34-0.72-0.57c0-0.18,0.34-0.26,0.7-0.26c0.65,0,1.34,0.03,2.12,0.03
			c0.98,0,1.86-0.1,2.53-0.1c0.44,0,0.59,0.1,0.59,0.28c0,0.18-0.15,0.41-0.62,0.52c-1.14,0.31-1.55,0.59-1.63,1.91
			c-0.08,0.9-0.28,6.32-0.28,10.27c0,1.08,0.18,3.1,0.18,3.56c0,0.26-0.18,0.54-0.39,0.54c-0.41,0-0.96-0.57-1.21-0.88
			c-0.44-0.57-0.93-1.21-1.63-2.07c-2.43-2.89-6.82-7.82-9.14-10.58c-0.1-0.13-0.31-0.05-0.31,0.05c0,0.7-0.1,1.42-0.1,3.43
			c0,2.58-0.1,6.12,0,7.02c0.08,1.11,0.36,1.52,1.63,1.88c0.52,0.13,0.65,0.31,0.65,0.46c0,0.26-0.34,0.36-0.83,0.36
			c-0.75,0-1.73-0.13-2.66-0.13c-0.57,0-1.39,0.05-1.83,0.05c-0.36,0-0.67-0.05-0.67-0.28c0-0.23,0.26-0.39,0.52-0.46
			c1.21-0.39,1.73-0.49,1.83-2.43c0.13-2.25,0.49-8.18,0.49-10.27c0-0.95-0.13-1.21-0.21-1.29c-0.65-0.77-0.9-0.9-2.12-1.19
			c-0.28-0.08-0.57-0.23-0.57-0.41C205.66,36.06,205.92,35.94,206.46,35.94z"/>
		<path class="st0" d="M240.08,35.96c1.01-0.05,1.45-0.21,1.81-0.44c0.18-0.1,0.28-0.18,0.39-0.18c0.13,0,0.26,0.23,0.13,0.59
			c-0.26,0.8-0.41,1.7-0.57,2.99c-0.03,0.23-0.23,0.52-0.44,0.52c-0.18,0-0.31-0.18-0.39-0.83c-0.18-1.37-0.52-1.5-2.04-1.58
			c-0.46-0.03-3.15-0.03-3.54,0.05c-0.1,0.03-0.21,0.26-0.21,0.34c0,1.21-0.03,3.9-0.03,6.12c0,2.99,0.03,5.5,0.13,6.53
			c0.1,1.08,0.23,1.47,1.88,1.81c0.34,0.08,0.67,0.31,0.67,0.46c0,0.28-0.46,0.34-0.72,0.34c-0.21,0-2.07-0.13-3.1-0.13
			c-1.21,0-2.66,0.18-3.02,0.18c-0.52,0-0.77-0.15-0.77-0.31c0-0.21,0.26-0.39,0.52-0.46c1.76-0.41,1.83-0.83,1.91-2.74
			c0.05-1.55,0.18-6.76,0.18-8.75v-3.07c0-0.18-0.15-0.34-0.23-0.34c-0.49-0.08-2.68-0.13-3.12-0.13c-0.88,0-1.45,0.18-1.83,0.59
			c-0.13,0.13-0.41,0.57-0.83,1.34c-0.26,0.54-0.41,0.57-0.52,0.57c-0.18,0-0.31-0.31-0.31-0.57c0-0.49,0.52-1.99,0.52-3.46
			c0-0.15,0.21-0.44,0.39-0.44c0.13,0,0.18,0.18,0.41,0.41c0.08,0.08,0.52,0.44,0.93,0.46c0.65,0.08,2.99,0.15,5.96,0.15
			C235.62,36.01,239.08,35.99,240.08,35.96z"/>
		<path class="st0" d="M252.87,36.01c0.85,0,1.96-0.03,2.38-0.1c0.08-0.03,0.21,0.18,0.23,0.31c0,1.03,0.05,1.99,0.05,2.5
			c0,0.36-0.18,0.7-0.41,0.7c-0.21,0-0.36-0.36-0.41-0.65c-0.34-1.37-0.93-1.65-1.7-1.78c-0.62-0.1-2.35-0.15-3.67-0.13
			c-0.05,0-0.34,0.13-0.36,0.75c-0.05,0.62-0.13,5.24-0.1,5.83c0.03,0.1,0.08,0.23,0.23,0.23h1.73c2.32,0,2.37-0.08,2.84-1.27
			c0.16-0.39,0.34-0.57,0.49-0.57c0.21,0,0.26,0.39,0.23,0.62c-0.05,0.7-0.08,1.21-0.08,1.83c0,0.7,0.05,1.06,0.08,1.63
			c0,0.46-0.1,0.72-0.31,0.72c-0.18,0-0.36-0.28-0.44-0.54c-0.36-1.19-0.52-1.29-1.96-1.37c-0.83-0.05-1.86-0.05-2.58-0.05
			c-0.1,0-0.23,0.18-0.23,0.23c-0.1,0.59-0.08,2.92-0.08,3.98c0,0.72,0.08,1.7,0.21,2.12c0.13,0.31,0.34,0.54,0.52,0.59
			c0.44,0.08,1.32,0.18,2.3,0.18c0.41,0,1.86-0.03,2.45-0.21c0.8-0.23,1.5-0.72,2.09-1.91c0.31-0.59,0.49-0.75,0.65-0.75
			c0.21,0,0.26,0.44,0.21,0.72c0,0.21-0.75,2.53-0.93,2.81c-0.08,0.1-0.36,0.28-0.49,0.28c-0.28,0-4.7-0.18-8.44-0.18
			c-1.42,0-1.94,0.13-2.89,0.13c-0.49,0-0.8-0.05-0.8-0.34c0-0.21,0.31-0.34,0.72-0.44c1.32-0.28,1.78-0.52,1.88-1.91
			c0.08-1.06,0.18-3.87,0.18-7.07c0-3.1,0.05-3.77,0-4.52c-0.08-1.08-0.34-1.45-1.45-1.68c-0.54-0.13-0.77-0.23-0.77-0.44
			c0-0.23,0.39-0.36,0.75-0.36c1.21,0,2.45,0.08,4.08,0.08H252.87z"/>
		<path class="st0" d="M269.02,43.71c-0.13,0.1-0.65,0.34-0.85,0.46c-0.1,0.05-0.15,0.31-0.1,0.39c0.31,0.7,2.48,4.21,3.98,5.91
			c0.7,0.83,1.42,1.27,2.48,1.5c0.23,0.05,0.44,0.26,0.44,0.36c0,0.13-0.23,0.26-0.39,0.31c-0.34,0.15-1.01,0.21-1.5,0.21
			c-1.45,0-2.81-0.77-3.51-1.68c-0.88-1.19-2.19-3.2-3.23-4.88c-0.36-0.52-0.83-1.16-0.98-1.24c-0.15-0.13-1.01-0.34-1.73-0.34
			c-0.15,0-0.28,0.21-0.31,0.28c-0.03,0.46,0.03,3.77,0.1,5.19c0.05,1.11,0.31,1.45,1.55,1.76c0.44,0.1,0.62,0.31,0.62,0.41
			c0,0.28-0.49,0.36-0.67,0.36c-1.03,0-1.68-0.16-3.33-0.16c-0.54,0-1.88,0.1-2.17,0.1c-0.39,0-0.7-0.13-0.7-0.39
			c0-0.18,0.23-0.26,0.57-0.39c1.16-0.36,1.57-0.54,1.65-1.5c0.08-1.03,0.15-3.64,0.15-5.34c0-3.72-0.03-6.04-0.15-7
			c-0.08-0.85-0.31-1.01-1.5-1.29c-0.39-0.08-0.62-0.23-0.62-0.44c0-0.18,0.18-0.31,0.7-0.31h1.55c0.96,0,2.84-0.13,4.23-0.13
			c1.65,0,3.2,0.21,4.29,1.11c0.83,0.67,1.45,1.96,1.45,3.18C271.03,41.56,270.26,42.91,269.02,43.71z M267.42,37.66
			c-0.62-0.59-1.68-0.98-2.48-0.98c-0.13,0-0.9,0.05-1.19,0.18c-0.13,0.05-0.31,0.46-0.31,0.54c-0.08,0.93-0.15,5.78-0.08,6.3
			c0.05,0.18,0.26,0.36,0.39,0.36c1.47,0,2.81-0.44,3.15-0.65c0.7-0.46,1.65-1.55,1.65-3.15C268.56,39.63,268.19,38.44,267.42,37.66
			z"/>
	</g>
	<g>
		<path class="st1" d="M60.43,20.14c0.58-0.03,0.88-0.13,1.1-0.29c0.11-0.06,0.16-0.1,0.23-0.1c0.08,0,0.15,0.15,0.06,0.37
			c-0.16,0.5-0.26,1.02-0.36,1.86c-0.02,0.15-0.15,0.31-0.28,0.31c-0.11,0-0.18-0.11-0.23-0.52c-0.1-0.84-0.31-0.92-1.31-0.97
			c-0.28-0.02-2.07-0.02-2.27,0.03c-0.08,0.02-0.15,0.18-0.15,0.21v3.97c0,1.88,0,3.42,0.06,4.02c0.08,0.73,0.16,0.92,1.17,1.15
			c0.21,0.05,0.44,0.18,0.44,0.29c0,0.18-0.29,0.19-0.45,0.19c-0.13,0-1.13-0.08-1.85-0.08c-0.81,0-1.64,0.11-1.85,0.11
			c-0.32,0-0.49-0.1-0.49-0.19c0-0.11,0.16-0.24,0.31-0.28c1.13-0.26,1.17-0.54,1.22-1.75c0.03-0.96,0.11-4.26,0.11-5.51v-1.93
			c0-0.13-0.08-0.21-0.13-0.21c-0.32-0.05-1.75-0.08-2.01-0.08c-0.62,0-0.96,0.1-1.2,0.37c-0.06,0.05-0.26,0.31-0.54,0.84
			c-0.15,0.34-0.24,0.32-0.31,0.32c-0.1,0-0.16-0.21-0.16-0.37c0-0.31,0.31-1.2,0.31-2.16c0-0.1,0.15-0.26,0.24-0.26
			c0.08,0,0.08,0.11,0.26,0.26c0.05,0.05,0.31,0.29,0.55,0.31c0.42,0.05,1.72,0.1,3.79,0.1C57.56,20.17,59.76,20.16,60.43,20.14z"/>
		<path class="st1" d="M62.31,23.24c0.41,0,0.86,0.05,1.39,0.05c0.52,0,1.02-0.05,1.46-0.05c0.23,0,0.36,0.06,0.36,0.19
			c0,0.11-0.1,0.18-0.36,0.26c-0.54,0.16-0.76,0.29-0.79,0.55c-0.05,0.31-0.05,1.01-0.03,2.12c0,0.05,0.06,0.18,0.15,0.18h1.67
			c0.7,0,1.72,0.02,1.96,0.02c0.1,0,0.18-0.03,0.19-0.44c0.02-0.5-0.02-1.3-0.03-1.75c-0.02-0.41-0.11-0.55-0.54-0.68
			c-0.31-0.08-0.41-0.18-0.41-0.32c0-0.05,0.03-0.13,0.41-0.13c0.41,0,0.57,0.05,1.22,0.05c0.45,0,1.09-0.03,1.52-0.07
			c0.15-0.02,0.26,0.02,0.26,0.13c0,0.11-0.11,0.24-0.37,0.32c-0.53,0.18-0.71,0.26-0.75,0.7c-0.02,0.45-0.06,2.29-0.06,3.16v1.02
			c0,1.26,0.16,1.43,0.84,1.64c0.36,0.1,0.41,0.24,0.41,0.32c0,0.08-0.11,0.15-0.26,0.15c-0.44,0-0.62-0.07-1.6-0.07
			c-0.45,0-0.89,0.05-1.35,0.05c-0.31,0-0.44-0.03-0.44-0.21c0-0.1,0.13-0.19,0.39-0.26c0.52-0.18,0.7-0.26,0.73-0.58
			c0.05-0.36,0.05-1.91,0.03-2.09c-0.02-0.16-0.02-0.18-0.16-0.21c-0.26-0.1-3.34-0.08-3.62-0.03c-0.11,0.02-0.18,0.1-0.19,0.16
			c-0.07,0.32-0.03,1.39,0.02,1.95c0.05,0.58,0.18,0.63,0.68,0.83c0.19,0.06,0.32,0.15,0.32,0.23c0,0.13-0.08,0.23-0.37,0.23
			c-0.71,0-1.07-0.05-1.57-0.05c-0.58,0-0.81,0.05-1.26,0.05c-0.29,0-0.42-0.1-0.42-0.21c0-0.13,0.13-0.18,0.34-0.24
			c0.65-0.18,0.88-0.26,0.94-0.68c0.05-0.44,0.06-1.36,0.06-2.14c0-1.6,0-2.5-0.05-2.93c-0.03-0.34-0.13-0.58-0.73-0.75
			c-0.28-0.08-0.39-0.16-0.39-0.29C61.9,23.33,62.05,23.24,62.31,23.24z"/>
		<path class="st1" d="M76.07,26.59c0.7,0,0.78-0.08,1-0.63c0.08-0.15,0.19-0.32,0.31-0.32c0.13,0,0.15,0.16,0.15,0.37
			c0,0.11-0.05,0.32-0.05,0.75c0,0.47,0.05,0.52,0.05,0.86c0,0.36-0.1,0.45-0.23,0.45c-0.1,0-0.18-0.13-0.26-0.32
			c-0.15-0.32-0.21-0.47-0.36-0.53c-0.19-0.06-1.15-0.1-1.41-0.06c-0.05,0-0.13,0.11-0.16,0.23c-0.05,0.29-0.07,1.93,0.03,2.32
			c0.02,0.06,0.21,0.23,0.28,0.26c0.1,0.06,0.6,0.18,0.97,0.18c0.37,0,0.83-0.03,1.04-0.1c0.5-0.15,0.7-0.23,1.17-0.96
			c0.13-0.21,0.23-0.32,0.32-0.32c0.16,0,0.16,0.28,0.16,0.36c0,0.26-0.32,1.26-0.44,1.43c-0.06,0.11-0.16,0.15-0.52,0.15
			c-1.52,0-1.51-0.08-3.73-0.08c-0.52,0-1.07,0.08-1.46,0.08c-0.21,0-0.49-0.05-0.49-0.21c0-0.15,0.19-0.23,0.37-0.28
			c0.91-0.21,0.94-0.41,0.99-0.97c0.03-0.44,0.05-1.49,0.05-2.55c0-0.75,0-1.57-0.03-2.27c-0.02-0.34-0.11-0.57-0.79-0.73
			c-0.19-0.05-0.39-0.13-0.39-0.28c0-0.11,0.18-0.18,0.44-0.18c0.29,0,0.81,0.07,1.43,0.07c3.11,0,3.18,0.02,3.57-0.07
			c0.1-0.02,0.19,0.08,0.19,0.15c0,0.47,0.11,1.15,0.11,1.38c0,0.19-0.11,0.29-0.16,0.29c-0.08,0-0.21-0.06-0.34-0.32
			c-0.29-0.6-0.49-0.81-0.99-0.88c-0.23-0.02-0.41-0.06-1.6-0.06c-0.07,0-0.13,0.15-0.15,0.21c-0.05,0.24-0.06,1.88-0.03,2.38
			c0,0.08,0.06,0.16,0.19,0.19C75.56,26.59,75.92,26.59,76.07,26.59z"/>
		<path class="st1" d="M84.69,20.13c0.68,0,1.07,0.05,1.67,0.05c0.6,0,1.22-0.03,1.57-0.03c0.31,0,0.5,0.05,0.5,0.18
			c0,0.13-0.18,0.24-0.49,0.31c-0.58,0.11-0.89,0.28-0.99,0.92c-0.08,0.53-0.06,2.22-0.06,4.52c0,1.83,0.41,2.53,0.91,3.1
			c0.45,0.5,1.51,0.89,2.35,0.89c1.05,0,2.63-0.49,3.03-2.27c0.19-0.86,0.36-2.22,0.36-4.07c0-1.05-0.05-1.9-0.07-2.09
			c-0.05-0.62-0.16-0.84-1.07-1.05c-0.16-0.03-0.34-0.18-0.34-0.29c0-0.1,0.1-0.16,0.37-0.16c0.41,0,0.86,0.05,1.38,0.05
			c0.66,0,1.01-0.03,1.46-0.03c0.26,0,0.41,0.05,0.41,0.18c0,0.1-0.13,0.21-0.36,0.29c-0.7,0.19-1.02,0.47-1.05,1.49
			c-0.02,0.7-0.11,2.5-0.15,3.34c-0.08,2.82-0.86,4.25-2.03,4.9c-0.75,0.42-1.62,0.52-2.33,0.52c-1.46,0-2.55-0.6-2.93-0.96
			c-0.91-0.86-1.3-2.04-1.3-4.77c0-2.33-0.05-3.63-0.06-3.84c-0.03-0.31-0.26-0.57-0.88-0.7c-0.19-0.05-0.37-0.13-0.37-0.28
			C84.22,20.19,84.43,20.13,84.69,20.13z"/>
		<path class="st1" d="M96.66,23.21c0.37,0,1.46,0.08,1.83,0.08c0.13,0,0.21,0.08,0.32,0.23c0.31,0.39,0.66,0.75,1.09,1.23
			c0.44,0.52,2.54,2.8,3.37,3.68c0.02,0.02,0.11,0.03,0.11-0.07c0.02-0.89,0.1-3.02,0.02-3.79c-0.05-0.47-0.23-0.73-1-0.91
			c-0.13-0.05-0.34-0.11-0.34-0.26c0-0.18,0.34-0.18,0.39-0.18c0.55,0,0.97,0.07,1.38,0.07c0.32,0,0.73-0.07,1.13-0.07
			c0.16,0,0.34,0.07,0.34,0.18c0,0.11-0.08,0.16-0.34,0.26c-0.63,0.18-0.76,0.39-0.83,1.02c-0.06,0.62-0.15,2.69-0.15,3.63
			c0,0.91,0.05,1.98,0.05,2.09c0,0.26-0.06,0.44-0.21,0.44c-0.11,0-0.36-0.13-0.49-0.24c-0.28-0.32-0.91-1.18-1.8-2.14
			c-0.75-0.81-1.88-2.2-2.84-3.21c-0.03-0.05-0.15-0.05-0.15,0.06c-0.02,0.55-0.1,2.9-0.02,3.97c0.05,0.52,0.42,0.75,0.91,0.91
			c0.18,0.06,0.29,0.13,0.29,0.24c0,0.16-0.23,0.21-0.37,0.21c-0.05,0-0.55-0.05-1-0.05c-0.41,0-1.09,0.1-1.44,0.1
			c-0.21,0-0.39-0.05-0.39-0.21c0-0.08,0.06-0.15,0.37-0.23c0.78-0.19,0.88-0.49,0.92-0.89c0.03-0.41,0.13-1.95,0.13-3.36
			c0-0.76-0.02-1.22-0.03-1.35c-0.02-0.13-0.26-0.54-0.58-0.78c-0.15-0.11-0.32-0.19-0.66-0.26c-0.29-0.05-0.42-0.13-0.42-0.26
			C96.25,23.3,96.45,23.21,96.66,23.21z"/>
		<path class="st1" d="M107.05,23.24c0.13,0.02,1.26,0.05,1.73,0.05c0.5,0,1.22-0.05,1.57-0.1c0.11-0.02,0.36,0.1,0.36,0.18
			c0,0.11-0.21,0.26-0.41,0.29c-0.78,0.23-0.84,0.36-0.88,0.94c-0.03,0.36-0.03,1.18-0.03,2.24c0,0.92,0,1.75,0.02,2.09
			c0.03,0.92,0.15,1.07,0.91,1.25c0.19,0.05,0.37,0.18,0.37,0.32c0,0.11-0.16,0.15-0.32,0.15c-0.45,0-0.89-0.05-1.59-0.05
			c-0.47,0-1.33,0.08-1.64,0.08c-0.24,0-0.39-0.06-0.39-0.18c0-0.15,0.24-0.26,0.39-0.31c0.78-0.19,0.92-0.37,0.96-0.99
			c0.02-0.29,0.03-0.79,0.03-1.33c0-1.7,0-2.84-0.02-3.1c-0.05-0.7-0.32-0.91-0.96-1.09c-0.29-0.1-0.34-0.21-0.34-0.31
			C106.83,23.32,106.87,23.22,107.05,23.24z"/>
		<path class="st1" d="M112.56,23.21c0.31,0,0.96,0.08,1.48,0.08c0.49,0,0.96-0.05,1.33-0.05c0.32,0,0.42,0.1,0.42,0.19
			c0,0.1-0.11,0.18-0.37,0.26c-0.63,0.13-0.6,0.41-0.45,0.78c0.21,0.52,0.45,1.18,0.79,2.01c0.37,0.83,0.76,1.91,0.96,2.12
			c0.06,0.06,0.13,0.15,0.19-0.03c0.19-0.45,1.26-3.08,1.52-3.83c0.24-0.73,0.21-0.91-0.44-1.07c-0.15-0.05-0.34-0.16-0.34-0.26
			c0-0.05,0.13-0.18,0.39-0.18c0.44,0,0.65,0.05,1.05,0.05c0.57,0,1.07-0.08,1.33-0.08c0.18,0,0.36,0.05,0.36,0.16
			c0,0.16-0.19,0.23-0.42,0.29c-0.52,0.13-0.83,0.39-1.23,1.15c-0.37,0.66-0.79,1.78-1.31,2.93c-0.78,1.72-1.04,2.55-1.12,2.74
			c-0.06,0.19-0.29,0.44-0.42,0.44c-0.11,0-0.21-0.18-0.24-0.32c-0.03-0.13-0.28-0.96-0.6-1.7c-0.37-0.86-1.51-3.57-1.99-4.52
			c-0.19-0.36-0.42-0.6-0.99-0.73c-0.15-0.05-0.36-0.13-0.36-0.24C112.09,23.24,112.34,23.21,112.56,23.21z"/>
		<path class="st1" d="M125.65,26.59c0.7,0,0.78-0.08,1.01-0.63c0.08-0.15,0.19-0.32,0.31-0.32c0.13,0,0.15,0.16,0.15,0.37
			c0,0.11-0.05,0.32-0.05,0.75c0,0.47,0.05,0.52,0.05,0.86c0,0.36-0.1,0.45-0.23,0.45c-0.1,0-0.18-0.13-0.26-0.32
			c-0.15-0.32-0.21-0.47-0.36-0.53c-0.19-0.06-1.15-0.1-1.41-0.06c-0.05,0-0.13,0.11-0.16,0.23c-0.05,0.29-0.06,1.93,0.03,2.32
			c0.02,0.06,0.21,0.23,0.28,0.26c0.1,0.06,0.6,0.18,0.97,0.18c0.37,0,0.83-0.03,1.04-0.1c0.5-0.15,0.7-0.23,1.17-0.96
			c0.13-0.21,0.23-0.32,0.32-0.32c0.16,0,0.16,0.28,0.16,0.36c0,0.26-0.32,1.26-0.44,1.43c-0.06,0.11-0.16,0.15-0.52,0.15
			c-1.52,0-1.51-0.08-3.73-0.08c-0.52,0-1.07,0.08-1.46,0.08c-0.21,0-0.49-0.05-0.49-0.21c0-0.15,0.19-0.23,0.37-0.28
			c0.91-0.21,0.94-0.41,0.99-0.97c0.03-0.44,0.05-1.49,0.05-2.55c0-0.75,0-1.57-0.03-2.27c-0.02-0.34-0.11-0.57-0.79-0.73
			c-0.19-0.05-0.39-0.13-0.39-0.28c0-0.11,0.18-0.18,0.44-0.18c0.29,0,0.81,0.07,1.43,0.07c3.11,0,3.18,0.02,3.57-0.07
			c0.1-0.02,0.19,0.08,0.19,0.15c0,0.47,0.11,1.15,0.11,1.38c0,0.19-0.11,0.29-0.16,0.29c-0.08,0-0.21-0.06-0.34-0.32
			c-0.29-0.6-0.49-0.81-0.99-0.88c-0.23-0.02-0.41-0.06-1.6-0.06c-0.06,0-0.13,0.15-0.15,0.21c-0.05,0.24-0.06,1.88-0.03,2.38
			c0,0.08,0.06,0.16,0.19,0.19C125.15,26.59,125.51,26.59,125.65,26.59z"/>
		<path class="st1" d="M130.67,23.25c0.39,0,0.73,0.02,0.91,0.02c0.39,0,1.02-0.06,2.37-0.06c1.05,0,1.77,0.24,2.11,0.6
			c0.41,0.37,0.58,0.79,0.58,1.28c0,1.13-0.91,1.64-1.39,1.78c-0.03,0.02-0.08,0.08-0.06,0.1c0.32,0.62,0.97,1.67,1.64,2.42
			c0.37,0.41,0.89,0.81,1.35,0.89c0.24,0.05,0.29,0.08,0.29,0.23c0,0.19-0.37,0.29-0.97,0.29c-0.66,0-1.26-0.23-1.96-1
			c-0.29-0.32-1.2-1.78-1.46-2.17c-0.15-0.23-0.62-0.44-0.99-0.44c-0.06,0-0.15,0.02-0.26,0.11c-0.03,0.03-0.07,0.08-0.07,0.13
			c0,0.34,0.02,1.2,0.05,2.07c0.02,0.49,0.29,0.55,0.71,0.68c0.13,0.03,0.32,0.11,0.32,0.24c0,0.19-0.28,0.23-0.44,0.23
			c-0.52,0-0.86-0.05-1.26-0.05c-0.5,0-1,0.11-1.51,0.11c-0.28,0-0.44-0.08-0.44-0.19c0-0.1,0.13-0.23,0.41-0.29
			c0.73-0.18,0.84-0.32,0.88-1.04c0.02-0.32,0.08-1.73,0.08-3.26c0-0.7,0.02-1.1-0.02-1.49c-0.03-0.34-0.05-0.6-0.86-0.73
			c-0.24-0.05-0.41-0.15-0.41-0.26C130.27,23.33,130.46,23.25,130.67,23.25z M132.96,23.76c-0.08,0.03-0.16,0.13-0.16,0.26
			c0,0.16-0.05,2.43-0.05,2.58c0,0.1,0.07,0.18,0.16,0.18c0.71,0,1.54-0.13,1.75-0.28c0.24-0.18,0.68-0.6,0.68-1.25
			c0-0.68-0.52-1.57-1.93-1.57C133.25,23.68,133.07,23.71,132.96,23.76z"/>
		<path class="st1" d="M144.52,23.29c0.11,0.02,0.16,0.21,0.16,0.39c0,0.47,0.02,0.84-0.02,1.05c-0.05,0.31-0.18,0.36-0.23,0.36
			c-0.15,0-0.21-0.19-0.26-0.39c-0.13-0.47-0.34-0.73-0.55-0.91c-0.21-0.18-0.58-0.32-0.97-0.32c-0.81,0-1.36,0.57-1.36,1.26
			c0,0.55,0.45,0.99,1.01,1.3c0.52,0.29,0.96,0.5,1.43,0.78c0.68,0.39,1.23,0.99,1.23,1.9c0,0.75-0.5,1.36-0.97,1.65
			c-0.34,0.23-1.09,0.5-1.8,0.5c-0.97,0-1.67-0.23-2.04-0.5c-0.13-0.08-0.16-0.24-0.18-0.34c-0.02-0.19-0.15-0.97-0.15-1.22
			c0-0.31,0.11-0.44,0.23-0.44c0.15,0,0.19,0.18,0.26,0.36c0.08,0.21,0.24,0.55,0.37,0.76c0.41,0.53,0.97,0.92,1.69,0.92
			c0.91,0,1.35-0.65,1.35-1.2c0-0.63-0.34-0.97-0.94-1.35c-0.49-0.29-0.92-0.52-1.28-0.75c-0.58-0.37-1.33-1.01-1.33-1.98
			c0-1.22,1-2.11,2.63-2.11C143.61,23.03,144.07,23.22,144.52,23.29z"/>
		<path class="st1" d="M146.84,23.24c0.13,0.02,1.26,0.05,1.73,0.05c0.5,0,1.22-0.05,1.57-0.1c0.11-0.02,0.36,0.1,0.36,0.18
			c0,0.11-0.21,0.26-0.41,0.29c-0.78,0.23-0.84,0.36-0.88,0.94c-0.03,0.36-0.03,1.18-0.03,2.24c0,0.92,0,1.75,0.02,2.09
			c0.03,0.92,0.15,1.07,0.91,1.25c0.19,0.05,0.37,0.18,0.37,0.32c0,0.11-0.16,0.15-0.32,0.15c-0.45,0-0.89-0.05-1.59-0.05
			c-0.47,0-1.33,0.08-1.64,0.08c-0.24,0-0.39-0.06-0.39-0.18c0-0.15,0.24-0.26,0.39-0.31c0.78-0.19,0.92-0.37,0.96-0.99
			c0.02-0.29,0.03-0.79,0.03-1.33c0-1.7,0-2.84-0.02-3.1c-0.05-0.7-0.32-0.91-0.96-1.09c-0.29-0.1-0.34-0.21-0.34-0.31
			C146.61,23.32,146.66,23.22,146.84,23.24z"/>
		<path class="st1" d="M157.09,23.29c1.83,0,1.98-0.11,2.38-0.37c0.06-0.03,0.24,0.05,0.24,0.24c-0.03,0.73,0.05,1.39,0.05,1.57
			c0,0.23-0.15,0.36-0.23,0.36c-0.11,0-0.21-0.11-0.26-0.29c-0.29-0.84-0.55-0.89-0.89-0.91c-0.34-0.02-1.25,0-1.77,0.05
			c-0.07,0-0.11,0.15-0.13,0.23c-0.03,0.24-0.03,2.04-0.03,3.7c0,0.89,0.03,1.43,0.11,1.7c0.1,0.37,0.24,0.44,0.91,0.62
			c0.29,0.07,0.41,0.16,0.41,0.28c0,0.11-0.23,0.21-0.44,0.21c-0.68,0-0.84-0.07-1.62-0.07c-0.42,0-1.3,0.08-1.7,0.08
			c-0.23,0-0.4-0.1-0.4-0.23s0.24-0.21,0.45-0.26c0.91-0.23,0.92-0.42,0.96-1.05c0.05-1.43,0.1-3.11,0.1-4.99
			c0-0.03-0.07-0.18-0.16-0.19c-0.29-0.05-1.3-0.13-1.64-0.1c-0.31,0.03-0.53,0.18-0.81,0.62c-0.19,0.29-0.24,0.44-0.37,0.44
			c-0.13,0-0.19-0.19-0.19-0.32c0.02-0.31,0.19-1.07,0.19-1.46c0-0.19,0.19-0.28,0.24-0.28c0.11,0,0.23,0.11,0.29,0.18
			c0.15,0.13,0.49,0.26,2.19,0.26H157.09z"/>
		<path class="st1" d="M161.48,23.21c0.32,0,1.12,0.08,1.61,0.08c0.55,0,0.79-0.05,1.13-0.05c0.19,0,0.37,0.08,0.37,0.18
			c0,0.13-0.16,0.24-0.36,0.29c-0.47,0.11-0.44,0.34-0.32,0.6c0.13,0.34,0.84,1.59,1.36,2.51c0.03,0.05,0.15,0.03,0.16,0
			c0.08-0.15,1.18-2.06,1.43-2.59c0.16-0.32,0.11-0.41-0.36-0.55c-0.29-0.08-0.34-0.16-0.34-0.26c0-0.1,0.15-0.18,0.39-0.18
			c0.41,0,0.44,0.05,0.91,0.05c0.26,0,1.18-0.07,1.28-0.07c0.15,0,0.39,0.05,0.39,0.16c0,0.18-0.26,0.28-0.39,0.29
			c-0.76,0.13-0.89,0.34-1.39,0.97c-0.44,0.54-1.26,1.95-1.59,2.59c-0.07,0.13-0.11,0.23-0.13,0.6c-0.02,0.36-0.02,1.3,0.02,1.67
			c0.05,0.39,0.24,0.53,0.78,0.66c0.26,0.07,0.45,0.11,0.45,0.26c0,0.11-0.13,0.21-0.42,0.21c-0.5,0-0.62-0.05-1.22-0.05
			c-0.45,0-1.28,0.08-1.86,0.08c-0.28,0-0.42-0.05-0.42-0.21c0-0.06,0.11-0.18,0.32-0.23c0.84-0.18,1.02-0.37,1.04-0.65
			c0.02-0.31,0.05-1.3,0.05-1.56c0-0.39-0.02-0.41-0.11-0.66c-0.21-0.53-1.18-2.2-1.54-2.67c-0.45-0.68-0.6-0.88-1.26-1.05
			c-0.24-0.06-0.36-0.16-0.36-0.28C161.09,23.3,161.24,23.21,161.48,23.21z"/>
		<path class="st1" d="M182.1,26.84c0,1.35-0.42,2.25-1.3,3.05c-0.89,0.84-2.2,0.97-2.61,0.97c-2.68,0-4.17-1.96-4.17-3.91
			c0-1.13,0.44-2.11,1.17-2.79c0.94-0.89,2.04-1.13,2.85-1.13C180.31,23.03,182.1,24.71,182.1,26.84z M176.29,24.24
			c-0.41,0.42-0.79,1.17-0.79,2.55c0,2.29,1.65,3.58,2.74,3.58c0.39,0,1.15-0.11,1.77-0.89c0.44-0.57,0.63-1.57,0.63-2.56
			c0-0.94-0.71-3.42-2.79-3.42C177.46,23.5,176.76,23.71,176.29,24.24z"/>
		<path class="st1" d="M183.81,23.22c0.44,0,1.01,0.07,1.59,0.07c0.65,0,3.45,0.03,3.65-0.03c0.06-0.02,0.18,0.11,0.18,0.16
			c0,0.42,0.03,0.88,0.03,1.2c0,0.36-0.11,0.45-0.23,0.45c-0.1,0-0.18-0.1-0.29-0.41c-0.23-0.62-0.44-0.71-0.65-0.78
			c-0.19-0.06-0.86-0.11-1.81-0.11c-0.1,0-0.23,0.16-0.23,0.26c-0.02,0.66-0.03,1.59-0.03,2.48c0,0.06,0.08,0.15,0.1,0.15
			c0.15,0.02,0.55-0.03,1.25-0.05c0.47-0.02,0.55-0.31,0.68-0.62c0.05-0.13,0.16-0.31,0.24-0.31c0.11,0,0.19,0.13,0.19,0.31
			c0,0.28-0.03,0.57-0.03,0.89c0,0.36,0.02,0.71,0.05,0.97c0.02,0.13-0.03,0.37-0.23,0.37c-0.1,0-0.19-0.16-0.27-0.36
			c-0.1-0.29-0.28-0.52-0.52-0.58c-0.18-0.05-0.71-0.08-1.35-0.08c-0.06,0-0.11,0.13-0.11,0.23c0,0.58,0,1.44,0.03,2.06
			c0.02,0.36,0.19,0.54,0.83,0.7c0.28,0.08,0.36,0.18,0.36,0.28c0,0.15-0.23,0.19-0.42,0.19c-0.19,0-1.09-0.07-1.61-0.07
			c-0.47,0-0.84,0.08-1.31,0.08c-0.23,0-0.45-0.05-0.45-0.16c0-0.11,0.16-0.26,0.44-0.32c0.65-0.15,0.75-0.26,0.83-0.84
			c0.03-0.24,0.06-1.75,0.06-3.26c0-0.5-0.03-1.56-0.05-1.75c-0.02-0.16-0.19-0.5-0.83-0.65c-0.39-0.1-0.45-0.18-0.45-0.31
			C183.44,23.32,183.59,23.22,183.81,23.22z"/>
		<path class="st1" d="M195.06,20.14c1.05,0,1.23,0.03,2.17,0.03c0.03,0,0.16,0.13,0.18,0.21c0.19,0.6,0.29,0.78,0.62,1.48
			c0.91,1.91,2.79,5.8,3.01,6.11c0.03,0.05,0.13,0.1,0.16,0.05c0.15-0.28,3.18-6,3.44-6.68c0.02-0.07,0.28-0.62,0.37-0.94
			c0.02-0.08,0.15-0.23,0.18-0.23c0.58,0,1.9-0.05,2.04-0.05c0.21,0,0.42,0.03,0.42,0.18c0,0.11-0.13,0.21-0.42,0.26
			c-0.26,0.05-0.49,0.11-0.73,0.21c-0.24,0.1-0.5,0.41-0.5,1.25c0,4.51,0.18,6.57,0.23,7.02c0.1,0.73,0.28,0.89,1.05,1.12
			c0.29,0.06,0.44,0.19,0.44,0.31c0,0.13-0.23,0.21-0.47,0.21c-0.18,0-1.43-0.08-2.03-0.08c-0.31,0-0.84,0.05-1.23,0.05
			c-0.18,0-0.44-0.06-0.44-0.23c0-0.15,0.19-0.23,0.42-0.29c0.66-0.19,0.7-0.57,0.75-1.17c0.06-0.73,0.03-5.43-0.02-6.26
			c0-0.11-0.07-0.21-0.16-0.05c-0.18,0.31-1.99,3.87-2.63,5.2c-0.39,0.84-0.76,1.69-1.01,2.32c-0.18,0.47-0.26,0.45-0.37,0.45
			c-0.1,0-0.19-0.13-0.24-0.31c-0.11-0.41-0.29-0.94-0.6-1.72c-0.88-2.14-2.2-4.7-2.8-6.08c-0.05-0.11-0.1-0.13-0.11,0.05
			c-0.13,0.68-0.31,4.77-0.26,6.26c0.03,0.83,0.16,1.05,0.99,1.31c0.36,0.1,0.44,0.16,0.44,0.31c0,0.13-0.18,0.19-0.44,0.19
			c-0.52,0-1.2-0.05-1.62-0.05c-0.39,0-0.89,0.05-1.3,0.05c-0.24,0-0.42-0.05-0.42-0.23c0-0.06,0.11-0.18,0.32-0.23
			c1-0.29,1.1-0.57,1.23-1.49c0.16-1.12,0.52-5.79,0.55-7c0-0.13-0.03-0.75-0.73-0.94c-0.28-0.08-0.49-0.15-0.7-0.19
			c-0.11-0.03-0.26-0.15-0.26-0.26C194.59,20.14,194.71,20.14,195.06,20.14z"/>
		<path class="st1" d="M209.59,23.24c0.13,0.02,1.26,0.05,1.73,0.05c0.5,0,1.22-0.05,1.57-0.1c0.11-0.02,0.36,0.1,0.36,0.18
			c0,0.11-0.21,0.26-0.41,0.29c-0.78,0.23-0.84,0.36-0.88,0.94c-0.03,0.36-0.03,1.18-0.03,2.24c0,0.92,0,1.75,0.02,2.09
			c0.03,0.92,0.15,1.07,0.91,1.25c0.19,0.05,0.37,0.18,0.37,0.32c0,0.11-0.16,0.15-0.32,0.15c-0.45,0-0.89-0.05-1.59-0.05
			c-0.47,0-1.33,0.08-1.64,0.08c-0.24,0-0.39-0.06-0.39-0.18c0-0.15,0.24-0.26,0.39-0.31c0.78-0.19,0.92-0.37,0.96-0.99
			c0.02-0.29,0.03-0.79,0.03-1.33c0-1.7,0-2.84-0.02-3.1c-0.05-0.7-0.32-0.91-0.96-1.09c-0.29-0.1-0.34-0.21-0.34-0.31
			C209.36,23.32,209.41,23.22,209.59,23.24z"/>
		<path class="st1" d="M219.67,23.29c0.11,0.02,0.16,0.21,0.16,0.39c0,0.47,0.02,0.84-0.02,1.05c-0.05,0.31-0.18,0.36-0.23,0.36
			c-0.15,0-0.21-0.19-0.26-0.39c-0.13-0.47-0.34-0.73-0.55-0.91c-0.21-0.18-0.58-0.32-0.97-0.32c-0.81,0-1.36,0.57-1.36,1.26
			c0,0.55,0.45,0.99,1,1.3c0.52,0.29,0.96,0.5,1.43,0.78c0.68,0.39,1.23,0.99,1.23,1.9c0,0.75-0.5,1.36-0.97,1.65
			c-0.34,0.23-1.09,0.5-1.8,0.5c-0.97,0-1.67-0.23-2.04-0.5c-0.13-0.08-0.16-0.24-0.18-0.34c-0.02-0.19-0.15-0.97-0.15-1.22
			c0-0.31,0.11-0.44,0.23-0.44c0.15,0,0.19,0.18,0.26,0.36c0.08,0.21,0.24,0.55,0.37,0.76c0.4,0.53,0.97,0.92,1.69,0.92
			c0.91,0,1.35-0.65,1.35-1.2c0-0.63-0.34-0.97-0.94-1.35c-0.49-0.29-0.92-0.52-1.28-0.75c-0.58-0.37-1.33-1.01-1.33-1.98
			c0-1.22,1-2.11,2.63-2.11C218.76,23.03,219.22,23.22,219.67,23.29z"/>
		<path class="st1" d="M226.78,23.29c0.11,0.02,0.16,0.21,0.16,0.39c0,0.47,0.02,0.84-0.02,1.05c-0.05,0.31-0.18,0.36-0.23,0.36
			c-0.15,0-0.21-0.19-0.26-0.39c-0.13-0.47-0.34-0.73-0.55-0.91c-0.21-0.18-0.58-0.32-0.97-0.32c-0.81,0-1.36,0.57-1.36,1.26
			c0,0.55,0.45,0.99,1,1.3c0.52,0.29,0.96,0.5,1.43,0.78c0.68,0.39,1.23,0.99,1.23,1.9c0,0.75-0.5,1.36-0.97,1.65
			c-0.34,0.23-1.09,0.5-1.8,0.5c-0.97,0-1.67-0.23-2.04-0.5c-0.13-0.08-0.16-0.24-0.18-0.34c-0.02-0.19-0.15-0.97-0.15-1.22
			c0-0.31,0.11-0.44,0.23-0.44c0.15,0,0.19,0.18,0.26,0.36c0.08,0.21,0.24,0.55,0.37,0.76c0.4,0.53,0.97,0.92,1.69,0.92
			c0.91,0,1.35-0.65,1.35-1.2c0-0.63-0.34-0.97-0.94-1.35c-0.49-0.29-0.92-0.52-1.28-0.75c-0.58-0.37-1.33-1.01-1.33-1.98
			c0-1.22,1-2.11,2.63-2.11C225.87,23.03,226.32,23.22,226.78,23.29z"/>
		<path class="st1" d="M229.1,23.24c0.13,0.02,1.26,0.05,1.73,0.05c0.5,0,1.22-0.05,1.57-0.1c0.11-0.02,0.36,0.1,0.36,0.18
			c0,0.11-0.21,0.26-0.4,0.29c-0.78,0.23-0.84,0.36-0.88,0.94c-0.03,0.36-0.03,1.18-0.03,2.24c0,0.92,0,1.75,0.02,2.09
			c0.03,0.92,0.15,1.07,0.91,1.25c0.19,0.05,0.37,0.18,0.37,0.32c0,0.11-0.16,0.15-0.32,0.15c-0.45,0-0.89-0.05-1.59-0.05
			c-0.47,0-1.33,0.08-1.64,0.08c-0.24,0-0.39-0.06-0.39-0.18c0-0.15,0.24-0.26,0.39-0.31c0.78-0.19,0.92-0.37,0.96-0.99
			c0.02-0.29,0.03-0.79,0.03-1.33c0-1.7,0-2.84-0.02-3.1c-0.05-0.7-0.32-0.91-0.96-1.09c-0.29-0.1-0.34-0.21-0.34-0.31
			C228.87,23.32,228.92,23.22,229.1,23.24z"/>
		<path class="st1" d="M239.17,23.29c0.11,0.02,0.16,0.21,0.16,0.39c0,0.47,0.02,0.84-0.02,1.05c-0.05,0.31-0.18,0.36-0.23,0.36
			c-0.15,0-0.21-0.19-0.26-0.39c-0.13-0.47-0.34-0.73-0.55-0.91c-0.21-0.18-0.58-0.32-0.97-0.32c-0.81,0-1.36,0.57-1.36,1.26
			c0,0.55,0.45,0.99,1,1.3c0.52,0.29,0.96,0.5,1.43,0.78c0.68,0.39,1.23,0.99,1.23,1.9c0,0.75-0.5,1.36-0.97,1.65
			c-0.34,0.23-1.09,0.5-1.8,0.5c-0.97,0-1.67-0.23-2.04-0.5c-0.13-0.08-0.16-0.24-0.18-0.34c-0.02-0.19-0.15-0.97-0.15-1.22
			c0-0.31,0.11-0.44,0.23-0.44c0.15,0,0.19,0.18,0.26,0.36c0.08,0.21,0.24,0.55,0.37,0.76c0.4,0.53,0.97,0.92,1.69,0.92
			c0.91,0,1.35-0.65,1.35-1.2c0-0.63-0.34-0.97-0.94-1.35c-0.49-0.29-0.92-0.52-1.28-0.75c-0.58-0.37-1.33-1.01-1.33-1.98
			c0-1.22,1-2.11,2.63-2.11C238.27,23.03,238.72,23.22,239.17,23.29z"/>
		<path class="st1" d="M246.28,23.29c0.11,0.02,0.16,0.21,0.16,0.39c0,0.47,0.02,0.84-0.02,1.05c-0.05,0.31-0.18,0.36-0.23,0.36
			c-0.15,0-0.21-0.19-0.26-0.39c-0.13-0.47-0.34-0.73-0.55-0.91c-0.21-0.18-0.58-0.32-0.97-0.32c-0.81,0-1.36,0.57-1.36,1.26
			c0,0.55,0.45,0.99,1,1.3c0.52,0.29,0.96,0.5,1.43,0.78c0.68,0.39,1.23,0.99,1.23,1.9c0,0.75-0.5,1.36-0.97,1.65
			c-0.34,0.23-1.09,0.5-1.8,0.5c-0.97,0-1.67-0.23-2.04-0.5c-0.13-0.08-0.16-0.24-0.18-0.34c-0.02-0.19-0.15-0.97-0.15-1.22
			c0-0.31,0.11-0.44,0.23-0.44c0.15,0,0.19,0.18,0.26,0.36c0.08,0.21,0.24,0.55,0.37,0.76c0.4,0.53,0.97,0.92,1.69,0.92
			c0.91,0,1.35-0.65,1.35-1.2c0-0.63-0.34-0.97-0.94-1.35c-0.49-0.29-0.92-0.52-1.28-0.75c-0.58-0.37-1.33-1.01-1.33-1.98
			c0-1.22,1-2.11,2.63-2.11C245.37,23.03,245.83,23.22,246.28,23.29z"/>
		<path class="st1" d="M248.6,23.24c0.13,0.02,1.26,0.05,1.73,0.05c0.5,0,1.22-0.05,1.57-0.1c0.11-0.02,0.36,0.1,0.36,0.18
			c0,0.11-0.21,0.26-0.41,0.29c-0.78,0.23-0.84,0.36-0.88,0.94c-0.03,0.36-0.03,1.18-0.03,2.24c0,0.92,0,1.75,0.02,2.09
			c0.03,0.92,0.15,1.07,0.91,1.25c0.19,0.05,0.37,0.18,0.37,0.32c0,0.11-0.16,0.15-0.32,0.15c-0.45,0-0.89-0.05-1.59-0.05
			c-0.47,0-1.33,0.08-1.64,0.08c-0.24,0-0.39-0.06-0.39-0.18c0-0.15,0.24-0.26,0.39-0.31c0.78-0.19,0.92-0.37,0.96-0.99
			c0.02-0.29,0.03-0.79,0.03-1.33c0-1.7,0-2.84-0.02-3.1c-0.05-0.7-0.32-0.91-0.96-1.09c-0.29-0.1-0.34-0.21-0.34-0.31
			C248.37,23.32,248.42,23.22,248.6,23.24z"/>
		<path class="st1" d="M254.49,23.25c0.34,0,0.7,0.03,1.02,0.03c0.55,0,1.22-0.07,1.67-0.07c1.07,0,1.8,0.23,2.2,0.58
			c0.5,0.45,0.73,1.04,0.73,1.67c0,0.75-0.4,1.33-0.81,1.67c-0.34,0.34-0.97,0.45-1.31,0.45c-0.18,0-0.34-0.03-0.5-0.08
			c-0.19-0.07-0.26-0.15-0.26-0.23c0-0.1,0.1-0.18,0.36-0.18c0.63,0,1.28-0.65,1.28-1.54c0-0.6-0.21-1.09-0.53-1.41
			c-0.29-0.29-0.84-0.52-1.17-0.52c-0.13,0-0.44,0.08-0.57,0.15c-0.05,0.03-0.11,0.18-0.13,0.26c-0.08,0.62-0.03,4.8-0.03,5.14
			c0,0.66,0.18,0.84,0.89,1.01c0.18,0.05,0.34,0.13,0.34,0.24c0,0.16-0.28,0.21-0.4,0.21c-0.66,0-0.96-0.05-1.26-0.05
			c-0.42,0-1.25,0.07-1.72,0.07c-0.26,0-0.39-0.05-0.39-0.19c0-0.1,0.08-0.18,0.39-0.28c0.6-0.15,0.83-0.29,0.88-0.88
			c0.03-0.41,0.05-0.63,0.05-1.13c0-0.34-0.02-3.42-0.03-3.76c-0.02-0.39-0.05-0.55-0.79-0.7c-0.21-0.05-0.34-0.15-0.34-0.26
			C254.03,23.29,254.34,23.25,254.49,23.25z"/>
		<path class="st1" d="M261.97,23.25c0.34,0,0.7,0.03,1.02,0.03c0.55,0,1.22-0.07,1.67-0.07c1.07,0,1.8,0.23,2.2,0.58
			c0.5,0.45,0.73,1.04,0.73,1.67c0,0.75-0.4,1.33-0.81,1.67c-0.34,0.34-0.97,0.45-1.31,0.45c-0.18,0-0.34-0.03-0.5-0.08
			c-0.19-0.07-0.26-0.15-0.26-0.23c0-0.1,0.1-0.18,0.36-0.18c0.63,0,1.28-0.65,1.28-1.54c0-0.6-0.21-1.09-0.53-1.41
			c-0.29-0.29-0.84-0.52-1.17-0.52c-0.13,0-0.44,0.08-0.57,0.15c-0.05,0.03-0.11,0.18-0.13,0.26c-0.08,0.62-0.03,4.8-0.03,5.14
			c0,0.66,0.18,0.84,0.89,1.01c0.18,0.05,0.34,0.13,0.34,0.24c0,0.16-0.28,0.21-0.4,0.21c-0.66,0-0.96-0.05-1.26-0.05
			c-0.42,0-1.25,0.07-1.72,0.07c-0.26,0-0.39-0.05-0.39-0.19c0-0.1,0.08-0.18,0.39-0.28c0.6-0.15,0.83-0.29,0.88-0.88
			c0.03-0.41,0.05-0.63,0.05-1.13c0-0.34-0.02-3.42-0.03-3.76c-0.02-0.39-0.05-0.55-0.79-0.7c-0.21-0.05-0.34-0.15-0.34-0.26
			C261.52,23.29,261.83,23.25,261.97,23.25z"/>
		<path class="st1" d="M269.14,23.24c0.13,0.02,1.26,0.05,1.73,0.05c0.5,0,1.22-0.05,1.57-0.1c0.11-0.02,0.36,0.1,0.36,0.18
			c0,0.11-0.21,0.26-0.4,0.29c-0.78,0.23-0.84,0.36-0.88,0.94c-0.03,0.36-0.03,1.18-0.03,2.24c0,0.92,0,1.75,0.02,2.09
			c0.03,0.92,0.15,1.07,0.91,1.25c0.19,0.05,0.37,0.18,0.37,0.32c0,0.11-0.16,0.15-0.32,0.15c-0.45,0-0.89-0.05-1.59-0.05
			c-0.47,0-1.33,0.08-1.64,0.08c-0.24,0-0.39-0.06-0.39-0.18c0-0.15,0.24-0.26,0.39-0.31c0.78-0.19,0.92-0.37,0.96-0.99
			c0.02-0.29,0.03-0.79,0.03-1.33c0-1.7,0-2.84-0.02-3.1c-0.05-0.7-0.32-0.91-0.96-1.09c-0.29-0.1-0.34-0.21-0.34-0.31
			C268.92,23.32,268.96,23.22,269.14,23.24z"/>
	</g>
	<g>
		<path class="st2" d="M19.49,54.94c0.03,0,0.06,0,0.08,0C19.55,54.94,19.52,54.94,19.49,54.94C19.49,54.94,19.49,54.94,19.49,54.94
			z"/>
		<path class="st2" d="M41.99,18.48c0,0-0.54,4.08-3.41,10.28c-0.24,17.31-7.41,22.52-13.43,23.47c0.02,0,0.03,0,0.03,0
			c-2.13,0.74-4.33,0.99-6.5,0.81c0.35,0.63,0.72,1.27,1.11,1.89c2.03-0.05,4.92-0.25,6.84-0.66
			C26.62,54.27,47.85,44.11,41.99,18.48z"/>
		<path class="st0" d="M16.7,5.03L12.08,0C-3.39,19.07-2.04,35.97,5.24,45.34C3.13,37.67,1.45,20.23,16.7,5.03z"/>
		<path class="st0" d="M37.7,15.94l-11-3.7c10.3,27.78-2.36,36.23-6.75,38.62c-0.95-0.35-1.96-0.79-3-1.33
			c0.5,1.18,1.07,2.35,1.71,3.51c2.17,0.18,4.37-0.07,6.5-0.81c0,0-0.01,0-0.03,0c6.03-0.95,13.2-6.16,13.43-23.47
			C38.63,25.06,38.36,20.81,37.7,15.94z"/>
		<path class="st3" d="M16.96,49.53C7.14,26.45,22.48,0.02,22.48,0.02c-2.15,1.63-4.07,3.31-5.78,5.01
			C1.45,20.23,3.13,37.67,5.24,45.34c0.61,2.2,1.25,3.6,1.54,3.91c3.45,3.71,8.36,5.04,10.96,5.5c0.68,0.12,1.21,0.18,1.75,0.19
			c0.03,0,0.06,0,0.09,0c0.07,0,0.14,0,0.21,0c0,0,0-0.01-0.01-0.01c-0.39-0.63-0.76-1.26-1.11-1.89
			C18.03,51.88,17.46,50.71,16.96,49.53z"/>
	</g>
</g>
<g>
	<path class="st0" d="M272.77,36.23h-0.9v-0.32h2.18v0.32h-0.9v2.63h-0.39V36.23z"/>
	<path class="st0" d="M276.75,37.56c-0.02-0.41-0.05-0.91-0.05-1.27h-0.01c-0.11,0.34-0.22,0.71-0.37,1.12l-0.52,1.43h-0.29
		l-0.48-1.4c-0.14-0.42-0.25-0.8-0.34-1.15h-0.01c-0.01,0.37-0.03,0.86-0.06,1.3l-0.08,1.26h-0.36l0.2-2.95h0.49l0.5,1.43
		c0.12,0.36,0.22,0.69,0.3,0.99h0.01c0.08-0.3,0.18-0.62,0.32-0.99l0.52-1.43h0.49l0.18,2.95h-0.38L276.75,37.56z"/>
</g>
</svg>
