<svg xmlns="http://www.w3.org/2000/svg" width="153.864" height="18.13" viewBox="0 0 153.864 18.13">
  <g id="Grupo_1854" data-name="Grupo 1854" transform="translate(-117.5 -27)">
    <g id="Grupo_1852" data-name="Grupo 1852" transform="translate(117.5 27)">
      <path id="Trazado_2052" data-name="Trazado 2052" d="M422.564,612.764c1.143,0,1.336.034,2.355.034a.418.418,0,0,1,.193.218,10.449,10.449,0,0,0,.668,1.526c.984,1.979,3.023,6,3.269,6.321.035.05.14.1.175.05.158-.285,3.444-6.2,3.726-6.908.017-.067.3-.637.4-.973a.468.468,0,0,1,.193-.235c.633,0,2.056-.05,2.214-.05.229,0,.457.034.457.184,0,.117-.14.218-.457.268a4.238,4.238,0,0,0-.791.218c-.263.1-.544.419-.544,1.291,0,4.662.193,6.791.246,7.261.105.754.3.922,1.143,1.157.316.067.474.2.474.319,0,.134-.246.218-.51.218-.193,0-1.546-.084-2.2-.084-.334,0-.914.05-1.336.05-.193,0-.474-.067-.474-.235,0-.151.211-.235.457-.3.721-.2.756-.587.809-1.207.07-.754.035-5.617-.018-6.473,0-.117-.07-.218-.175-.05-.194.319-2.162,4.008-2.847,5.383-.422.872-.826,1.744-1.09,2.4-.193.486-.281.469-.4.469-.105,0-.211-.134-.264-.319a17.713,17.713,0,0,0-.65-1.777c-.949-2.214-2.39-4.863-3.04-6.288-.053-.118-.105-.134-.123.05a60.5,60.5,0,0,0-.281,6.473c.035.855.176,1.09,1.072,1.358.386.1.474.168.474.319,0,.134-.193.2-.474.2-.562,0-1.3-.05-1.757-.05-.421,0-.967.05-1.406.05-.264,0-.457-.05-.457-.235,0-.067.123-.184.352-.235,1.09-.3,1.195-.587,1.335-1.543.176-1.157.563-5.987.6-7.244a.988.988,0,0,0-.791-.973c-.3-.084-.527-.151-.755-.2-.123-.033-.281-.151-.281-.268,0-.168.123-.168.509-.168" transform="translate(-394.139 -606.279)" fill="#8c8b8b"/>
      <path id="Trazado_2053" data-name="Trazado 2053" d="M451.293,612.766c1.09,0,1.275.034,2.247.034a.41.41,0,0,1,.185.218,10.675,10.675,0,0,0,.637,1.526c.939,1.979,2.884,6,3.119,6.322.034.05.134.1.167.05.151-.285,3.287-6.2,3.555-6.909.017-.067.285-.637.386-.973a.464.464,0,0,1,.184-.235c.6,0,1.962-.05,2.113-.05.218,0,.436.034.436.184,0,.118-.134.218-.436.268a3.9,3.9,0,0,0-.754.218c-.251.1-.52.419-.52,1.291,0,4.662.184,6.792.235,7.261.1.755.285.922,1.09,1.157.3.067.453.2.453.319,0,.134-.235.218-.486.218-.185,0-1.476-.083-2.1-.083-.319,0-.872.05-1.275.05-.185,0-.453-.068-.453-.235,0-.151.2-.235.436-.3.687-.2.721-.587.771-1.207.067-.755.034-5.617-.017-6.473,0-.117-.067-.218-.168-.05-.185.319-2.063,4.008-2.717,5.383-.4.872-.788,1.744-1.039,2.4-.185.487-.269.469-.386.469-.1,0-.2-.134-.251-.318a18.262,18.262,0,0,0-.62-1.778c-.906-2.213-2.281-4.863-2.9-6.288-.05-.118-.1-.134-.118.05a63.376,63.376,0,0,0-.268,6.473c.034.856.167,1.09,1.023,1.359.369.1.453.167.453.319,0,.134-.185.2-.453.2-.537,0-1.241-.05-1.677-.05-.4,0-.922.05-1.341.05-.251,0-.436-.05-.436-.235,0-.067.118-.185.335-.235,1.039-.3,1.14-.587,1.275-1.543.167-1.157.536-5.987.57-7.244a.985.985,0,0,0-.755-.973c-.285-.084-.5-.151-.721-.2-.118-.033-.268-.151-.268-.268,0-.167.117-.167.486-.167" transform="translate(-409.489 -606.28)" fill="#003b82"/>
      <path id="Trazado_2054" data-name="Trazado 2054" d="M486.793,612.432c.426.067,1,.283,1.248.317.082,0,.246.117.246.5,0,.35.082,1.083.115,1.45.016.35-.115.55-.246.55-.082,0-.181-.183-.263-.433a2.593,2.593,0,0,0-.673-1.25,4.063,4.063,0,0,0-2.626-.866,4.446,4.446,0,0,0-4.334,4.733,6.142,6.142,0,0,0,.574,2.75,4.729,4.729,0,0,0,4.153,2.666,3.632,3.632,0,0,0,3.316-2.067c.213-.35.279-.433.345-.433.164,0,.181.366.147.55a6.071,6.071,0,0,1-.656,1.683,1.32,1.32,0,0,1-.509.433,9.788,9.788,0,0,1-2.987.467,6.31,6.31,0,0,1-4.662-1.95A5.675,5.675,0,0,1,478.6,617.7a5.581,5.581,0,0,1,1.805-4,6.7,6.7,0,0,1,4.448-1.534,8.988,8.988,0,0,1,1.937.267" transform="translate(-424.55 -605.968)" fill="#003b82"/>
      <path id="Trazado_2055" data-name="Trazado 2055" d="M398.555,612.747c.738,0,1.16.05,1.81.05s1.318-.034,1.7-.034c.334,0,.544.05.544.185s-.193.251-.527.318c-.633.118-.966.285-1.072.956-.088.553-.07,2.3-.07,4.678,0,1.9.439,2.616.984,3.2a3.977,3.977,0,0,0,2.548.922,3.186,3.186,0,0,0,3.286-2.348,19.062,19.062,0,0,0,.387-4.209c0-1.09-.053-1.962-.07-2.163-.053-.637-.176-.872-1.16-1.09-.176-.034-.369-.185-.369-.3,0-.1.105-.167.4-.167.439,0,.931.05,1.494.05.72,0,1.089-.034,1.582-.034.281,0,.439.05.439.185,0,.1-.141.218-.387.3-.756.2-1.107.487-1.142,1.543-.018.721-.123,2.582-.158,3.455-.088,2.918-.932,4.393-2.2,5.064a5.4,5.4,0,0,1-2.53.536,5.184,5.184,0,0,1-3.181-.99c-.984-.889-1.406-2.113-1.406-4.93,0-2.414-.053-3.756-.07-3.974-.035-.319-.281-.587-.949-.721-.211-.05-.4-.134-.4-.285,0-.134.228-.2.509-.2" transform="translate(-381.575 -606.279)" fill="#8c8b8b"/>
      <path id="Trazado_2056" data-name="Trazado 2056" d="M383.588,611.917a13.031,13.031,0,0,1-1.123,3.382c-.078,5.7-2.439,7.413-4.422,7.725h.011a5.2,5.2,0,0,1-2.139.267c.115.209.236.416.365.622a13.839,13.839,0,0,0,2.251-.219,10.239,10.239,0,0,0,5.056-11.779" transform="translate(-369.769 -605.836)" fill="#8c8b8b"/>
      <path id="Trazado_2057" data-name="Trazado 2057" d="M368.236,600.536l-1.52-1.654c-5.093,6.276-4.647,11.839-2.251,14.923a13.544,13.544,0,0,1,3.771-13.269" transform="translate(-362.741 -598.882)" fill="#003b82"/>
      <path id="Trazado_2058" data-name="Trazado 2058" d="M381.534,608.734l-3.619-1.219c3.39,9.143-.779,11.925-2.222,12.711a8.607,8.607,0,0,1-.985-.437,12.6,12.6,0,0,0,.563,1.156,5.2,5.2,0,0,0,2.139-.267H377.4c1.984-.313,4.344-2.027,4.422-7.725a28.614,28.614,0,0,0-.287-4.217" transform="translate(-369.125 -603.487)" fill="#003b82"/>
      <path id="Trazado_2059" data-name="Trazado 2059" d="M369.785,615.19c-3.234-7.6,1.815-16.3,1.815-16.3a18.444,18.444,0,0,0-1.9,1.648,13.545,13.545,0,0,0-3.77,13.269,4.381,4.381,0,0,0,.506,1.288,6.568,6.568,0,0,0,3.609,1.809,3.678,3.678,0,0,0,.576.061h.1l0,0c-.129-.206-.25-.414-.365-.622a12.6,12.6,0,0,1-.564-1.156" transform="translate(-364.203 -598.889)" fill="#bababa"/>
      <text id="TM" transform="translate(64.39 7.572)" fill="#003b82" font-size="1" font-family="Helvetica"><tspan x="0" y="0">TM</tspan></text>
    </g>
    <line id="Línea_35" data-name="Línea 35" y1="16.116" transform="translate(191.633 29.014)" fill="none" stroke="#e6e6e6" stroke-width="2"/>
    <g id="Grupo_1853" data-name="Grupo 1853" transform="translate(198.959 36.041)">
      <path id="Trazado_1980" data-name="Trazado 1980" d="M151.232,50.04a1.586,1.586,0,0,1-1.512,1.572,1.551,1.551,0,0,1-1.543-1.572,1.529,1.529,0,1,1,3.055,0" transform="translate(-105.954 -46.7)" fill="#e6e6e6"/>
      <g id="Grupo_1846" data-name="Grupo 1846" transform="translate(0 0)">
        <path id="Trazado_1982" data-name="Trazado 1982" d="M130.357,47.441a4,4,0,0,0,.179.805c.209.537,1.461,3.728,1.849,4.548.327.746.435.878,1.045,1.03.282.073.386.15.386.236,0,.12-.15.24-.315.24-.7,0-1.357-.075-1.845-.075-.374,0-.612.045-1.089.045-.238,0-.374-.1-.374-.224,0-.09.106-.15.358-.209.447-.118.595-.344.595-.52a8.332,8.332,0,0,0-.341-1.075c-.031-.075-.1-.136-.36-.15-.193-.016-1.235-.03-1.743,0-.254.014-.388.014-.449.1a3.5,3.5,0,0,0-.327,1.059c0,.3.089.433.581.595.179.045.329.09.329.226s-.163.193-.357.193c-.4,0-.689-.045-1.059-.045-.508,0-.878.075-1.252.075-.165,0-.317-.061-.317-.179s.151-.193.36-.252c.537-.136.748-.3,1.1-.986.266-.506,1.443-3.294,1.669-3.829a4.92,4.92,0,0,0,.327-.955.639.639,0,0,1,.179-.254c.1-.134.3-.254.417-.4s.207-.179.268-.179a.191.191,0,0,1,.179.179m.1,3.862-.847-2.163c0-.014-.122-.057-.155,0-.264.685-.652,1.6-.878,2.207,0,.045.047.122.106.122.3.014,1.416.028,1.669,0a.157.157,0,0,0,.1-.165" transform="translate(-117.678 -47.069)" fill="#003b82"/>
        <path id="Trazado_1983" data-name="Trazado 1983" d="M131.659,47.4c.388,0,.732.017.894.017.358,0,.955-.061,2.205-.061a2.842,2.842,0,0,1,1.97.551,1.536,1.536,0,0,1,.536,1.177A1.741,1.741,0,0,1,136,50.726c-.03.016-.077.075-.063.09a11.762,11.762,0,0,0,1.508,2.221,2.293,2.293,0,0,0,1.223.805c.195.045.268.089.268.21,0,.177-.356.3-.939.3a2.394,2.394,0,0,1-1.878-.925c-.252-.3-1.042-1.6-1.343-2.012a1.109,1.109,0,0,0-.833-.388.323.323,0,0,0-.223.089.192.192,0,0,0-.078.134c0,.3.017,1.1.045,1.864.033.447.27.522.657.64.12.031.313.122.313.226,0,.179-.252.223-.4.223-.447,0-.807-.043-1.209-.043-.5,0-.955.1-1.414.1-.256,0-.419-.09-.419-.195,0-.089.136-.21.374-.268.656-.165.76-.3.777-.941.014-.3.073-1.536.073-2.878,0-.729.014-1.1-.016-1.461-.028-.313-.043-.551-.76-.685-.223-.045-.386-.15-.386-.237,0-.122.191-.2.386-.2m2.177.494a.251.251,0,0,0-.151.223c0,.148-.045,2.189-.045,2.341.017.089.061.163.165.163a3.9,3.9,0,0,0,1.553-.254,1.358,1.358,0,0,0,.61-1.116,1.522,1.522,0,0,0-1.73-1.431,1.06,1.06,0,0,0-.4.075" transform="translate(-113.719 -46.999)" fill="#003b82"/>
        <path id="Trazado_1984" data-name="Trazado 1984" d="M139.739,50.468c.638,0,.715-.09.937-.6.061-.148.165-.3.283-.3s.132.148.132.357c0,.1-.042.329-.042.7,0,.43.042.489.042.817,0,.313-.1.4-.219.4-.092,0-.165-.12-.24-.313-.132-.3-.195-.433-.327-.492a5.59,5.59,0,0,0-1.269-.061c-.057,0-.118.1-.148.209a9.714,9.714,0,0,0,.03,2.089,1.053,1.053,0,0,0,.237.268,3.046,3.046,0,0,0,.911.15,3.906,3.906,0,0,0,.925-.09,1.715,1.715,0,0,0,1.1-.91c.118-.177.193-.282.3-.282.134,0,.15.254.15.327a4.562,4.562,0,0,1-.4,1.327c-.059.1-.163.15-.447.15-1.28,0-1.459-.075-3.5-.075-.478,0-1.045.075-1.4.075-.223,0-.477-.059-.477-.21,0-.132.207-.207.372-.252.8-.179.833-.358.894-.894.031-.417.047-1.358.047-2.311,0-.687,0-1.476-.03-2.087-.017-.313-.108-.522-.717-.671-.181-.043-.36-.118-.36-.254,0-.1.15-.177.4-.177.27,0,.779.057,1.374.057a22.613,22.613,0,0,0,3.325-.057.162.162,0,0,1,.179.134c0,.433.1,1.012.118,1.252.014.207-.118.327-.181.327s-.19-.09-.311-.343c-.254-.537-.463-.744-.939-.79a9.037,9.037,0,0,0-1.429-.059c-.075,0-.122.132-.136.207a16.253,16.253,0,0,0-.03,2.163.2.2,0,0,0,.165.177c.223.017.534.031.685.031" transform="translate(-109.95 -46.993)" fill="#003b82"/>
        <path id="Trazado_1985" data-name="Trazado 1985" d="M145.034,47.483c.09.014.132.191.132.341,0,.431.017.836-.012,1.029-.045.283-.163.329-.224.329-.136,0-.177-.163-.223-.343a1.609,1.609,0,0,0-.506-.85,1.486,1.486,0,0,0-.911-.315,1.135,1.135,0,0,0-1.223,1.1,1.472,1.472,0,0,0,.864,1.163c.492.268.908.476,1.356.746a1.993,1.993,0,0,1,1.148,1.744,1.937,1.937,0,0,1-.922,1.579,3.457,3.457,0,0,1-1.685.449,3.536,3.536,0,0,1-1.894-.449.4.4,0,0,1-.179-.313c-.014-.179-.118-.908-.118-1.148,0-.27.09-.417.205-.417.136,0,.179.179.256.357a3.7,3.7,0,0,0,.358.689,1.915,1.915,0,0,0,1.536.847,1.114,1.114,0,0,0,1.209-1.073c0-.567-.329-.878-.836-1.191-.449-.268-.892-.492-1.209-.7a2.269,2.269,0,0,1-1.221-1.833c0-1.12.91-1.969,2.475-1.969a9.164,9.164,0,0,1,1.624.224" transform="translate(-106.752 -47.071)" fill="#003b82"/>
        <path id="Trazado_2046" data-name="Trazado 2046" d="M411.456,576.4a4.834,4.834,0,0,1,3.089-.984,9.058,9.058,0,0,1,2.213.34c.062.014.17.369.17.4,0,.4.093,1.106.093,1.214a.311.311,0,0,1-.264.323c-.062,0-.093-.062-.168-.2a3.047,3.047,0,0,0-.493-.893,2.409,2.409,0,0,0-1.767-.721,2.713,2.713,0,0,0-1.753.706,3.459,3.459,0,0,0-.814,2.306,3.526,3.526,0,0,0,.924,2.519,3.086,3.086,0,0,0,1.935.908,1.919,1.919,0,0,0,1.676-.8c.108-.168.244-.338.366-.553a.628.628,0,0,1,.4-.338c.079,0,.141.139.124.2-.124.386-.34,1.216-.414,1.43-.017.079-.216.2-.354.263a6.458,6.458,0,0,1-2.074.323,4.568,4.568,0,0,1-3.168-1.171,3.59,3.59,0,0,1-1.015-2.55,3.533,3.533,0,0,1,1.293-2.72" transform="translate(-410.163 -575.42)" fill="#003b82"/>
      </g>
      <g id="Grupo_1847" data-name="Grupo 1847" transform="translate(48.817 0.274)">
        <path id="Trazado_1987" data-name="Trazado 1987" d="M163.481,47.353c.118.014,1.146.045,1.579.045a14.6,14.6,0,0,0,1.489-.089c.122-.014.316.089.316.163,0,.1-.195.238-.358.283-.718.195-.762.313-.805.849-.014.329-.014,1.165-.014,2.134,0,.79,0,1.534.014,1.849.03.833.1.969.805,1.134.179.059.341.162.341.3,0,.118-.148.148-.311.148-.447,0-.835-.043-1.447-.043-.435,0-1.282.073-1.565.073-.226,0-.358-.059-.358-.163,0-.134.21-.252.343-.282.716-.179.835-.358.866-.941.014-.268.03-.76.03-1.266,0-1.551,0-2.534-.016-2.8-.045-.6-.27-.79-.821-.955-.27-.089-.327-.193-.327-.3,0-.075.057-.15.24-.136" transform="translate(-152.828 -47.308)" fill="#003b82"/>
        <path id="Trazado_1988" data-name="Trazado 1988" d="M166.772,47.315c.271,0,.847.071,1.306.071.431,0,.849-.042,1.181-.042.287,0,.374.087.374.172s-.1.157-.332.231c-.562.113-.532.358-.4.689.186.459.4,1.049.7,1.784a16.961,16.961,0,0,0,.849,1.882c.057.059.115.13.172-.028.172-.4,1.12-2.732,1.351-3.393.216-.649.188-.805-.388-.95-.13-.043-.3-.144-.3-.23,0-.043.117-.158.348-.158.386,0,.572.042.932.042.5,0,.95-.071,1.177-.071.16,0,.318.042.318.144,0,.143-.172.2-.374.259-.459.113-.732.344-1.094,1.019-.329.591-.7,1.583-1.163,2.6-.69,1.525-.92,2.257-.991,2.431s-.261.388-.374.388-.188-.158-.216-.287a12.755,12.755,0,0,0-.532-1.509c-.332-.762-1.337-3.163-1.769-4.012a1.167,1.167,0,0,0-.878-.647c-.129-.042-.317-.115-.317-.216,0-.143.217-.172.419-.172" transform="translate(-150.472 -47.303)" fill="#003b82"/>
        <path id="Trazado_2047" data-name="Trazado 2047" d="M466.479,575.514c.372,0,.834.044,1.31.044s.971-.044,1.373-.044c.223,0,.344.06.344.179s-.1.179-.344.253c-.476.149-.671.269-.715.506-.044.283-.03.985-.03,1.923,0,.044.074.165.151.165.044,0,.757.014,1.414.014h1.788c.088,0,.167-.03.179-.416.03-.448,0-1.163-.012-1.565-.016-.374-.107-.508-.495-.627-.283-.074-.388-.179-.388-.313,0-.044.047-.118.388-.118.372,0,.553.044,1.164.044.418,0,1.043-.03,1.447-.058.146-.016.237.028.237.118s-.091.239-.358.314c-.49.148-.639.237-.671.641-.014.416-.058,2.041-.058,2.831,0,.2,0,.7.014,1.029,0,1.089.135,1.282.746,1.461.328.1.386.239.386.313s-.116.132-.267.132c-.4,0-.6-.058-1.5-.058-.418,0-.834.044-1.252.044-.283,0-.418-.044-.418-.207,0-.077.119-.165.358-.239.478-.148.627-.239.657-.522a17.9,17.9,0,0,0,.028-1.937c0-.135-.012-.165-.135-.2a29.186,29.186,0,0,0-3.219-.014.213.213,0,0,0-.165.148,10.412,10.412,0,0,0,.016,1.774c.03.55.149.581.627.759.179.06.3.149.3.225,0,.118-.088.207-.358.207-.657,0-.985-.044-1.445-.044-.539,0-.822.044-1.24.044-.267,0-.4-.088-.4-.193s.135-.179.328-.239c.583-.163.776-.237.836-.625.044-.388.06-1.18.06-1.953,0-1.477,0-2.3-.044-2.685-.032-.328-.107-.536-.657-.685-.253-.074-.36-.165-.36-.283,0-.058.137-.149.39-.149" transform="translate(-465.926 -575.437)" fill="#003b82"/>
      </g>
    </g>
  </g>
</svg>
